<svg xmlns="http://www.w3.org/2000/svg" viewBox="0 0 395.821 710.08">
  <defs>
    <style>
      .cls-1 {
        opacity: 0.602;
      }

      .cls-2 {
        fill: #f3efe6;
      }
    </style>
  </defs>
  <g id="bg" transform="translate(-1176.183 -1207.406)">
    <g id="グループ化_711" data-name="グループ化 711" class="cls-1" transform="translate(1176.184 1207.406)">
      <path id="パス_110" data-name="パス 110" class="cls-2" d="M85.528,199.847l4.893-15.657s3.5-9.07,12.872-10.576c3.274-.527-3.086,8.129-5.194,12.872s7.64,3.764,10.087,3.161-4.629,6.549-7.189,9.259c-3.877,4.1-11.856,4.328-11.856,4.328L77.812,207l-10.764,6.473L56.773,235.9,50.3,228.074s16.41-39.1,19.684-50.17S86.657,105.53,87.635,96.723s.941-19.609-1.054-23.6c-1.995-4.027-1.2-4.893-.151-7.076,1.091-2.145-6.85-28.528-6.85-28.528s-7.076-5.269-7.339-8.957c-.3-3.726-4.893-4.178-6.022-7.828S60.575,7.486,64.037,3.873,66.032,18.664,73.785,22.2s3.274-6.059,4.291-8.656c1.054-2.6.64-7.527.64-7.527s5.307,3.726,5.683,8.694-2.559,9.748-2.559,9.748,3.274,4.7,2.785,8.92a45.076,45.076,0,0,0-.188,7.9l5.533,17.049s2.3-2.672,4.215-9.9c1.28-4.817,3.237-11.479,3.726-15.657S95.8,27.133,95.8,27.133s-6.662-5.156-3.35-10.538c3.5-5.645,4.291-8.656,4.291-8.656l2.145,11.479s6.85-8.017,6.737-9.259S101.335,24.2,101.335,24.2s5.758-5.871,7.715-7.678c1.919-1.807,3.2-6.887,3.2-6.887s1.468,12.947-1.919,17.388c-3.387,4.4-7.678,2.3-8.882,8.2S95.69,62.473,94.711,65.861s.151,7.038-.151,19.119-6.135,54.573-10.049,67.746c-3.952,13.173-9.635,37.185-11.592,44S69.344,204.89,71,204.777C72.694,204.627,85.528,199.847,85.528,199.847Z" transform="translate(139.016 9.413)"/>
      <path id="パス_111" data-name="パス 111" class="cls-2" d="M64.806,28.838c-.489-1.2-6.436-2.409-6.737-11.517S54.08,8.928,54.08,8.928s.3-7.3,4.291-8.656C61.984-.932,65.6,3.509,65.6,3.509l3.425,8.732s-3.124,3.2-2.9,6.1C66.387,21.2,64.806,28.838,64.806,28.838Z" transform="translate(149.463 0.18)"/>
      <path id="パス_112" data-name="パス 112" class="cls-2" d="M63.29,16.335C65.1,6.963,71.118-.075,75.3,0S76.651,12.722,76.8,14.754c.151,2.07-6.925,10.99-6.925,10.99l1.769-9.3L64.306,23.26Z" transform="translate(174.916 0)"/>
      <path id="パス_113" data-name="パス 113" class="cls-2" d="M62.93,52.459s8.543-8.845,18.743-4.4c4.592,1.995-2.484,15.582-3.2,17.275-.677,1.731-11.065,2.409-11.178.753-.151-1.656,3.011-5.457,5.382-11.1C75.614,48.056,62.93,52.459,62.93,52.459Z" transform="translate(173.921 129.363)"/>
      <path id="パス_114" data-name="パス 114" class="cls-2" d="M95.048,63.108c-.79-1.355-2.86-13.888-7.264-19.42C83.38,38.193,73.971,32.322,70.4,31.381s-12.42-4.7-15.055-5.006S44.05,25.66,44.05,25.66s7.527,7.527,9.259,16.071S57.26,57.2,66.933,63.3s14.415,5.495,19.722,6.1c5.269.6,7.6.866,9.146,4.93S96.44,65.479,95.048,63.108Z" transform="translate(121.743 70.916)"/>
      <g id="グループ化_717" data-name="グループ化 717" transform="translate(-0.002 168.139)">
        <g id="グループ化_716" data-name="グループ化 716">
          <g id="グループ化_711-2" data-name="グループ化 711" transform="translate(211.685)">
            <path id="パス_115" data-name="パス 115" class="cls-2" d="M126.913,118.94c-7-4.366-8.619-12.533-10.5-15.506-1.543-2.446-6.775-10.312-10.011-13.7-.866.6-9.748-11.856-11.554-13.323a94.924,94.924,0,0,1-7.6-7.64c-5.984-7.264-8.769-12.307-18.969-13.587C58.038,53.9,55.253,56.5,56.533,60,57.775,63.5,67,68.469,67,68.469S59.544,70.69,61.5,77.088c1.957,6.361,17.614,24.953,25.028,33.421,7.414,8.431,15.582,7.565,19.006,7.49,3.387-.075,11.1.3,11.1.3s-1.618,8.769.79,16.936,10.8,19.044,14.829,21.453,5.307-1.694,6.21-2.672l8.845,12.646s2.672,4.667,5.533,2.446,5.307-4.742,4.78-11.479-4.855-17.5-9.635-23.523a20.691,20.691,0,0,1-2.6-3.914C140.764,126.919,132.22,122.252,126.913,118.94Z" transform="translate(-56.243 -16.547)"/>
            <path id="パス_116" data-name="パス 116" class="cls-2" d="M222.331,150.68c-1.957-1.807-8.054-6.4-10.839-8.355-2.785-1.995-21.942-5.608-35.153-1.957C163.166,144.019,160,145.186,160,145.186s16.334-9.371,28.453-21.9,12.684-19.533,13.323-27.7-.151-15.958,1.091-18.555c1.28-2.6-5.909-.828-9.974,1.317,0,0,4.4-6.812,4.215-9.033-.188-2.258-8.957-5.42-15.506-5.683s-26.12,2.258-32.744,6.21C142.2,73.751,129.444,89.9,128.2,94c-1.28,4.1-.753,12.382-3.35,14.151-2.6,1.807,1.28-13.286-.677-24.238S110.136,62.649,105.394,60.39,85.71,45.449,82.474,44.734s-4.93,5.156-5.231,10.425c0,0-7.076-6.21-8.957-7.678-1.882-1.43-5.834,2.6-6.135,7.6-.263,5.043-.753,16.936.339,21.265a59.385,59.385,0,0,0,4.817,11.743c.64.979,10.915,11.78,13.248,13.474,2.145,1.581,7.678,9.033,9.786,14.076,4.4,4.742,12.157,13.21,15.619,18.367.3-11.78,5.533-31.05,8.581-39.518a1.984,1.984,0,0,1-.79-1.167,2.036,2.036,0,1,1,3.952-.979A2.03,2.03,0,0,1,116.2,94.79c-.075,0-.151.038-.226.038-3.237,8.958-9.07,30.674-8.506,41.739.113.263.188.527.263.715A11.4,11.4,0,0,0,109.5,141.5a7.983,7.983,0,0,1,1.317-.979q.282-1.3.677-2.936a2.038,2.038,0,0,1-1.769-1.543,2.006,2.006,0,0,1,1.468-2.446,1.851,1.851,0,0,1,1.28.113c1.242-4.592,2.823-9.6,4.592-12.571V121.1a2.036,2.036,0,1,1,3.952-.979,2.006,2.006,0,0,1-1.468,2.446,2.177,2.177,0,0,1-1.468-.188c-1.581,2.936-3.161,7.941-4.4,12.684a.037.037,0,0,1,.038.038,1.99,1.99,0,0,1-.489,1.882c-.226.9-.452,1.769-.64,2.635.376-.151.715-.3,1.091-.414a231.634,231.634,0,0,1,11.4-23.711,2.009,2.009,0,1,1,2.032.677,1.725,1.725,0,0,1-.753.038,243.158,243.158,0,0,0-10.915,22.544,7.19,7.19,0,0,1,2.973.151c8.393-13.248,24.125-38.163,28.34-44.712a2.288,2.288,0,0,1-.339-.677,2.063,2.063,0,0,1,1.468-2.484,2.087,2.087,0,0,1,2.484,1.505,2.03,2.03,0,0,1-1.505,2.446,1.835,1.835,0,0,1-.9,0c-3.839,5.947-17.8,28.039-28.227,44.524a6.389,6.389,0,0,1,.866.64c6.135-8.506,15.694-21.641,20.173-27.061a2.046,2.046,0,1,1,2.484,1.581,2.031,2.031,0,0,1-1.618-.3c-4.554,5.57-14,18.555-20.023,26.91a7.824,7.824,0,0,1,1.355,2.6c7.226-5.194,19.42-14.754,25.254-20.775a1.991,1.991,0,0,1-.414-.79,2.03,2.03,0,0,1,1.505-2.446,2.063,2.063,0,0,1,2.484,1.468,1.983,1.983,0,0,1-2.145,2.484c-5.758,6.059-18.668,16.259-26.2,21.641.075.452.113.9.151,1.355a226.827,226.827,0,0,0,24.8-14.942,2.026,2.026,0,1,1,2.371-2.484,1.726,1.726,0,0,1,.038.753,59.044,59.044,0,0,0,8.2-6.812,2.025,2.025,0,0,1,1.543-2.108,2.063,2.063,0,0,1,2.484,1.468,2.03,2.03,0,0,1-1.505,2.446,2.059,2.059,0,0,1-1.807-.452c-6.473,6.511-26.007,18.743-36.206,23.711a7.975,7.975,0,0,1-.414,1.807c1.393-.715,3.651-1.807,7.264-3.5,4.7-2.258,11.592-5.57,15.77-7.715,0-.038-.038-.075-.038-.113a2.006,2.006,0,0,1,1.468-2.446,2.041,2.041,0,0,1,2.032.677c.038-.038.113-.075.151-.113l1.129.941a3.379,3.379,0,0,1-.79.6,2,2,0,0,1-1.543,1.844,2.177,2.177,0,0,1-1.468-.188c-3.161,1.656-8.393,4.178-16.071,7.866-2.635,1.28-5.156,2.484-6.85,3.312.527.3,1.054.565,1.543.866a56.612,56.612,0,0,0,15.13-4.968,2.037,2.037,0,0,1,1.543-1.882,2.006,2.006,0,0,1,2.446,1.468,2.036,2.036,0,0,1-1.468,2.446,1.969,1.969,0,0,1-2.032-.677,64.1,64.1,0,0,1-11.856,4.328c-.677.151-1.28.3-1.807.414a15.7,15.7,0,0,1,2.446,1.694,11.335,11.335,0,0,1,1.317,1.844,21.928,21.928,0,0,1,4.554,4.893c3.387,4.667,20.851,19.571,27.4,21.415,6.549,1.807,24.125,2.032,32.292-1.919,8.167-3.914,22.62-8.656,23.41-11.517s-1.618-1.882-4.215-3.161l-2.6-1.242s11.4-3.2,12.382-5.344C225.643,157.831,224.326,152.449,222.331,150.68ZM105.018,119.931a2.03,2.03,0,0,1-2.446-1.505,2.017,2.017,0,1,1,3.914-.979A2.028,2.028,0,0,1,105.018,119.931Zm8.2,5.382a2.063,2.063,0,0,1-2.484-1.468,2.03,2.03,0,0,1,1.505-2.446,2.017,2.017,0,0,1,.979,3.914Zm2.333-7.414a2.087,2.087,0,0,1-2.484-1.505,2.03,2.03,0,0,1,1.505-2.446,2.063,2.063,0,0,1,2.484,1.468A2.1,2.1,0,0,1,115.556,117.9Zm17.125-6.135a2.069,2.069,0,0,1-2.484-1.505,2.03,2.03,0,0,1,1.505-2.446,2.006,2.006,0,0,1,2.446,1.468A2.033,2.033,0,0,1,132.681,111.764Zm5.495,15.958a2.063,2.063,0,0,1-2.484-1.468,2.087,2.087,0,0,1,1.505-2.484,2.036,2.036,0,0,1,.979,3.952Zm7.3-5.834a2.036,2.036,0,0,1-2.446-1.468,2.006,2.006,0,0,1,1.468-2.446,2.094,2.094,0,0,1,2.484,1.468A2.03,2.03,0,0,1,145.477,121.889Zm5.231,23.3a2.094,2.094,0,0,1-2.484-1.468,2.03,2.03,0,0,1,1.505-2.446,2.017,2.017,0,0,1,.979,3.914Z" transform="translate(-40.859 -44.674)"/>
          </g>
          <g id="グループ化_712" data-name="グループ化 712" transform="translate(22.424 9.731)">
            <path id="パス_117" data-name="パス 117" class="cls-2" d="M75.484,151.514c1.769-1.28,4.93-2.86,7.49-2.446a3.979,3.979,0,0,0,.9.075c-8.167-2.183-16.334-9.3-19.5-12.759a5.666,5.666,0,0,1-.828.414,2.994,2.994,0,0,1-3.877-1.618A2.953,2.953,0,0,1,61.86,131.6a2.994,2.994,0,0,1,3.877,1.618,2.467,2.467,0,0,1-.3,2.108c2.973,3.237,11.329,10.614,19.383,12.5-2.9-3.35-6.887-7.414-10.576-11.366-4.592-4.93-8.92-9.6-10.463-11.7-1.656-2.258-3.989-5.231-6.059-7.828-1.581-2.032-2.86-3.651-3.764-4.855a3,3,0,0,1-2.221.3,2.937,2.937,0,0,1-2.258-3.5,2.981,2.981,0,0,1,3.613-2.108,2.937,2.937,0,0,1,2.258,3.5,4.486,4.486,0,0,1-.3.753c1.016,1.317,2.446,3.161,3.877,5.006,2.07,2.6,4.4,5.57,6.059,7.866,1.505,2.032,5.8,6.662,10.35,11.592,4.968,5.344,8.92,9.635,11.517,12.721a3.706,3.706,0,0,0,.64.075l.715.188L74.957,128.48a2.818,2.818,0,0,1-.79-.075,2.937,2.937,0,0,1-2.258-3.5,2.981,2.981,0,0,1,3.613-2.108,2.937,2.937,0,0,1,2.258,3.5,2.743,2.743,0,0,1-1.317,1.769l12.458,18.856a6.485,6.485,0,0,1,.414-1.882c-5.457-12.006-16.974-35.567-23.372-48.476a3.583,3.583,0,0,1-1.091-.038,2.937,2.937,0,0,1-2.258-3.5,2.981,2.981,0,0,1,3.613-2.108,2.937,2.937,0,0,1,2.258,3.5,2.789,2.789,0,0,1-1.129,1.618C71.8,105,84.028,129.91,90.2,143.422l.339-.452c-4.366-11.479-11.78-30.109-17.915-45.277a3.306,3.306,0,0,1-1.054-.038,2.937,2.937,0,0,1-2.258-3.5,2.981,2.981,0,0,1,3.613-2.108,2.937,2.937,0,0,1,2.258,3.5A3,3,0,0,1,74.054,97.2c3.952,9.861,12.533,31.2,17.652,44.6a8.245,8.245,0,0,1,1.694-1.2c-2.3-7.64-5.307-16.41-7.264-21.415a.828.828,0,0,1-.3-.038,2.888,2.888,0,1,1,3.613-2.108,2.862,2.862,0,0,1-1.769,1.995c.376.941.753,1.995,1.167,3.124A3.028,3.028,0,0,1,94.19,124.6a2.981,2.981,0,0,1-3.613,2.108.2.2,0,0,1-.151-.075c1.468,4.215,3.049,9,4.366,13.436a5.658,5.658,0,0,1,.753-.075c.565.038,1.355-.038,2.3-.075-1.355-11.4-3.651-26.985-5.081-36.244a2.2,2.2,0,0,1-.489-.075,2.888,2.888,0,1,1,3.613-2.108,2.839,2.839,0,0,1-1.656,1.919c1.016,6.662,3.651,23.824,5.081,36.432a20.464,20.464,0,0,1,3.387.075,73.74,73.74,0,0,0-.113-11.592,2.891,2.891,0,1,1,3.952-1.995,2.894,2.894,0,0,1-2.446,2.145,63.41,63.41,0,0,1-.038,11.667,8.009,8.009,0,0,1,1.957.677c.565-5.457,1.2-11.893,1.505-17.689a2.9,2.9,0,0,1-.565-2.409,2.531,2.531,0,0,1,.715-1.28c.075-2.032.113-3.914.038-5.533a4.2,4.2,0,0,1-.64-.075,2.937,2.937,0,0,1-2.258-3.5,2.981,2.981,0,0,1,3.613-2.108,2.865,2.865,0,0,1,.753,5.382c.038,1.505.038,3.2,0,5.006a2.752,2.752,0,0,1,1.355,0,2.937,2.937,0,0,1,2.258,3.5,2.981,2.981,0,0,1-3.613,2.108,1.838,1.838,0,0,1-.263-.113c-.339,5.834-.979,12.232-1.694,17.652a4.608,4.608,0,0,1,1.091,1.882c.489,1.618.9,2.635,1.129,3.35h.075l1.769-4.4c3.2-10.915,2.221-26.082,1.618-32.405a2.883,2.883,0,0,1,1.844-5.457,2.871,2.871,0,0,1-.3,5.683c.715,7.377,1.769,24.991-2.973,36.169l-.038.677,3.952-2.6c3.651-7.527,5.721-17.915,5.608-28.6a2.884,2.884,0,1,1,3.914-1.995,2.849,2.849,0,0,1-2.409,2.145c.075,11.592-2.747,22.544-5.533,28.378.188-.075-.677,2.108-.414,1.882.527-.414,1.468-1.2,2.635-2.258a104.574,104.574,0,0,0,7.226-20.1,2.946,2.946,0,0,1-1.317-3.086,2.981,2.981,0,0,1,3.613-2.108,2.937,2.937,0,0,1,2.258,3.5A2.969,2.969,0,0,1,127.8,124.6a102.41,102.41,0,0,1-5.834,17.125c3.8-3.35,8.092-7.49,11.4-9.447,2.446-1.393,4.592-2.559,4.592-2.559a143.614,143.614,0,0,0,13.7-6.963c5.344-3.274,5.081-10.2,7.64-12.985,2.559-2.823,6.624-10.2,7.3-13.1s2.446-13.474,3.8-19.232c1.393-5.758-4.4-16.635-10.2-21.039s-14.49,4.93-14.49,4.93.038-3.425.075-8.355-5.269-6.586-7.866-5.307-19.308,12.5-23.071,13.888S100.738,73,98.48,80.832,95.544,99.5,94.6,95.511c-.941-4.027-.113-10.689-2.221-14.6S80.791,64.084,73.377,58.514,54.709,50.648,49.063,50.46s-5.8,3.575-6.812,7.866c-.79,3.274,2.6,12.157,4.291,15.393-3.425-2.371-15.356-6.586-18.818-7.076-4.027-.6-9.334,8.807-10.124,10.5-5.382,11.743,6.549,31.615,7.264,33.271.753,1.694,10.237,3.2,17.652,7.226,7.377,4.027,13.323,12.684,9.785,9.936s-8.581-7.828-13.888-9.484a107.607,107.607,0,0,1-19.044-8.619c-5.307-3.161-10.877-3.726-12.834-.414-1.919,3.35,1.242,5.984,5.119,8.845,3.877,2.823,9.6,7.6,9.6,7.6-6.1-1.468-4.4.866-4.441,2.747-.075,1.882,8.167,10.312,13.587,13.1,4.253,2.221,25.216,9.07,31.314,9A83.875,83.875,0,0,1,75.484,151.514Zm26.76-35.454a2.937,2.937,0,0,1,2.258,3.5,2.981,2.981,0,0,1-3.613,2.108,2.937,2.937,0,0,1-2.258-3.5A2.981,2.981,0,0,1,102.244,116.06Z" transform="translate(-5.957 -47.26)"/>
            <path id="パス_118" data-name="パス 118" class="cls-2" d="M161.642,91.188c1.957-.263,12.8-1.129,13.4-5.156s-5.119-7.3-20.7-15.205c-15.619-7.9-29.432-5.269-31.163-3.237-3.952,4.7-11.1,7.9-14.754,10.162-3.952,1.807-9.785,4.742-12.759,6.549-3.5,2.145-9.108,9.3-12.044,12.345-2.936,3.011-6.21,3.8-13.474,5.269-5.269,1.091-12.721,2.333-18.254.941l-.376.113a1.834,1.834,0,0,1-.113-.263c-1.919-.452-3.575-.941-4.817-1.317-4.065-1.167-3.613-.414-4.78.226-1.581.414-3.5.565-3.35.677,0,0-5.119.113-9.974-.263-4.855-.414-4.178.715-7.113,2.672-2.747,1.844-3.914,11.592,5.721,14.3,9.635,2.672,11.743,8.13,22.356,5.909,7.565-1.581-1.656,11.027,24.238,1.957,4.253-1.468,13.926.64,18.367-2.108s-4.215-9.371-4.629-12.5-6.737-8.431-6.737-8.431,9.447,3.387,9.748,6.887,9.3,12.081,11.065,12.533c1.807.414,10.8,4.1,15.506,5.194,4.667,1.129,15.243,1.355,18.894-1.2s17.576-9.9,24.765-14.641c7.226-4.742,8.656-10.839,8.882-14.979s-6.7-5.42-6.7-5.42S159.685,91.489,161.642,91.188Z" transform="translate(31.258 3.092)"/>
          </g>
          <path id="パス_119" data-name="パス 119" class="cls-2" d="M109.305,71.55c-5.533,4.4-7.076,14.452-7.678,20.173s-24.351,49.981-31.351,65.3c-9.07,19.872-20.926,41.626-20.926,41.626l6.775,6.323s18.592-38.54,21.942-45.465S99.9,109.45,107.912,100.869s18.781-10.237,24.539-13.7c0,0-1.505-10.275-.452-12.081,0,0-8.506.565-12.571.565C115.4,75.615,109.305,71.55,109.305,71.55Z" transform="translate(136.392 29.601)"/>
          <path id="パス_120" data-name="パス 120" class="cls-2" d="M29.581,85.374s8.28-.753,9.823-.9S48.55,82.25,48.55,82.25s-4.893,20.437-4.366,16.033c1.242-9.974,2.183,42.3,4.366,58,.452,3.274,8.017-7.828,18.705-10.5l-11.14,15.845a107.516,107.516,0,0,0-7.339,32.33c-.113,1.468-6.925,3.124-6.925,3.124s1.355-15.807-7.414-30.147c0,0,1.919.452,6.361,3.049,0,0-3.011-66.09-3.764-69.326S28.038,87.858,29.581,85.374Z" transform="translate(81.227 59.172)"/>
          <g id="グループ化_713" data-name="グループ化 713" transform="translate(0 206.967)">
            <path id="パス_121" data-name="パス 121" class="cls-2" d="M42.514,213.308a4.463,4.463,0,0,1,.941-2.032c-2.71-6.737-7.565-24.238-9.3-30.6-.113,0-.188.038-.3.038a1.966,1.966,0,1,1,2.3-1.957,1.742,1.742,0,0,1-.6,1.317c2.823,10.312,6.775,24.05,9.033,30,.226-.226.489-.414.753-.64-.64-4.291-2.183-11.4-3.914-18.329h0a2.156,2.156,0,0,1-2.3-1.957,2.132,2.132,0,0,1,2.3-1.957,2.156,2.156,0,0,1,2.3,1.957,1.931,1.931,0,0,1-.828,1.505c2.258,8.882,3.613,14.3,4.366,17.652a1.861,1.861,0,0,1,.489-.151c-.339-3.387-.64-7.941-.941-12.872a2.427,2.427,0,0,1-.753.113,1.982,1.982,0,1,1,0-3.914,2.906,2.906,0,0,1,.565.075c-.565-10.388-1.016-21.453-1.2-26.458a1.994,1.994,0,0,1-1.43-1.807,2.3,2.3,0,0,1,4.554,0,1.991,1.991,0,0,1-1.656,1.844c.188,5.231.677,16.9,1.28,27.475a1.713,1.713,0,0,1,.188.753,1.51,1.51,0,0,1-.113.565c.3,5.344.64,10.35,1.016,13.963a9.9,9.9,0,0,1,1.769.226l.263-5.758a2.113,2.113,0,0,1-2.032-1.919,2.081,2.081,0,0,1,2.221-1.919l1.28-26.948a2.112,2.112,0,0,1-2.145-1.92,2.3,2.3,0,0,1,4.554,0,1.824,1.824,0,0,1-.941,1.543l-1.317,27.7a1.739,1.739,0,0,1-.151,3.124l-.3,6.473c.376.113.753.263,1.129.414.414-1.468.941-3.651,1.543-6.21a1.527,1.527,0,0,1-.151-.715,1.778,1.778,0,0,1,.64-1.317c1.694-7.49,3.688-17.35,4.968-23.673a1.986,1.986,0,0,1-1.505-1.807,2.132,2.132,0,0,1,2.3-1.957,2.156,2.156,0,0,1,2.3,1.957,1.912,1.912,0,0,1-1.543,1.807c-.941,4.629-2.973,14.9-4.817,23.071h0a2.227,2.227,0,0,1,2.108,1.242l7.452-10.99a1.859,1.859,0,0,1-.9-1.505,2.13,2.13,0,0,1,2.3-1.919,2.154,2.154,0,0,1,2.3,1.919,2.085,2.085,0,0,1-2.145,1.919L55.537,209.77c.3.151.565.3.828.452,3.425-4.027,8.807-10.124,11.291-12.985a1.5,1.5,0,0,1-.263-.9,2.333,2.333,0,0,1,4.592,0,2.158,2.158,0,0,1-2.3,1.957,2.026,2.026,0,0,1-.828-.151c-3.726,4.215-8.242,9.409-11.178,12.872l1.016.677,25.066-23.448a1.761,1.761,0,0,1-.339-1.054,2.3,2.3,0,1,1,2.258,1.957,3.709,3.709,0,0,1-.64-.075l-25.179,23.6a9.089,9.089,0,0,1,1.769,1.995c7.49-4.78,23.6-14.979,29.356-18.743a1.647,1.647,0,0,1-.3-.941,2.13,2.13,0,0,1,2.3-1.919,2.154,2.154,0,0,1,2.3,1.919,2.132,2.132,0,0,1-2.3,1.957,3.315,3.315,0,0,1-.64-.075c-5.42,3.5-22.544,14.415-30.184,19.27a8.736,8.736,0,0,1,.113,1.731c2.183-.715,5.8-1.882,9.522-3.35a2.092,2.092,0,0,1-2.07-1.919,2.132,2.132,0,0,1,2.3-1.957,2.156,2.156,0,0,1,2.3,1.957,1.8,1.8,0,0,1-.376,1.054,63.715,63.715,0,0,0,7.49-3.575v-.113a2.325,2.325,0,1,1,2.3,1.957,2.393,2.393,0,0,1-1.543-.527c-5.834,3.463-16.221,6.887-20.06,8.092a10.024,10.024,0,0,1-.3,1.242c5.231-.376,23.6-6.135,32.142-9.522a1.64,1.64,0,0,1-.414-1.091,2.325,2.325,0,0,1,4.592,0,2.172,2.172,0,0,1-2.258,1.957c-8.167,3.425-28.83,9.974-34.212,10.2l-.038-.828c-.151.452-.3.828-.414,1.129,4.291-.113,14.076-.452,19.27-1.468a2.236,2.236,0,0,1,2.145-1.28,1.966,1.966,0,1,1,0,3.877A2.284,2.284,0,0,1,80.6,222.6a142.511,142.511,0,0,1-17.426,1.43l1.242.489s9.334,0,13.248.452c1.844.188,5.457-.9,8.769-2.145a36.882,36.882,0,0,1,4.215-3.989,2.526,2.526,0,0,1-1.581.565,1.966,1.966,0,1,1,2.3-1.919,1.858,1.858,0,0,1-.64,1.355,62.123,62.123,0,0,1,5.8-3.764c8.882-5.909,20.7-6.1,22.921-5.721s2.6-8.506,2.936-11.855c.376-3.312-3.688-13.85-6.285-16.447s-4.065-9.259-4.065-9.259a69.479,69.479,0,0,0-3.312-13.323c-2.221-5.533-11.1-8.882-16.635-8.882s-7.038,1.468-8.506,6.285,0,9.974-3.688,17.388c-3.688,7.377-4.629,7.941-.753-6.1,3.35-12.157,1.844-31.615-1.844-39.744S65.473,104.877,59.564,101.9s-14.415-4.065-15.92,3.688a54.9,54.9,0,0,0-.753,14.415s-6.285-12.947-13.323-11.818-14.038,14.038-14.415,24.05c-.376,9.974-3.312,23.3,3.688,30.711,7.038,7.377,12.947,25.894,15.544,31.05a9.358,9.358,0,0,1,.828,2.258v.038C36.342,200.1,42.514,213.308,42.514,213.308Zm18.48-16.974a1.966,1.966,0,1,1,0-3.877,2.093,2.093,0,0,1,2.258,1.919A2.12,2.12,0,0,1,60.994,196.334Zm10.011,11.178a2.132,2.132,0,0,1-2.3-1.957,2.1,2.1,0,0,1,2.3-1.919,2.154,2.154,0,0,1,2.3,1.919A2.132,2.132,0,0,1,71.005,207.512Zm13.7,0a2.12,2.12,0,0,1-2.258-1.957,2.092,2.092,0,0,1,2.258-1.919,2.13,2.13,0,0,1,2.3,1.919A2.181,2.181,0,0,1,84.7,207.512Zm6.361.226a2.154,2.154,0,0,1-2.3-1.919,2.333,2.333,0,1,1,2.3,1.919ZM73.753,189.484a2.13,2.13,0,0,1,2.3,1.919,2.333,2.333,0,1,1-2.3-1.919Zm-11.63-23.259a1.966,1.966,0,1,1-2.3,1.919A2.117,2.117,0,0,1,62.123,166.225ZM43.418,181.053a2.132,2.132,0,0,1,2.3,1.957,2.158,2.158,0,0,1-2.3,1.957,2.12,2.12,0,0,1-2.258-1.957A2.074,2.074,0,0,1,43.418,181.053Z" transform="translate(39.313 -99.665)"/>
            <path id="パス_122" data-name="パス 122" class="cls-2" d="M26.781,127.521a3.206,3.206,0,0,1-.866-.151c-.263,1.054-.489,2.032-.715,2.936l1.919-2.823A1.042,1.042,0,0,1,26.781,127.521Z" transform="translate(69.65 -23.099)"/>
            <path id="パス_123" data-name="パス 123" class="cls-2" d="M170.46,185.648c-6.662-7.414-7.226-9.56-8.355-12.157-1.091-2.6,2.145-8.957-8.2-8.2-8.318.6-9.673-.677-15.055,3.161,1.694-.715-6.624,4.366-6.624,4.366l-7.3,4.554c-7.3,4.554-17.576,2.747-21.679,2.747s-12.307-1.844-18.48-4.78c-5.608-2.71-10.99-17.8-12.27-22.62h-.038c-2.6-2.221-2.6-16.259-14.415-27.362s-32.179-8.13-37.335-8.13c-5.194,0-10.726-2.221-17.012,2.6s-2.973,7.038-1.468,9.221c1.468,2.221,7.414,9.974,7.414,9.974s-6.285,0-8.129,2.559c-1.844,2.6,2.221,12.947,13.7,22.921,11.442,9.974,26.27,15.544,33.647,15.168,6.4-.339,19.722-5.344,22.921-8.619-.527,2.145-1.468,5.382-3.35,6.022-3.312,1.091-23.3,4.065-19.985,7.753s3.914,5.947,21.076,9.108C80.133,195.886,91.2,203.3,97.972,210.94c1.995,2.221,3.538,6.21,7.264,1.957,4.667-5.307,13.926-12.307,13.926-12.307s-11.216-8.017-13.436-9.861a21.392,21.392,0,0,1-4.065-5.194s9.785,7.64,15.168,10.726c7.414,4.253,4.817,3.2,9.974,3.575,8.882.6,5.645-3.274,16.635-1.468,5.721.941,8.13,4.554,7.753,8.054-.188,1.844-1.844,11.14-1.844,11.14s14.528-6.549,19.609-4.441c2.672,1.091,4.065-5.42,5.57-9.484C175.993,199.687,177.122,193.025,170.46,185.648Z" transform="translate(0.002 -52.548)"/>
            <path id="パス_124" data-name="パス 124" class="cls-2" d="M34.438,131.31l-.038.038A.037.037,0,0,0,34.438,131.31Z" transform="translate(95.076 -12.21)"/>
          </g>
          <g id="グループ化_714" data-name="グループ化 714" transform="translate(131.734 211.765)">
            <path id="パス_125" data-name="パス 125" class="cls-2" d="M63.006,155.264c-.188-8.13-3.877-13.323-5.344-16.447-1.355-2.936-9.108-13.323-13.022-13.587a11.571,11.571,0,0,1-.113,1.581c-.489,4.4-.941,8.694-1.28,12.382-.376,3.688,3.877,14.038,8.882,18.668,2.785,2.6,4.667,8.28,5.721,9.447C58.979,164.673,63.082,158.614,63.006,155.264Z" transform="translate(-12.273 -33.811)"/>
            <path id="パス_126" data-name="パス 126" class="cls-2" d="M70,186.9s.64,1.054,1.505,2.409c3.989-8.242,9.6-19.27,14.565-26.76V151.222c0-11.1-7.038-28.491-7.753-34.739-.753-6.285-9.6-15.544-15.544-15.544-5.909,0-6.285,4.441-5.909,5.533s2.973,11.479,2.973,11.479-4.441-8.506-8.506-10.35-7.377.753-11.1,8.882c-3.688,8.13-4.441,19.609-4.817,23.3,0,0-1.468,4.817,1.129,3.688,2.6-1.091,11.1,1.129,14.791,5.57S58.748,170.3,58.748,170.3c2.635,10.726,8.129,12.947,8.581,20.625l2.71.828V186.9Zm5.57-14.979a2.119,2.119,0,0,1,2.032,2.221,2.04,2.04,0,1,1-2.032-2.221Z" transform="translate(-35 -100.94)"/>
            <path id="パス_127" data-name="パス 127" class="cls-2" d="M62.461,148.371a2.04,2.04,0,1,1,2.032,2.221,2.235,2.235,0,0,1-.979-.263,42.842,42.842,0,0,0-2.973,3.952c-.979,3.726-1.957,6.323-1.957,6.323v-3.312A275.349,275.349,0,0,0,44.96,182.733c.6.866,1.28,1.694,1.882,2.409,2.108-5.156,6.172-11.743,10.312-17.877-.075,0-.151.038-.263.038a2.229,2.229,0,0,1,0-4.441,2.091,2.091,0,0,1,1.995,1.844c1.656-2.446,3.274-4.742,4.742-6.812,1.091-1.543,2.07-2.936,2.86-4.14a2.274,2.274,0,0,1-.188-.9,2.04,2.04,0,1,1,2.032,2.221,2.051,2.051,0,0,1-.828-.188c-.79,1.129-1.694,2.409-2.672,3.839-5.57,7.941-13.813,19.684-16.861,27.512a1.781,1.781,0,0,0,.941.452h0c2.108-3.161,5.645-8.017,9.823-13.4a2.22,2.22,0,0,1-.6-1.581,2.119,2.119,0,0,1,2.032-2.221,1.945,1.945,0,0,1,1.2.414c8.355-10.576,18.329-22.243,24.163-27.362a1.832,1.832,0,0,1-.038-.452,2.04,2.04,0,1,1,2.032,2.221,2,2,0,0,1-1.242-.452c-5.947,5.232-15.883,17.012-24.125,27.475,0,.113.038.226.038.339a2.119,2.119,0,0,1-2.032,2.221h0c-4.253,5.457-7.866,10.388-9.936,13.474a6.653,6.653,0,0,1,.979,1.468l7.866-10.5a2.621,2.621,0,0,1-.188-.941,2.04,2.04,0,1,1,4.065,0,2.142,2.142,0,0,1-2.032,2.221,2.05,2.05,0,0,1-.828-.188l-8.2,10.99a3.518,3.518,0,0,1,.151.489,6.668,6.668,0,0,1,4.554-2.522c5.871-7.791,18.48-24.388,23.222-29.545a2.423,2.423,0,0,1-.263-1.054,2.04,2.04,0,1,1,4.065,0A2.142,2.142,0,0,1,81.58,160a2.434,2.434,0,0,1-.753-.151c-3.764,4.14-14.49,18.028-22.62,28.792.151.075.263.113.414.188L87.64,156.2a2.445,2.445,0,0,1-.3-1.167,2.119,2.119,0,0,1,2.032-2.221,2.229,2.229,0,0,1,0,4.441,2.906,2.906,0,0,1-.565-.075L59.9,189.7a8.711,8.711,0,0,1,1.317,1.317c9.785-9.07,29.356-28.378,36.018-36.545a2.423,2.423,0,0,1-.263-1.054,2.142,2.142,0,0,1,2.032-2.221,2.229,2.229,0,0,1,0,4.441,1.98,1.98,0,0,1-.677-.151c-6.812,8.318-26.421,27.625-36.169,36.7.3.414.6.866.866,1.317,3.764-2.86,9.221-7.038,14.34-11.329a2.247,2.247,0,0,1-1.091-1.957,2.119,2.119,0,0,1,2.032-2.221,2.074,2.074,0,0,1,1.957,1.694,77.211,77.211,0,0,0,9.974-9.861c0-.113-.038-.188-.038-.3a2.04,2.04,0,1,1,2.032,2.221,1.93,1.93,0,0,1-1.28-.489c-5.42,6.775-19.684,17.877-27.211,23.56.188.339.339.677.489,1.016a100.81,100.81,0,0,0,15.845-9.146,2.3,2.3,0,0,1-.3-1.129,2.142,2.142,0,0,1,2.032-2.221,2.229,2.229,0,0,1,0,4.441,1.511,1.511,0,0,1-.565-.113,101.046,101.046,0,0,1-16.485,9.56,9.169,9.169,0,0,1,.452,2.446c7.038-2.86,19.27-10.99,25.141-16.184v-.151a2.142,2.142,0,0,1,2.032-2.221,2.119,2.119,0,0,1,2.032,2.221,1.832,1.832,0,0,1-.038.452c6.85-5.495,14.641-10.275,21.867-15.807,4.215-3.237,13.323-25.518,12.571-34.023s-1.844-17.388-5.533-19.609-12.194,5.909-12.194,5.909A110.182,110.182,0,0,0,110,108.062c-1.091-8.506-8.882-1.844-14.415,0s-13.662-.376-23.673,6.662c-9.974,7.038-11.818,12.571-9.974,22.544a36.884,36.884,0,0,1-.527,13.323c.414-.527.828-1.016,1.2-1.468A1.585,1.585,0,0,1,62.461,148.371Zm13.7-3.124a2.229,2.229,0,1,1-2.032,2.221A2.119,2.119,0,0,1,76.161,145.247Z" transform="translate(-7.475 -92.932)"/>
            <path id="パス_128" data-name="パス 128" class="cls-2" d="M136.973,131.419c-10.35-4.441-21.829-9.259-32.518-6.662-10.726,2.6-27.362,12.759-20.7,6.662l1.919-1.694a1.92,1.92,0,0,1-1.317-.64c-6.135,5.269-18.781,13.7-26.044,16.409a6.338,6.338,0,0,1-.79,1.393,69.283,69.283,0,0,0,14.227-6.21,2.02,2.02,0,1,1,4.027.3,2.142,2.142,0,0,1-2.032,2.221,2.012,2.012,0,0,1-1.694-1.016,77.512,77.512,0,0,1-11.4,5.232c14.264-3.8,40.535-12.684,45.879-18.1,0-.113-.038-.226-.038-.376a2.04,2.04,0,1,1,2.032,2.221,1.792,1.792,0,0,1-1.28-.527c-5.081,4.479-21.6,10.726-35.341,15.017A2.184,2.184,0,0,1,73.4,147.79a2.04,2.04,0,1,1-4.065,0,2.319,2.319,0,0,1,.565-1.505A156.738,156.738,0,0,1,54.1,150.463l.64,1.054,1.656.188c10.087-.151,23.937-.866,31.652-4.968a2.062,2.062,0,0,1,1.995-1.844,2.229,2.229,0,0,1,0,4.441,2.03,2.03,0,0,1-1.731-1.054c-8.017,4.027-21.528,4.78-31.577,4.93l.565.565v2.032l-.941,1.468a7.388,7.388,0,0,0-3.161,5.344c-.489,3.387-4.742,10.839-5.834,12.683.038.79.075,1.656.113,2.672.188,6.737,3.688,9.974,10.35,19.985,6.662,9.974,22.544,21.453,35.491,21.453,6.436,0,5.457-4.14,3.5-7.452,5.382,4.818,13.248,6.737,18.329,4.516,5.909-2.6,5.457-10.388-1.129-21.453-13.474-22.732-20.324-19.609-29.959-28.453-9.6-8.882-14.415-9.786-1.468-3.124s22.356,11.1,29.959,23.109c3.086,4.893,26.27,1.129,32.894.753,6.662-.376,12.947-6.285,12.947-10.726s-10.726-12.571-5.909-12.571,8.882,2.221,9.635-6.662C162.867,148.43,147.36,135.86,136.973,131.419Zm-54.347,6.473a2.229,2.229,0,1,1,2.032-2.221A2.142,2.142,0,0,1,82.625,137.892Zm-19.044,20.7a2.229,2.229,0,1,1,2.032-2.221A2.119,2.119,0,0,1,63.581,158.592Zm38.088-16.071a2.119,2.119,0,0,1-2.032-2.221,2.04,2.04,0,1,1,2.032,2.221Z" transform="translate(-0.842 -37.139)"/>
          </g>
          <g id="グループ化_715" data-name="グループ化 715" transform="translate(25.278 348.961)">
            <path id="パス_129" data-name="パス 129" class="cls-2" d="M28.22,159.252c2.258,2.221,5.006,5.194,7.9,8.468a1.161,1.161,0,0,1-.038-.376,2.014,2.014,0,0,1,1.054-1.807l-8.619-6.887C28.408,158.838,28.333,159.064,28.22,159.252Z" transform="translate(52.719 -78.646)"/>
            <path id="パス_130" data-name="パス 130" class="cls-2" d="M29.38,157.36c1.054.414,2.221.828,3.387,1.242a1.685,1.685,0,0,1-.151-.753C31.525,157.7,30.471,157.548,29.38,157.36Z" transform="translate(55.924 -82.211)"/>
            <path id="パス_131" data-name="パス 131" class="cls-2" d="M186.637,226.467s7.377-2.221,9.974-3.688.376-8.13-9.974-18.856-25.254-17.012-35.6-16.635a50.116,50.116,0,0,1-11.442,15.92c-7.791,7-14.415,8.242-18.141,7.377-7.189-1.656,2.71-.376,9.748-4.065s11.818-12.194,16.635-20.7,4.817-19.985,4.441-23.673.376-4.441-7.377-4.065-17.388,6.285-17.388,6.285,2.973-10.726,2.6-14.791-6.285-8.506-13.323-5.533c-7,2.973-13.662-.376-17.012,2.973-3.312,3.312-9.974,8.13-12.571,12.571s-3.688,9.974-.753,22.921c2.973,12.947-2.6,5.57-4.065-1.091s-.376-18.141-6.662-27.362C69.437,144.8,54.646,137.8,35.037,137.419s-17.764,3.312-15.544,8.506c2.221,5.156,8.882,14.038,8.882,14.038s-9.974-4.441-15.544-4.817c-5.533-.376-7.753,11.441-4.817,19.232,2.973,7.753,2.221,14.791,8.506,16.259s7.753,7.038,9.259,13.662c1.468,6.662,10.35,12.571,25.141,10.726s11.856-1.091,11.856-1.091.6,1.731-17.275,5.307c-10.651,2.145-25.254,15.77-26.383,22.055-1.091,6.285-4.065,31.8-7.038,36.244s3.688,7.753,7.038,7.414c3.312-.376,12.947-5.909,12.947-5.909S23.182,296.81,26.155,300.5s20.7-1.468,28.114-3.312c7.377-1.844,7.527-4.328,13.06-9.861s1.355-13.813,2.823-18.254,3.312-8.882,6.285-10.726-3.688,4.817-3.688,11.818c0,7.038,1.844,16.259-2.6,19.232s2.973,3.688,3.688,14.038c.753,10.35,8.882,24.765,23.3,26.609s9.974-4.441,10.35-9.259,2.221,1.091,5.194,4.065,7.038,4.817,12.194-1.091c5.194-5.909,12.947-21.829,9.259-40.309s-6.285-25.518-11.1-30.3c-4.817-4.817-12.947-9.259-12.947-14.038,0-4.817,7.377,7.377,19.232,12.947,11.818,5.57,37.335,6.662,46.594.376s15.544-12.194,20.324-12.194C201.052,240.167,191.455,228.688,186.637,226.467ZM111.4,192.745a2.108,2.108,0,1,1,0,4.215,2.137,2.137,0,0,1-2.145-2.108A2.161,2.161,0,0,1,111.4,192.745ZM70.378,206.407a2.108,2.108,0,0,1,0,4.215,2.108,2.108,0,1,1,0-4.215Zm-3.989,11.931a2.127,2.127,0,0,1,4.253,0,2.127,2.127,0,1,1-4.253,0Zm74.972,2.145a2.067,2.067,0,0,1-1.995-1.468c-4.893-.263-18.291-2.032-40.008-5.344a2.216,2.216,0,0,1-1.016,1.167c1.054.376,2.108.753,3.2,1.167a2.026,2.026,0,0,1,1.167-.339,2.148,2.148,0,0,1,2.032,1.468c4.667,1.656,9.56,3.35,14.076,4.93,11.667,4.065,16.522,5.758,18.555,6.624a2.1,2.1,0,0,1,1.807-1.016,2.127,2.127,0,1,1,0,4.253,2.175,2.175,0,0,1-2.108-1.807c-2.221-.9-10.576-3.839-18.743-6.662-4.366-1.543-9.108-3.2-13.662-4.78a2.107,2.107,0,0,1-4.027-.9,2.542,2.542,0,0,1,.075-.527c-4.479-1.581-8.619-3.086-11.818-4.328,0,.226-.038.452-.038.715l16,9.334a2.115,2.115,0,0,1,4.1.753,1.906,1.906,0,0,1-.527,1.355l8.242,4.818a2.137,2.137,0,0,1,1.618-.753,2.1,2.1,0,0,1,2.108,2.108,2.137,2.137,0,0,1-2.108,2.145,2.161,2.161,0,0,1-2.145-2.108l-9.371-5.457A2.175,2.175,0,0,1,105,224.811l-16.41-9.56c-.038.226-.113.452-.151.677l18.894,15.092a1.992,1.992,0,0,1,1.129-.339,2.1,2.1,0,0,1,2.108,2.108,2.137,2.137,0,0,1-2.108,2.145,2.169,2.169,0,0,1-2.145-2.145,1.7,1.7,0,0,1,.113-.6l-6.775-5.42a2.079,2.079,0,0,1-2.032,1.468,1.758,1.758,0,0,1-.64-.113c2.9,3.35,5.834,6.963,8.431,10.425a2.154,2.154,0,0,1,1.731-.9,2.1,2.1,0,0,1,2.108,2.108,2.067,2.067,0,0,1-1.468,1.995,50.855,50.855,0,0,1,5.119,8.619,2.283,2.283,0,0,1,.9-.226,2.127,2.127,0,1,1,0,4.253,2.113,2.113,0,0,1-2.108-2.145,1.758,1.758,0,0,1,.113-.64c-2.71-7.64-17.125-24.577-25.028-32.443a3.034,3.034,0,0,1-.527.452l9.334,11.517h0a2.1,2.1,0,0,1,2.108,2.108,2.137,2.137,0,0,1-2.108,2.145,1.9,1.9,0,0,1-.489-.075c4.742,6.662,9,12.721,11.291,16.221a2.261,2.261,0,0,1,1.016-.264,2.113,2.113,0,0,1,2.108,2.145,2.127,2.127,0,1,1-4.253,0,1.527,1.527,0,0,1,.151-.715c-3.613-5.457-13.662-19.609-22.243-31.5-.263.075-.565.188-.828.264,4.893,10.049,18.367,32.443,20.06,35.3a2.432,2.432,0,0,1,.753-.151,2.144,2.144,0,0,1,2.145,2.145,2.127,2.127,0,1,1-3.989-.979c-1.054-1.731-15.356-25.48-20.4-35.943-.376.075-.753.113-1.129.151l3.989,9.07a1.559,1.559,0,0,1,.6-.075,2.127,2.127,0,1,1-2.145,2.108,1.991,1.991,0,0,1,.339-1.129l-4.366-9.936c-.151,0-.3-.038-.489-.038a174.832,174.832,0,0,0,4.742,18.141,2.153,2.153,0,0,1,1.091,1.844,2.126,2.126,0,1,1-2.71-2.032,153.536,153.536,0,0,1-4.667-18.329,4.67,4.67,0,0,1-2.07-1.468,3.14,3.14,0,0,1-.3-.452,27.387,27.387,0,0,0-.64,5.119,2.058,2.058,0,0,1,.3,1.091,2.175,2.175,0,0,1-.376,1.2c0,1.2,0,2.522.038,3.989a2.129,2.129,0,1,1-3.161,1.844,2.071,2.071,0,0,1,1.694-2.07c-.038-.979-.038-1.957-.038-2.86-.075,0-.188.038-.263.038a2.1,2.1,0,0,1-2.108-2.108,2.137,2.137,0,0,1,2.108-2.145,1.545,1.545,0,0,1,.414.038,20.091,20.091,0,0,1,1.167-6.135,10.692,10.692,0,0,1,1.543-8.242,10.848,10.848,0,0,1,1.731-1.769l-1.468-4.893h-.151a2.113,2.113,0,0,1-2.108-2.145,2.081,2.081,0,0,1,2.108-2.108,2.137,2.137,0,0,1,2.145,2.108,2.047,2.047,0,0,1-.64,1.505l1.43,4.667a8.23,8.23,0,0,1,2.409-.866L81.1,196.02a2.137,2.137,0,1,1,2.973-1.957,2.067,2.067,0,0,1-1.468,1.995l-1.129,9.673c.226,0,.414-.038.64-.038.3,0,.6.038.9.038l2.221-5.8a2.1,2.1,0,0,1-.828-1.656,2.145,2.145,0,1,1,4.291,0,2.114,2.114,0,0,1-2.032,2.108l-2.145,5.495c2.3-1.543,6.4-5.006,10.388-8.431a2.026,2.026,0,0,1-1.167.339,2.181,2.181,0,1,1,1.543-.715c1.43-1.242,2.823-2.446,4.1-3.575,2.183-1.919,3.575-3.124,4.479-3.877a3.233,3.233,0,0,1-.113-.64,2.127,2.127,0,1,1,2.145,2.108,1.992,1.992,0,0,1-1.129-.339c-1.129.979-2.785,2.409-4.441,3.839-3.124,2.747-6.963,6.059-10.2,8.732,3.952-1.807,8.393-3.613,11.1-4.667a2.434,2.434,0,0,1-.151-.753,2.1,2.1,0,0,1,2.108-2.108,2.137,2.137,0,0,1,2.145,2.108,2.113,2.113,0,0,1-2.145,2.108,2.588,2.588,0,0,1-.9-.188c-3.952,1.543-8.845,3.538-12.683,5.344,2.559-.9,5.683-1.882,8.957-2.823a2.175,2.175,0,0,1,1.2-.376h.038c6.624-1.919,13.512-3.726,17.087-4.629,0-.075-.038-.188-.038-.263A2.144,2.144,0,0,1,119,194.928a2.126,2.126,0,1,1-1.355,3.764c-3.2.828-9.635,2.484-16.033,4.328a2.142,2.142,0,0,1-1.844,3.237,2.121,2.121,0,0,1-2.108-2.07c-3.877,1.167-7.49,2.3-10.011,3.274a2.84,2.84,0,0,1,.414.527l23.259-.677a2.187,2.187,0,0,1,1.581-.677,2.144,2.144,0,0,1,2.145,2.145,2.089,2.089,0,0,1-2.145,2.108,2.121,2.121,0,0,1-2.108-2.07l-22.017.64a2.854,2.854,0,0,1,.113.6v.376c2.183.339,4.516.677,6.85,1.054a2.051,2.051,0,0,1,1.618-.79,2.11,2.11,0,0,1,1.957,1.317c6.925,1.054,14.151,2.108,20.55,3.011a2.122,2.122,0,1,1,2.936.414c7.64,1.054,13.813,1.844,16.522,2.032a2.129,2.129,0,0,1,4.14.677A2.187,2.187,0,0,1,141.361,220.483Zm-22.845,5.457a2.1,2.1,0,0,1-2.108,2.108,2.127,2.127,0,1,1,0-4.253A2.113,2.113,0,0,1,118.515,225.941Z" transform="translate(-6.715 -137.393)"/>
            <path id="パス_132" data-name="パス 132" class="cls-2" d="M27.41,159.668c2.86,3.952,5.947,8.242,8.882,12.42a2.53,2.53,0,0,1,.64-1.355L27.786,159.48A3.481,3.481,0,0,0,27.41,159.668Z" transform="translate(50.48 -76.352)"/>
          </g>
        </g>
      </g>
    </g>
  </g>
</svg>
