<svg xmlns="http://www.w3.org/2000/svg" viewBox="0 0 2412.7 1076"><defs><style>.cls-1{opacity:0.2;}.cls-2{fill:#d8d1c1;}</style></defs><title>hero_cloud</title><g id="レイヤー_2" data-name="レイヤー 2"><g id="レイヤー_4" data-name="レイヤー 4"><g class="cls-1"><path class="cls-2" d="M977,518.3a16.5,16.5,0,0,0,14,2.9,8.9,8.9,0,0,0,2.5,1.6c6.7,2.8,16,4.1,22.2.2h1.5c3.1,0,6.3.2,9.3-.6a10,10,0,0,0,4.7-2.9l.7.2a30.7,30.7,0,0,0,24.8-2.7,13.1,13.1,0,0,0,4.4-3.1c5.8-5.8-2.1-17.1-9.1-11.8l-2.4,1.7c-2.3.5-6.8-1.5-8.5-1.8-4.9-.9-10.1-1.1-14.5,1.7l-1,.6a13.5,13.5,0,0,0-6.5-2.4,20.5,20.5,0,0,0-14.5-8.1c-4.7-.6-10.6-.3-14,3.6a9.1,9.1,0,0,0-2.4,5.4,25.2,25.2,0,0,0-8.6-4c-4.2-1-10.1,2.2-9.5,7.2a18,18,0,0,0,1.1,4.3C970.9,513.9,972.9,517.7,977,518.3Z"/><path class="cls-2" d="M555.8,429.9h-.2c-3.7-1.7-8-1.1-10.2,2.7s-1,8.6,2.7,10.2c1.4.6,2.1.9,2.5,2.4h0l.5,1.2a22.3,22.3,0,0,0-6.7,3c-3.2,2.1-5.1,2.4-8.9,2.7l-4.2.4a180.9,180.9,0,0,0-29.5,2.9,20.9,20.9,0,0,0-9.8-5.6,6.8,6.8,0,0,0-6.6,1.5c-7.3-5.3-15.7-9.8-25.4-11.6-13.3-2.4-29.5,1.9-34.1,11.7-3.5-5.2-10.9-8.7-18.5-8.7s-15.1,3.4-18.6,8.6c-4.5-3.3-11.5-5.4-16.9-3.1s-5.2,10.2.9,10.9l-.9.6c40.7,5.9,82.2,11.5,123.5,13.8a7.1,7.1,0,0,0,6.4,1.1l2.2-.7c43.2,1.9,86.2,0,127.7-9.3-7.8-8-22.3-11.3-34.8-8.9a4.5,4.5,0,0,0-1.5-1.9c-6.7-5.2-15.5-6.5-22.7-3a24.4,24.4,0,0,0-8.3-4.3,6.4,6.4,0,0,0,.9-3.4,8.9,8.9,0,0,0,5.2,2.3l20,2.2a12.5,12.5,0,0,0,7.4-1.2,9.2,9.2,0,0,0,3.2-3l.8-1h0c7.5-.8,9.2-13.1,1.1-14.7l-7.7-1.5a8.6,8.6,0,0,0-8.3-3.4c-8.8,1.6-18.6,2.2-27,5.1A16.7,16.7,0,0,0,555.8,429.9Z"/><path class="cls-2" d="M524,845.2a12.5,12.5,0,0,0,11.3.3c5.7-2.6,10.6-5.3,16.5-6.9h1.3l25.6.2c8.3,0,10.3-12.7,2-14.8a68.3,68.3,0,0,0-27-1.2,56,56,0,0,0-12.8,3.3c-2.1.8-4.3,1.7-6.3,2.7s-2.9,2-4.4,2.6a24.9,24.9,0,0,0-3.3-1.6,17.3,17.3,0,0,0-13-15.5c-9.2-2.3-20.4,1-27.2,7.9a25.2,25.2,0,0,0-22.4-.1l-.6.4a29.4,29.4,0,0,0-20.9,5.4l-.3.2a39,39,0,0,0-6.7,1.1c-9.4,2.3-5.4,16.7,4,14.4l3.8-.6a17.8,17.8,0,0,0,10.8,5.2,12.9,12.9,0,0,0,9,4.1,74.9,74.9,0,0,0,20-1.7,11.2,11.2,0,0,0,6.8-5.1l22.8-1.1,3.5-.3h1A12.3,12.3,0,0,1,524,845.2Z"/><path class="cls-2" d="M1384.9,83.8a13.7,13.7,0,0,1-5.2-4.7c-3.6-5.3-11.8-4.6-13.8,1.8s-18.1,3.1-23.3,3.3-9.5,1.3-14.3,1-7.5-3.8-11.5-5.6-10-1.5-15-1.1-11.3,1.1-16.9,1.9a227.8,227.8,0,0,0-32.7,7.5l-1.9.8c-8.8-7.2-18.9-13.8-31.3-16.1s-29.5,1.9-34.1,11.7c-3.5-5.2-10.9-8.7-18.5-8.7s-15.1,3.4-18.6,8.6c-4.5-3.3-11.5-5.4-16.9-3.1s-5.2,10.2.9,10.9l-.9.6c56.4,8.1,114.4,15.7,171.4,14.7.6,5.8,5.8,11.2,11.9,10.8l4.3-.2a6.4,6.4,0,0,0,6.7,1.4l4.4-1.7c6.3,0,12.7.3,19,.9,11.3,1.1,23.2,5.4,34.6,3,4.3-1,8.3-3.8,12.2-5.1h.4a22.9,22.9,0,0,1,2.3,1,16.4,16.4,0,0,0,10.5-.6c4.5-1.7,8-5.5,12.2-8l4.3-2.2a10.9,10.9,0,0,0,10.3-.7c5.8-3.3,9.4-10.7,6.8-17.1s-7.9-10.2-14.8-8.4a78.4,78.4,0,0,0-16.6,6.5,43.9,43.9,0,0,0-5.1,3.2,6,6,0,0,0-3.6-4.8C1396.5,82.5,1390.7,81.8,1384.9,83.8Z"/><path class="cls-2" d="M1340.3,156.6c-4.2-7.1-13.8-7.8-20.8-5.4a24.4,24.4,0,0,0-13,9.9,21.8,21.8,0,0,0-6.3-.9,7,7,0,0,0-3.7.9,7.2,7.2,0,0,0-13.1,2.6,24.2,24.2,0,0,0-9.3,1.4,11.9,11.9,0,0,0-9.8-.5c-3.7,1.4-6.4,5-5.2,9.2s5,6.4,8.6,5.4a7.4,7.4,0,0,0,4,2.3,6.1,6.1,0,0,0,4.4,3.4,160.4,160.4,0,0,0,37.2,1.7,7.2,7.2,0,0,0,6.4-.6,153.6,153.6,0,0,0,29.8-6.3c8.3-2.7,6.4-14.1-2-14.8l-5.7-.6A11.6,11.6,0,0,0,1340.3,156.6Z"/><path class="cls-2" d="M904.3,695.8c-5.5-1.6-11.4-1.6-17.2-1a18.1,18.1,0,0,0-4-1.9,13.2,13.2,0,0,0-13.4,2.9l-.9,1.1c-8.5-1.2-17-1-24.4,3.8a24.1,24.1,0,0,0-24-3.9,8.2,8.2,0,0,0-2.6,1.4L816,698c-4.9,0-7.3,3.8-7.2,7.6l-8.3-.2a25.8,25.8,0,0,0-10-5.8,7.5,7.5,0,0,0-5.7.7l-2.6-2.3c-2.2-1.7-4.5-2.7-7.3-1.9a7.6,7.6,0,0,0-5.2,5.1l-.7.4a7.6,7.6,0,0,0-3.1,3.8,10.6,10.6,0,0,0-8.9-4.3,5.7,5.7,0,0,0-2.9.7,6.1,6.1,0,0,0-2.4,1.5l-.6.6-1-.7a7.9,7.9,0,0,0-3.5-4.1,10,10,0,0,0-4.4-1.2h-.9l-.7-.4c-.4-3.4-2.8-6.6-7.2-6.6a7,7,0,0,0-5.3,2.2l-2.1-.5c-13.3-2.4-29.5,1.9-34.1,11.7-3.5-5.2-10.9-8.7-18.5-8.7s-15.1,3.4-18.6,8.6c-4.5-3.3-11.5-5.4-16.9-3.1s-5.2,10.2.9,10.9l-.9.6c76.2,11,155.4,21.1,230.9,10.2,3.4.3,6.9.4,10.4.4,9.7,1.3,19.6,1.2,29.5,1.3l31,.3c9.9.1,21.9,1.9,30.5-4.2a12.1,12.1,0,0,0,2.4-2.1c6.1,0,12.7-6,11.9-12.1l-1.8-13.1c-.8-6.2-4.9-12.3-12-12-5.1.2-11.2,4.3-12,9.8a54.2,54.2,0,0,0-5.7,0c-9.8-1.8-20.5-.7-30.4.4a27,27,0,0,0-10.3.6A24.3,24.3,0,0,0,904.3,695.8Z"/><path class="cls-2" d="M1985.2,566.8c5.5-1.6,11.4-1.6,17.2-1a18.1,18.1,0,0,1,4-1.9,13.2,13.2,0,0,1,13.4,2.9l1,1.1c8.4-1.2,16.9-1,24.3,3.8a24.1,24.1,0,0,1,24-3.9,7.2,7.2,0,0,1,2.6,1.4l1.8-.2c4.9,0,7.3,3.8,7.3,7.6l8.2-.2a25.8,25.8,0,0,1,10-5.8,7.5,7.5,0,0,1,5.7.7l2.6-2.3c2.2-1.7,4.5-2.7,7.3-1.9a7.3,7.3,0,0,1,5.2,5.1l.7.4a7.9,7.9,0,0,1,3.2,3.8,10.3,10.3,0,0,1,8.8-4.3,5.7,5.7,0,0,1,2.9.7,4.9,4.9,0,0,1,2.4,1.5l.6.6,1.1-.7a7.3,7.3,0,0,1,3.4-4.1,10.1,10.1,0,0,1,4.5-1.2h.8l.8-.4a6.9,6.9,0,0,1,7.1-6.6,7,7,0,0,1,5.3,2.2l2.1-.5c13.3-2.4,29.5,1.9,34.1,11.7,3.5-5.2,10.9-8.7,18.5-8.7s15.1,3.4,18.6,8.6c4.5-3.3,11.5-5.4,17-3.1s5.1,10.2-1,10.9l.9.6c-76.1,11-155.4,21.1-230.8,10.2-3.5.3-7,.4-10.4.4-9.8,1.3-19.7,1.2-29.5,1.3l-31,.3c-10,.1-22,1.9-30.6-4.2a11.5,11.5,0,0,1-2.3-2.1c-6.1,0-12.7-6-11.9-12.1.5-4.4,1.1-8.7,1.7-13.1.8-6.2,4.9-12.3,12-12,5.1.2,11.3,4.3,12,9.8a54.2,54.2,0,0,1,5.7,0c9.8-1.8,20.5-.7,30.4.4a26.8,26.8,0,0,1,10.3.6A23.4,23.4,0,0,1,1985.2,566.8Z"/><path class="cls-2" d="M582.8,752c-2.7,1.8-5.1,4-8.5,5.1s-7.1.8-10.8.7-9.2,0-13.9.2a7,7,0,0,0-7.2-6.7,7.2,7.2,0,0,0-5.4,2.3c-3.3-6.2-11.4-10-17.9-6.5-.1,0-.2,0-.2.1h-.7a6.7,6.7,0,0,0-2.4-.4,7.1,7.1,0,0,0-6.9,5.2,6.6,6.6,0,0,0-.8,3.2,13.6,13.6,0,0,0,.2,2,.3.3,0,0,1,.1.2l-2.6-.4a13.8,13.8,0,0,0-5.6-7.7c-5.9-4-13.8-2.7-17.6,3.3a6.4,6.4,0,0,0-1.1,3.6c-7.3,1.1-14.2,3.9-17.8,8.8a148.2,148.2,0,0,0-37.7-2.8c-4,4.3.1,10.6,6.1,13.2,3.6,1.6,7.6,2.2,11.7,2.8.2,3.5,2.6,7,7.2,7a7,7,0,0,0,5.1-2c.9,1.8,3.2,3.7,11.9,5,17.3,2.5,24.4,2.4,34.7-1,5.7-1.8,11-4.5,17.1-5.5,19.1-3.3,37.1,10.1,56.6,9.3,11.9-.5,23.4-6.3,34.9-4.2,4.2.7,7.9,2.4,12.1,2.8,7.7.8,14.7-2.9,22.1-4.6,12.7-3,26.3-.3,39.5.7,31.1,2.5,62-4.3,92-11,7.7-1.8,16.4-4.7,21.6-9a31.3,31.3,0,0,0,8.3-3.3,7.5,7.5,0,0,0-7.5-12.9l-.9.4a22.2,22.2,0,0,0-9.7-4c-6.7-1-13.7.5-19.9,2.8-3.9,1.4-7.9,3.3-12.3,3.4-7.3.3-13.4-4.3-20.7-5.3-14.4-2-26.5,10.6-41.1,9.8-8.8-.5-17.7-5.8-25.6-2.8-4.7,1.8-7.7,6.3-12.9,6.7-3,.2-5.9-1.1-8.4-2.3-10-4.7-20.3-9.3-31.8-11.2S591.8,746.2,582.8,752Z"/><path class="cls-2" d="M300.5,730.1l-4-.8c15.3,3.5,31.3,4.9,47.4,5.5a60.4,60.4,0,0,0,15.3.5h4.6l61.4,1.3c17.7.4,35.4.8,52.9-1.2s35.9-6.6,54-5.5c13.8.8,28.6,4.7,40.5-.5,4.5-2,8-5,11.4-8s4.6-4.4,4.2-7-3.9-4.8-7.1-6.3c-5.4-2.4-11.1-4.8-17.3-5.2s-13.1,1.5-16,5.7c-13.6-7-33.8-4.7-44.2,5-15.4-8.1-36.1-9.9-53.4-4.5-10.4-8.6-26.4-12.9-41.5-11.3a56.6,56.6,0,0,0-21.8,7.1,65.1,65.1,0,0,0-28.8.4,36,36,0,0,1-10.7-5c-4.5-3.1-8.7-6-14.3-6.8a20.2,20.2,0,0,0-16.7,5.5,17.2,17.2,0,0,0-3.3,5.1c-.5-.9-1-1.8-1.6-2.7-4-5.4-12.8-8.5-17.4-1.8a11.6,11.6,0,0,0-1.9,7.5,61.9,61.9,0,0,0-10.5.8c-8.9,1.5-18.5,7.8-14.9,14.2A130.5,130.5,0,0,1,300.5,730.1Z"/><path class="cls-2" d="M623.9,647.1c-6.1-3.9-15.4-3.7-22.5-1s-12.7,7.3-18,11.8c-3.6-6.9-12.8-11.3-22.2-12.9a76.4,76.4,0,0,0-13.6-1,8.3,8.3,0,0,0-4.5-2.4l-2-1.8c-2.2-2-4.4-4.3-7.4-5.1a9.1,9.1,0,0,0-9.8,3.9c-1.3,2.2-2,5-2.8,7.4a19.5,19.5,0,0,0-2.4,2.6,6.3,6.3,0,0,0-1.1,4.6l-.7-.3c-5-2.3-10.2.1-11.1,5.4a15.4,15.4,0,0,0-6.9-4.5c-5.5-1.9-10.7,4-9.2,9.2a16.6,16.6,0,0,0,8.2,10.4,19.1,19.1,0,0,0,5.5,5.1c5.8,3.2,12.3,1.6,18-1s10.6-5.5,17.1-5.6a22.6,22.6,0,0,1,4.5.2,50,50,0,0,0,14,4.6c4.1.7,6.5.1,8.7,3.7a27,27,0,0,0,7.1,8.3c13.4,10,29.8,3.8,43.1-2.7a4.2,4.2,0,0,0,1.4-.9c.7,1.1,1.5,2.4,2,3a19.8,19.8,0,0,0,4.9,4.2,26.7,26.7,0,0,0,13.2,3.9c7.2.2,13.7-2.4,19.8-6,12.7.3,25.3.2,37.9-.7,10.3-.7,20.4-2.3,29.9-6.3,7.2-3,18.2-10.4,26.2-6.7a8,8,0,0,0,10.2-3.2h.9a25.5,25.5,0,0,0,5.1,1.3H769c3.6.7,7.1,1.4,10.8,1.8,13.5,1.3,27.6-1.7,38.2-8.3a33.8,33.8,0,0,0-7.4-7.2c2.2-4.4,0-11.1-6.4-11.1a7.2,7.2,0,0,0-5,1.8,24.6,24.6,0,0,0-11.7-7.7,7.4,7.4,0,0,0-4.7.1,10.8,10.8,0,0,0-4.3-1,7.2,7.2,0,0,0-13.4.7,14.9,14.9,0,0,0-9.3-2.3,13.8,13.8,0,0,0-5.6,1.9,36.3,36.3,0,0,0-12.7-1.4c-9.2.7-17.6,4.3-26.1,7.2a7.2,7.2,0,0,0-14.3.5c-2.3-1.1-4.4-2.6-6.7-3.7-7.8-4-18.1-4-27.3-2.5s-17.8,4.6-26.9,6.5a13.4,13.4,0,0,1-6.6.3C627.3,649.8,625.7,648.2,623.9,647.1Z"/><path class="cls-2" d="M1041.8,896.9c-6.7-1-13.7.5-19.9,2.8-3.9,1.4-7.9,3.3-12.3,3.4-7.3.3-13.4-4.3-20.7-5.3-14.4-2-26.5,10.6-41.1,9.8-8.8-.5-17.7-5.8-25.6-2.8-4.7,1.8-7.7,6.3-12.9,6.7-3,.2-5.9-1.1-8.4-2.3-10-4.7-20.3-9.3-31.8-11.2-9.7-1.7-20.5-1.1-29,2.7a9,9,0,0,0-6.6.5l-1.6.7a22.2,22.2,0,0,0-10.9-.5c-3.3.7-5.4,4.1-5.4,7.4-6.2-.1-12.4.1-18.6.4a7.4,7.4,0,0,0-4.5-4.1c-7.2-2.6-15.4-4.1-22.2-.9a22.9,22.9,0,0,0-8.3-2.5c-3.4-.4-6.4,2.6-7.2,5.8a117.1,117.1,0,0,0-13.2-.9c-9.7.1-20.2,2.9-24.9,9.4a148.2,148.2,0,0,0-37.7-2.8c-4,4.3.1,10.6,6.1,13.2s13.3,2.8,20,3.9-1.5,6.4,15.9,8.9,24.4,2.4,34.7-1c5.7-1.8,11-4.5,17.1-5.5,19.1-3.3,37.1,10.1,56.6,9.3,11.9-.5,23.4-6.3,34.9-4.2,4.2.7,7.9,2.4,12.1,2.8,7.7.8,14.7-2.9,22.1-4.6,12.7-3,26.3-.3,39.5.7,31.1,2.5,62-4.3,92-11,12.4-2.8,27.6-8.8,25.8-18.5C1054.8,902,1048.5,898,1041.8,896.9Z"/><path class="cls-2" d="M731.1,886.5c18-2,35.9-6.6,54-5.5,13.8.8,28.6,4.7,40.5-.5,4.5-2,8-5,11.4-8s4.6-4.4,4.2-7-3.9-4.8-7.1-6.3c-5.4-2.4-11.1-4.8-17.3-5.2s-13.1,1.5-16,5.7c-13.6-7-33.8-4.7-44.2,5-15.4-8.1-36.1-9.9-53.4-4.5-10.4-8.6-26.4-12.9-41.5-11.3s-28.9,9.3-35.7,19.8c-10.3-6.7-26.4-7.7-37.9-2.2a23.5,23.5,0,0,0-15.9-.8c-10.3-6.3-24.5-8.9-37.5-6.7-8.9,1.5-18.5,7.8-14.9,14.2a130.5,130.5,0,0,1,33.7,7.9l-4-.8c21.7,5,44.6,5.6,67.3,6.1l61.4,1.3C695.9,888.1,713.6,888.5,731.1,886.5Z"/><path class="cls-2" d="M1104.1,864.1a175.1,175.1,0,0,0-92-2.9c-9.2-7.8-19.8-15.2-33.1-17.6-10.9-2-23.8.6-30.6,7a6.9,6.9,0,0,0-7.1-6,7,7,0,0,0-6.3,3.5,27.2,27.2,0,0,0-8.6-1.5c-7.6,0-15.1,3.4-18.6,8.6-4.5-3.3-11.5-5.4-16.9-3.1l-1.1.6c-2.9-2.6-6.1-4.8-9.4-5.3s-5.7,1.1-8.9,2-.7.6-2.7,0-3.2-1.5-4.8-2.1c-6.1-2.3-12.8.1-14.1,7s2.7,11.3,7.1,14.5a20.8,20.8,0,0,0,14.2,4.1c3.2-.2,5.5-1.4,8.5-2.5l1.2-.6,1.8.3c1.7.2,3.6,1.1,5.3,1.5a58.3,58.3,0,0,0,20.4.9c7.1-.9,13.8-3,21-2.2a6.4,6.4,0,0,0,4-.8c72.7,9.4,147.1,14.7,217.3-1C1140.3,857.7,1117.6,855.6,1104.1,864.1Z"/><path class="cls-2" d="M524.8,1030.9c-6.7-1-13.7.5-19.9,2.8-3.9,1.4-7.9,3.3-12.3,3.4-7.3.3-13.4-4.3-20.7-5.3-14.4-2-26.5,10.6-41.1,9.8-8.8-.5-17.7-5.8-25.6-2.8-4.7,1.8-7.7,6.3-12.9,6.7-3,.2-5.9-1.1-8.4-2.3-10-4.7-20.3-9.3-31.8-11.2s-24.3-.8-33.3,5c-2.7,1.8-5.1,4-8.5,5.1s-7.1.8-10.8.7c-15.4-.4-30.8,1.7-46.1.6-9.6-.8-19.1-2.9-28.8-2.8s-20.2,2.9-24.9,9.4a148.2,148.2,0,0,0-37.7-2.8c-4,4.3.1,10.6,6.1,13.2s13.3,2.8,20,3.9-1.5,6.4,15.9,8.9,24.4,2.4,34.7-1c5.7-1.8,11-4.5,17.1-5.5,19.1-3.3,37.1,10.1,56.6,9.3,11.9-.5,23.4-6.3,34.9-4.2,4.2.7,7.9,2.4,12.1,2.8,7.7.8,14.7-2.9,22.1-4.6,12.7-3,26.3-.3,39.5.7,31.1,2.5,62-4.3,92-11,12.4-2.8,27.6-8.8,25.8-18.5C537.8,1036,531.5,1032,524.8,1030.9Z"/><path class="cls-2" d="M214.1,1020.5c18-2,35.9-6.6,54-5.5,13.8.8,28.6,4.7,40.5-.5,4.5-2,8-5,11.4-8s4.6-4.4,4.2-7-3.9-4.8-7.1-6.3c-5.4-2.4-11.1-4.8-17.3-5.2s-13.1,1.5-16,5.7c-13.6-7-33.8-4.7-44.2,5-15.4-8.1-36.1-9.9-53.4-4.5-10.4-8.6-26.4-12.9-41.5-11.3s-28.9,9.3-35.7,19.8c-10.3-6.7-26.4-7.7-37.9-2.2a23.5,23.5,0,0,0-15.9-.8c-10.3-6.3-24.5-8.9-37.5-6.7-8.9,1.5-18.5,7.8-14.9,14.2a130.5,130.5,0,0,1,33.7,7.9l-4-.8c21.7,5,44.6,5.6,67.3,6.1l61.4,1.3C178.9,1022.1,196.6,1022.5,214.1,1020.5Z"/><path class="cls-2" d="M587.1,998.1a175.1,175.1,0,0,0-92-2.9c-9.2-7.8-19.8-15.2-33.1-17.6s-29.5,1.9-34.1,11.7c-3.5-5.2-10.9-8.7-18.5-8.7s-15.1,3.4-18.6,8.6c-4.5-3.3-11.5-5.4-16.9-3.1s-5.2,10.2.9,10.9l-.9.6c86,12.4,175.8,23.7,259.8,4.9C623.3,991.7,600.6,989.6,587.1,998.1Z"/><path class="cls-2" d="M325.1,965.2c16.2,3.1,33.2,2.8,49.9,2.5,29.2-.7,58.6-1.3,86.7-7.2,4.1-.9,8.2-1.8,12.3-2.5,18.2,4.7,37,4.3,55.8,3.8a10.7,10.7,0,0,0,2.7.6,93.2,93.2,0,0,0,14-.9h.1a175.3,175.3,0,0,1,36.8,3.6c11.9,2.5,24.4,4.4,35.3-2.3,5.3-3.2,4.4-9.6,0-13-21.5-16.4-47.3-6.7-71.7-3.4-12.7-9.6-32.9-13.5-49.8-8.7-2.1-7.5-13.7-11.4-23.7-10.6s-18.9,4.8-28.1,7.9a21.5,21.5,0,0,1-6.7,1.3c-3.9-.2-6.9-2.2-10.1-4a7.8,7.8,0,0,0,.3-2.2c0-6.8-5.5-11.7-12-12a43.8,43.8,0,0,0-19.3,3.4c-5.4-4.8-11.9-7.7-19.8-5.8a19.4,19.4,0,0,0-12.4,8.8l-.3.5a26.5,26.5,0,0,0-15.9,2.1,28.8,28.8,0,0,0-3.8,2.2,31.6,31.6,0,0,0-6.8,1.4,31.5,31.5,0,0,0-21-.3,17.7,17.7,0,0,0-3.1,1.5,32.3,32.3,0,0,0-14.5-1.3,14,14,0,0,0-2.8-.6c-9.4-1.6-19.2-.9-28.8-.1-5.4,9.4.3,21.6,12.1,26.3l-.3-.6c2.1,1.2,5.5,1.7,8.2,1.9C301.1,958.4,312.8,962.8,325.1,965.2Z"/><path class="cls-2" d="M310.4,538c11.9-.5,23.4-6.3,34.9-4.2,4.2.7,7.9,2.4,12.1,2.8,7.7.8,14.7-2.9,22.1-4.6,12.7-3,26.3-.3,39.5.7,31.1,2.5,62-4.3,92-11,12.4-2.8,27.6-8.8,25.8-18.5-1-5.2-7.3-9.2-14-10.3s-13.7.5-19.9,2.8c-3.9,1.4-7.9,3.3-12.3,3.4-7.3.3-13.4-4.3-20.7-5.3-14.4-2-26.5,10.6-41.1,9.8-8.8-.5-17.7-5.8-25.6-2.8-4.7,1.8-7.7,6.3-12.9,6.7-3,.2-5.9-1.1-8.4-2.3-10-4.7-20.3-9.3-31.8-11.2s-24.3-.8-33.3,5c-2.7,1.8-5.1,4-8.5,5.1s-7.1.8-10.8.7c-15.4-.4-30.8,1.7-46.1.6-9.6-.8-19.1-2.9-28.8-2.8s-20.2,2.9-24.9,9.4a148.2,148.2,0,0,0-37.7-2.8c-4,4.3.1,10.6,6.1,13.2s13.3,2.8,20,3.9-1.5,6.4,15.9,8.9,24.4,2.4,34.7-1c5.7-1.8,11-4.5,17.1-5.5C272.9,525.4,290.9,538.8,310.4,538Z"/><path class="cls-2" d="M30.5,476.3c21.7,5,44.6,5.6,67.3,6.1l61.4,1.3c17.7.4,35.4.8,52.9-1.2s35.9-6.6,54-5.5c13.8.8,28.6,4.7,40.5-.5,4.5-2,8-5,11.4-8s4.6-4.4,4.2-7-3.9-4.8-7.1-6.3c-5.4-2.4-11.1-4.8-17.3-5.2s-13.1,1.5-16,5.7c-13.6-7-33.8-4.7-44.2,5-15.4-8.1-36.1-9.9-53.4-4.5-10.4-8.6-26.4-12.9-41.5-11.3s-28.9,9.3-35.7,19.8c-10.3-6.7-26.4-7.7-37.9-2.2a23.5,23.5,0,0,0-15.9-.8c-10.3-6.3-24.5-8.9-37.5-6.7C6.8,456.5-2.8,462.8.8,469.2a130.5,130.5,0,0,1,33.7,7.9Z"/><path class="cls-2" d="M278.5,418.2l-.3-.6c2.1,1.2,5.5,1.7,8.2,1.9,12.7.9,24.4,5.3,36.7,7.7,16.2,3.1,33.2,2.8,49.9,2.5,29.2-.7,58.6-1.3,86.7-7.2,7.7-1.6,15.3-3.6,23.3-3.6,10.5,0,20.4,3.6,30.8,4.7,13.5,1.3,27.6-1.7,38.2-8.3-11-14.5-36.4-21.4-56.8-15.6-2-7.1-12.5-11-22.1-10.7a10.2,10.2,0,0,0-1.1-2.7l3.9-3.8c2.8-.9,5.9-1.8,9.1-2.5l4.3.2c5,0,9.2-.3,13.8,1.7l1.2.5a8.5,8.5,0,0,0,7.5,1.7,22.1,22.1,0,0,0,12.3-2.7,29,29,0,0,0,4.1-2.7l2.7-1a11.7,11.7,0,0,0,4,2.1l1.4.2a12.7,12.7,0,0,0,3.4.5,11.8,11.8,0,0,0,6.1-1.9,6.5,6.5,0,0,0,3.4-.1c3.4,5.4,13.9,4,13.9-4s-6.6-12.6-13.1-12.6a16.4,16.4,0,0,0-7.5-8.4,20.6,20.6,0,0,0-17-1.1,23.5,23.5,0,0,0-4.5,2.2,20.2,20.2,0,0,0-9.1,2.6,6.5,6.5,0,0,0-2,1.7,32,32,0,0,0-8.2-2.2c-5.2-.7-10.5,0-15.8-.6s-9.9-3.5-15.9-2.5a15.5,15.5,0,0,0-10.5,6.5,5.2,5.2,0,0,0-1-1.1,34.4,34.4,0,0,0-28.7-7.9,26.3,26.3,0,0,0-17.7-11.7,9.4,9.4,0,0,0-4.8.4,36.8,36.8,0,0,0-12.7,2.1,66,66,0,0,0-13-2.3,115.2,115.2,0,0,0-31.6.9,6.7,6.7,0,0,0-2.8.3c-12.3-4.7-26.7-2.3-37.2,5.6a36.3,36.3,0,0,0-17.3,9.4c-6.8,6.7,3.5,17.2,10.4,10.8a5.8,5.8,0,0,0,2.2.8c7,1,14.1,1,20.9-1.2l1.1-.4a55.4,55.4,0,0,0,51.9-8.2,6,6,0,0,0,3.5,4.7,19.2,19.2,0,0,0,14.7.2,7.9,7.9,0,0,0-2,6.3c.5,3.9,3.6,6.2,7.3,6.5s7.8.5,11.7.6c-5.7,3.1-10.4,7.7-12.2,14.1a44.3,44.3,0,0,0-5.1.6c-9.1,1.6-17.8,4.6-26.9,6.5a13.4,13.4,0,0,1-6.6.3c-2.3-.6-3.9-2.2-5.7-3.3-6.1-3.9-15.4-3.7-22.5-1s-12.7,7.3-18,11.8c-3.6-6.9-12.8-11.3-22.2-12.9s-19.2-.9-28.8-.1C261,401.3,266.7,413.5,278.5,418.2Z"/><path class="cls-2" d="M1281.8,125.9c-6.7-1-13.7.5-19.9,2.8-3.6,1.3-7.3,3-11.2,3.3a13.1,13.1,0,0,0-8-5.7,8.2,8.2,0,0,0-7.5,2.1,32.3,32.3,0,0,0-6.3-1.6c-14.4-2-26.5,10.6-41.1,9.8-8.8-.5-17.7-5.8-25.6-2.8-4.7,1.8-7.7,6.3-12.9,6.7-3,.2-5.9-1.1-8.4-2.3-10-4.7-20.3-9.3-31.8-11.2s-24.3-.8-33.3,5c-2.7,1.8-5.1,4-8.5,5.1s-7.1.8-10.8.7c-15.4-.4-30.8,1.7-46.1.6-9.6-.8-19.1-2.9-28.8-2.8s-20.2,2.9-24.9,9.4a148.2,148.2,0,0,0-37.7-2.8c-4,4.3.1,10.6,6.1,13.2s13.3,2.8,20,3.9-1.5,6.4,15.9,8.9,24.4,2.4,34.7-1c5.7-1.8,11-4.5,17.1-5.5,19.1-3.3,37.1,10.1,56.6,9.3,11.9-.5,23.4-6.3,34.9-4.2,4.2.7,7.9,2.4,12.1,2.8,7.7.8,14.7-2.9,22.1-4.6,12.7-3,26.3-.3,39.5.7,31.1,2.5,62-4.3,92-11,12.4-2.8,27.6-8.8,25.8-18.5C1294.8,131,1288.5,127,1281.8,125.9Z"/><path class="cls-2" d="M793.5,110.1l-4-.8c21.7,5,44.6,5.6,67.3,6.1l61.4,1.3c17.7.4,35.4.8,52.9-1.2s35.9-6.6,54-5.5c12,.7,24.8,3.8,35.9,1.1h1.1c3.8-.2,7.7-.3,11.5-.2a40.5,40.5,0,0,0,13,.7l1.3-.3,2.6.6a24.8,24.8,0,0,0,9-.1,12.8,12.8,0,0,0,3.2-.9l.6-.2c5.8,4.3,15.6-2.5,11-9.7-3.1-4.8-7.7-6.1-13.1-5.2-2.1.4-4.1,1.5-6.2,1.5s-5.6-1.2-8.1-2-3.9-1.1-5.8-1.5c-.8-2.5-4-4.2-7-5.6-5.4-2.4-11.1-4.8-17.3-5.2s-13.1,1.5-16,5.7c-13.6-7-33.8-4.7-44.2,5-15.4-8.1-36.1-9.9-53.4-4.5-10.4-8.6-26.4-12.9-41.5-11.3S872.8,87.2,866,97.7c-10.3-6.7-26.4-7.7-37.9-2.2a23.5,23.5,0,0,0-15.9-.8c-10.3-6.3-24.5-8.9-37.5-6.7-8.9,1.5-18.5,7.8-14.9,14.2A130.5,130.5,0,0,1,793.5,110.1Z"/><path class="cls-2" d="M852,832.7c13.1,1.5,26.7,1.2,40,1,29.2-.7,58.6-1.3,86.7-7.2,7.7-1.6,15.3-3.6,23.3-3.6,10.5,0,20.4,3.6,30.8,4.7,13.5,1.3,27.6-1.7,38.2-8.3-7.3-9.6-20.8-15.8-35-17.3a16.4,16.4,0,0,0-2.8-3.1c-2.5-8.2-12.5-13.6-20.9-8.3a13.9,13.9,0,0,0-5.2,5.6,31.9,31.9,0,0,0-16.6-3.1,67.7,67.7,0,0,0-14.2,3c-3.1-5.8-11.9-7.7-18-6.6a13.8,13.8,0,0,0-10.1,7.2,6.8,6.8,0,0,0-1.7,2.1l-3.1-1.7c-7.8-4-18.1-4-27.3-2.5s-16,4-24,5.9a12,12,0,0,0-9.4-6.8,6.7,6.7,0,0,0-6.4,4c-6.1-3.5-15-3.2-21.9-.6s-12.7,7.3-18,11.8c-3.6-6.9-12.8-11.3-22.2-12.9s-19.2-.9-28.8-.1a16,16,0,0,0-.2,15.3c-8.9-.3-17.9-.3-26.8-.5-8.6-12.5-26.4-17.4-40.1-9.5a11.5,11.5,0,0,0-5.8,10.8H712c-15.4.6-15.5,24.6,0,24,1.8,0,1.3-.3,3,.6-.8-.4.2.3.6.6a15.8,15.8,0,0,0,1.1,2.3c2.3,5,8.2,6.6,13.3,5.4a14.9,14.9,0,0,0,4.4.9,246.8,246.8,0,0,0,25.8-.5,12.6,12.6,0,0,0,7.3-2.9,11,11,0,0,0,3,2.6c8.4,4.5,19.3-.2,27.5-2.9,3.3-1,6.6-2.2,9.8-3.4l1.7.6a27.9,27.9,0,0,0,12.5,1.3c6.9-.7,13.5-3.7,20.3-2.8C846.2,838.3,849.8,835.9,852,832.7Z"/><path class="cls-2" d="M493.4,893.6c-4.4-4.4-12.3-3.9-16.5.4s-4.4,12.1,0,17l4.7,5.3c4.2,4.7,10.9,4.1,15.7.9l.6-.2h.3l.4.5a11.8,11.8,0,0,0,11.2,3.3c2,3.5,5.9,5.3,9.9,3.3,9.8,4.2,20,7,31.1,6.2a345.9,345.9,0,0,0,35-4.7,114.7,114.7,0,0,0,26.3-3c7.2-1.7,7.1-12.6,0-14.4a76.4,76.4,0,0,0-26.9-2,6.8,6.8,0,0,0-4.3-3.3c-5.6-1.1-11.3-1.2-16.7.8-2.6.9-4.2,1.9-7,1.2l-3-.9a10.3,10.3,0,0,0-5.2-1.9l-1.1-.4a44.1,44.1,0,0,0-3.5-4.5,19.3,19.3,0,0,0-12.5-6.6c-7.4-.7-15.6,2-22.8,4.8A23.7,23.7,0,0,0,493.4,893.6Z"/><path class="cls-2" d="M1470.8,575.9c-6.7-1-13.7.5-19.9,2.8-3.9,1.4-7.9,3.3-12.3,3.4-7.3.3-13.4-4.3-20.7-5.3-14.4-2-26.5,10.6-41.1,9.8-8.8-.5-17.7-5.8-25.6-2.8a36.6,36.6,0,0,0-6.8,4.2,16.5,16.5,0,0,0-13.2-14.7c-4.5-.8-11.1.7-16,3.9a7.8,7.8,0,0,0-2.2.3,6.2,6.2,0,0,0-3.9,2.1,80.1,80.1,0,0,0-11-2.6c-11.4-2-24.3-.8-33.3,5-2.7,1.8-5.1,4-8.5,5.1l-1.5.4a.3.3,0,0,0-.1-.2,20.3,20.3,0,0,0-9.9-6c-3.7-2-7.9-2.4-11.4.2l-1.2.5a8.1,8.1,0,0,0-5.4,6.2l-14.1.5a8.2,8.2,0,0,0,1-5.5,6.9,6.9,0,0,0-7.1-6.1,7.4,7.4,0,0,0-4.4,1.3l-.6.5a8.5,8.5,0,0,0-1.7,2.5,6.7,6.7,0,0,0-3.8-2.9,6.9,6.9,0,0,0-4.5-1.4c-5.7,0-8.1,5.2-7,9.5l-2.3-.2a21.5,21.5,0,0,0-27.7.3,8.6,8.6,0,0,0-2,2.8,18.9,18.9,0,0,0-6.9,5.5l-2.3-.4a6.9,6.9,0,0,0-7.1-6,6.4,6.4,0,0,0-4.5,1.5,20.6,20.6,0,0,0-3-2.9c-6.2-4.8-14.6-6.1-21.5-2a6.8,6.8,0,0,0-3.2,8.4h0l-2.8-.4c-6.4-.9-12.9,1.6-14.8,8.4s1.9,13.9,8.4,14.8a311.8,311.8,0,0,0,61.8,2.6c12.7,1.5,19.2,1,28-1.9,5.7-1.8,11-4.5,17.1-5.5,19.1-3.3,37.1,10.1,56.6,9.3,11.9-.5,23.4-6.3,34.9-4.2,4.2.7,7.9,2.4,12.1,2.8,7.7.8,14.7-2.9,22.1-4.6,12.7-3,26.3-.3,39.5.7,31.1,2.5,62-4.3,92-11,12.4-2.8,27.6-8.8,25.8-18.5C1483.8,581,1477.5,577,1470.8,575.9Z"/><path class="cls-2" d="M1441.1,540.2c-9.2-7.8-19.8-15.2-33.1-17.6s-29.5,1.9-34.1,11.7c-3.5-5.2-10.9-8.7-18.5-8.7s-15.1,3.4-18.6,8.6c-4.5-3.3-11.5-5.4-16.9-3.1s-5.2,10.2.9,10.9l-.9.6c86,12.4,175.8,23.7,259.8,4.9-10.4-10.8-33.1-12.9-46.6-4.4A175.1,175.1,0,0,0,1441.1,540.2Z"/><path class="cls-2" d="M1419.5,472.1c-10,.8-18.9,4.8-28.1,7.9a21.5,21.5,0,0,1-6.7,1.3c-4.8-.2-8.3-3.2-12.3-5.2-7.8-4-18.1-4-27.3-2.5s-17.8,4.6-26.9,6.5a13.4,13.4,0,0,1-6.6.3c-2.3-.6-3.9-2.2-5.7-3.3-6.1-3.9-15.4-3.7-22.5-1s-12.7,7.3-18,11.8c-3.6-6.9-12.8-11.3-22.2-12.9s-19.2-.9-28.8-.1c-3.6,6.3-2.2,14,2.7,19.7-7.6.1-15.2.6-22.3,3.4h-1.5c-4,.5-7.5,3.1-7.5,7.5a8.5,8.5,0,0,0,3.1,6.2,10.8,10.8,0,0,0,14.3,2.7,64.5,64.5,0,0,0,31.7-3.4,7.8,7.8,0,0,0,4.5-3.6c8.4-2.2,17.9,2.2,25.5,5.4,2.7,1.2,5.8-.2,7.7-2.4,15.8,2.8,32.2,2.5,48.4,2.2,29.2-.7,58.6-1.3,86.7-7.2,7.7-1.6,15.3-3.6,23.3-3.6,10.5,0,20.4,3.6,30.8,4.7,13.5,1.3,27.6-1.7,38.2-8.3-11-14.5-36.4-21.4-56.8-15.6C1441.1,475.2,1429.5,471.3,1419.5,472.1Z"/><path class="cls-2" d="M1105.6,566.7h1.6c17.7.4,35.4.8,52.9-1.2s35.9-6.6,54-5.5c13.8.8,28.6,4.7,40.5-.5,4.5-2,8-5,11.4-8s4.6-4.4,4.2-7-3.9-4.8-7.1-6.3c-5.4-2.4-11.1-4.8-17.3-5.2s-13.1,1.5-16,5.7c-13.6-7-33.8-4.7-44.2,5-12.9-6.8-29.5-9.1-44.7-6.6a7,7,0,0,0-6.9-5,6.8,6.8,0,0,0-6.4,3.8c-10.2-6.4-23.9-9.4-36.9-8-15.1,1.7-28.9,9.3-35.7,19.8a39.1,39.1,0,0,0-21.3-5.7,7.3,7.3,0,0,0-12.1-3.2,6.8,6.8,0,0,0-5.2-2.1,7.7,7.7,0,0,0-3.8,1,7.4,7.4,0,0,0-2.2-1l-4.6-1.1a7.9,7.9,0,0,0-5.8.7,7.7,7.7,0,0,0-3.4,4.5,6.8,6.8,0,0,0-.2,1.4,56.7,56.7,0,0,0-32.7-4.2l-1.1.2c-1.8-2.5-4.9-3.3-8.1-2.8-6.1.9-10.8,5.7-13,11.4s-3.2,14.3.2,19.5,11.8,5.6,17.7,5a40.1,40.1,0,0,0,10.5-2.3,11.6,11.6,0,0,0,4.2.5c24.4-.8,48.3-.9,72.5,2.8a113.9,113.9,0,0,0,37.3,0A160.7,160.7,0,0,0,1105.6,566.7Z"/><path class="cls-2" d="M1881.5,349.9c6.7-1,13.7.5,19.9,2.8,3.9,1.4,7.8,3.3,12.2,3.4,7.4.3,13.5-4.3,20.8-5.3,14.4-2,26.5,10.6,41.1,9.8,8.8-.5,17.7-5.8,25.6-2.8a32.9,32.9,0,0,1,6.7,4.2,16.6,16.6,0,0,1,13.3-14.7c4.5-.8,11,.7,16,3.9a8.3,8.3,0,0,1,2.2.3,6.4,6.4,0,0,1,3.9,2.1,80.1,80.1,0,0,1,11-2.6c11.4-2,24.3-.8,33.2,5,2.8,1.8,5.2,4,8.5,5.1l1.6.4a.3.3,0,0,1,.1-.2,20.3,20.3,0,0,1,9.9-6c3.7-2,7.8-2.4,11.4.2l1.1.5a8.4,8.4,0,0,1,5.5,6.2l14,.5a8.7,8.7,0,0,1-.9-5.5,6.9,6.9,0,0,1,7.1-6.1,7.4,7.4,0,0,1,4.4,1.3c.2.2.4.3.5.5a7,7,0,0,1,1.7,2.5,7.2,7.2,0,0,1,3.9-2.9,6.9,6.9,0,0,1,4.5-1.4c5.7,0,8,5.2,7,9.5l2.3-.2a21.5,21.5,0,0,1,27.7.3,8.6,8.6,0,0,1,2,2.8,17.8,17.8,0,0,1,6.8,5.5l2.4-.4a6.9,6.9,0,0,1,7.1-6,6.4,6.4,0,0,1,4.5,1.5,26.5,26.5,0,0,1,2.9-2.9c6.2-4.8,14.7-6.1,21.6-2a6.8,6.8,0,0,1,3.2,8.4h0l2.8-.4c6.4-.9,12.9,1.6,14.8,8.4s-2,13.9-8.4,14.8a311.8,311.8,0,0,1-61.8,2.6c-12.7,1.5-19.2,1-28-1.9-5.7-1.8-11-4.5-17.1-5.5-19.1-3.3-37.1,10.1-56.7,9.3-11.8-.5-23.3-6.3-34.9-4.2-4.1.7-7.9,2.4-12.1,2.8-7.6.8-14.7-2.9-22.1-4.6-12.6-3-26.2-.3-39.4.7-31.1,2.5-62-4.3-92-11-12.4-2.8-27.6-8.8-25.8-18.5C1868.5,355,1874.7,351,1881.5,349.9Z"/><path class="cls-2" d="M1911.2,314.2c9.2-7.8,19.8-15.2,33.1-17.6s29.5,1.9,34,11.7c3.5-5.2,11-8.7,18.6-8.7s15.1,3.4,18.6,8.6c4.4-3.3,11.5-5.4,16.9-3.1s5.2,10.2-1,10.9l1,.6c-86,12.4-175.9,23.7-259.8,4.9,10.4-10.8,33.1-12.9,46.6-4.4A175.1,175.1,0,0,1,1911.2,314.2Z"/><path class="cls-2" d="M1932.8,246.1c9.9.8,18.8,4.8,28.1,7.9a21.5,21.5,0,0,0,6.7,1.3c4.8-.2,8.3-3.2,12.3-5.2,7.8-4,18.1-4,27.2-2.5s17.9,4.6,26.9,6.5a13.9,13.9,0,0,0,6.7.3c2.3-.6,3.8-2.2,5.7-3.3,6.1-3.9,15.3-3.7,22.5-1s12.7,7.3,18,11.8c3.6-6.9,12.7-11.3,22.2-12.9s19.2-.9,28.8-.1c3.6,6.3,2.2,14-2.8,19.7,7.7.1,15.3.6,22.3,3.4h1.6c4,.5,7.5,3.1,7.5,7.5a8.3,8.3,0,0,1-3.2,6.2,10.7,10.7,0,0,1-14.3,2.7,64.8,64.8,0,0,1-31.7-3.4,7.6,7.6,0,0,1-4.4-3.6c-8.4-2.2-18,2.2-25.5,5.4-2.8,1.2-5.8-.2-7.7-2.4-15.8,2.8-32.2,2.5-48.5,2.2-29.1-.7-58.6-1.3-86.7-7.2-7.6-1.6-15.3-3.6-23.2-3.6-10.5,0-20.4,3.6-30.8,4.7-13.5,1.3-27.7-1.7-38.2-8.3,11-14.5,36.3-21.4,56.8-15.6C1911.2,249.2,1922.8,245.3,1932.8,246.1Z"/><path class="cls-2" d="M2246.6,340.7h-1.5c-17.7.4-35.5.8-52.9-1.2s-35.9-6.6-54.1-5.5c-13.7.8-28.5,4.7-40.5-.5-4.5-2-7.9-5-11.3-8s-4.7-4.4-4.3-7,3.9-4.8,7.2-6.3c5.3-2.4,11-4.8,17.2-5.2s13.1,1.5,16.1,5.7c13.6-7,33.8-4.7,44.2,5,12.8-6.8,29.5-9.1,44.7-6.6a6.9,6.9,0,0,1,6.9-5,6.8,6.8,0,0,1,6.4,3.8c10.2-6.4,23.9-9.4,36.9-8,15.1,1.7,28.9,9.3,35.7,19.8,5.8-3.8,13.5-5.8,21.2-5.7a7.3,7.3,0,0,1,12.2-3.2,6.7,6.7,0,0,1,5.1-2.1,7.8,7.8,0,0,1,3.9,1,6.4,6.4,0,0,1,2.2-1l4.6-1.1a7.5,7.5,0,0,1,9.2,5.2,6.8,6.8,0,0,1,.2,1.4,56.5,56.5,0,0,1,32.6-4.2l1.2.2c1.8-2.5,4.9-3.3,8-2.8,6.2.9,10.9,5.7,13,11.4s3.2,14.3-.1,19.5-11.8,5.6-17.8,5a40.3,40.3,0,0,1-10.4-2.3,11.8,11.8,0,0,1-4.3.5c-24.3-.8-48.2-.9-72.4,2.8-12.7,1.9-24.6,2.2-37.3,0A166,166,0,0,1,2246.6,340.7Z"/><path class="cls-2" d="M944.5,45.9c10.9,7.5,20.6,17.9,35.1,16.8a25.6,25.6,0,0,0,14.5-5.8,13.6,13.6,0,0,0,8.3-2.5c10,.3,19.7-.2,29.5-3.9,5.5-2.1,10.8-4.7,16.5-6.2s10.4-.3,16.2.7c11.4,2,22,.4,31.6-4.9,11.8,1,23.9.8,35.8.6,29.2-.7,58.6-1.3,86.7-7.2,7.7-1.6,15.3-3.6,23.3-3.6,10.5,0,20.4,3.6,30.8,4.7a65.2,65.2,0,0,0,29.5-4c.9,4.3,5.3,7.9,9.8,8.8h.6a14.9,14.9,0,0,0,7.2,6.6c2.8,1.1,7.3-.7,8.5-3.5a13.4,13.4,0,0,0,.7-1.8,7.4,7.4,0,0,0,5.4-1.6c8.9,9.4,20.2,16,33.4,9.8,4.5-2.1,4.5-7.8,1.9-11.2l2.7-.3a8.8,8.8,0,0,0,6.1-1.2l1.1-.3.7.4.4.3h0a15.2,15.2,0,0,0,3.8,1.1c5.7.7,7.9-4.7,6.9-9.2V28a14.3,14.3,0,0,0-3.5-8.4c-2.3-2.9-7.4-2.7-10.1-.4l-1.4-.2a16.2,16.2,0,0,0-6-3.4c-6.1-1.8-12,.2-17.4,3.1a27.1,27.1,0,0,0-21.4,3.3,74.9,74.9,0,0,0-10.6-1.3c-4.6-1.9-10.4-1.9-14.5.9-12.4-11.2-34.3-16-52.4-10.9-2.1-7.5-13.7-11.4-23.7-10.6s-18.9,4.8-28.1,7.9a21.5,21.5,0,0,1-6.7,1.3c-4.8-.2-8.3-3.2-12.3-5.2-7.8-4-18.1-4-27.3-2.5s-17.8,4.6-26.9,6.5a13.4,13.4,0,0,1-6.6.3c-2.3-.6-3.9-2.2-5.7-3.3-6.1-3.9-15.4-3.7-22.5-1s-12.7,7.3-18,11.8C1072.8,9,1063.6,4.6,1054.2,3s-19.2-.9-28.8-.1c-4.2,7.4-1.6,16.5,5.4,22.3l-5.3,2.1a44.2,44.2,0,0,1-15.2,3.4c-3.2.1-6.4-.1-9.7-.3a12,12,0,0,0-10.2-5.7l-31.1.8a56.2,56.2,0,0,1-5.5-1.5c-5.6-1.9-12,1.6-14.2,6.9S939.5,42.4,944.5,45.9Z"/></g></g></g></svg>