<svg xmlns="http://www.w3.org/2000/svg" viewBox="0 0 2412.71 1076"><defs><style>.cls-1{opacity:0.2;}.cls-2{fill:#d8d1c1;}</style></defs><title>hero_cloud</title><g id="レイヤー_2" data-name="レイヤー 2"><g id="レイヤー_4" data-name="レイヤー 4"><g class="cls-1"><path class="cls-2" d="M977.05,518.27a16.25,16.25,0,0,0,14,2.93,8.46,8.46,0,0,0,2.45,1.58c6.76,2.85,16,4.16,22.21.21h1.5c3.07,0,6.33.2,9.33-.6a10.26,10.26,0,0,0,4.71-2.91l.7.26a30.88,30.88,0,0,0,24.74-2.7,15.69,15.69,0,0,0,4.44-3.15c5.77-5.81-2.15-17.12-9.09-11.77a24.22,24.22,0,0,1-2.44,1.64c-2.29.54-6.78-1.42-8.47-1.74-4.92-.93-10.13-1.09-14.54,1.65-.32.19-.64.43-1,.67a13.69,13.69,0,0,0-6.49-2.47,21.18,21.18,0,0,0-14.49-8.09c-4.76-.53-10.6-.3-14,3.57a9.43,9.43,0,0,0-2.4,5.45,24.09,24.09,0,0,0-8.57-4c-4.22-1.05-10.13,2.18-9.49,7.23a18.78,18.78,0,0,0,1,4.3C970.92,513.93,972.88,517.66,977.05,518.27Z"/><path class="cls-2" d="M555.79,429.86l-.16-.08c-3.73-1.65-8-1.06-10.26,2.69-1.9,3.17-1,8.62,2.69,10.26,1.41.62,2.1.88,2.53,2.37l0,0a11.9,11.9,0,0,0,.47,1.2,24.09,24.09,0,0,0-6.74,3.05c-3.17,2.1-5.09,2.34-8.85,2.67q-2.1.18-4.2.42a174.85,174.85,0,0,0-29.52,2.91,20.88,20.88,0,0,0-9.77-5.64,7,7,0,0,0-6.58,1.47c-7.38-5.3-15.71-9.76-25.44-11.54-13.26-2.42-29.47,1.87-34.06,11.7-3.49-5.19-10.92-8.68-18.54-8.7s-15.08,3.43-18.61,8.6c-4.43-3.36-11.49-5.44-16.92-3.1s-5.17,10.16,1,10.89l-.92.56c40.64,5.88,82.15,11.5,123.5,13.8a7.27,7.27,0,0,0,6.4,1.18c.73-.26,1.47-.51,2.2-.75,43.21,1.91,86.17,0,127.69-9.31-7.76-8-22.29-11.25-34.8-8.88a5.42,5.42,0,0,0-1.54-2c-6.67-5.16-15.46-6.48-22.71-3a25.18,25.18,0,0,0-8.22-4.22,6.77,6.77,0,0,0,.89-3.41,9.22,9.22,0,0,0,5.19,2.27c6.66.72,13.32,1.52,20,2.16a12.11,12.11,0,0,0,7.39-1.18,9.51,9.51,0,0,0,3.16-2.92c.26-.36.53-.72.79-1.09l0-.06c7.51-.75,9.21-13.12,1.09-14.69L595.33,426A8.68,8.68,0,0,0,587,422.6c-8.77,1.58-18.59,2.22-27,5.15A17.12,17.12,0,0,0,555.79,429.86Z"/><path class="cls-2" d="M524,845.17a12.41,12.41,0,0,0,11.33.29c5.67-2.56,10.62-5.28,16.46-6.9a7.53,7.53,0,0,0,1.28.11l25.62.19c8.36.06,10.31-12.7,2-14.73a69.57,69.57,0,0,0-27-1.26,62.14,62.14,0,0,0-12.79,3.3c-2.15.81-4.28,1.72-6.35,2.72-1.11.54-2.9,2-4.37,2.57a28.81,28.81,0,0,0-3.33-1.57,17.36,17.36,0,0,0-13-15.52c-9.16-2.27-20.36,1-27.23,7.94a25.06,25.06,0,0,0-22.38-.07,4,4,0,0,0-.56.35,29.69,29.69,0,0,0-20.9,5.37l-.3.23a40.51,40.51,0,0,0-6.74,1.06c-9.36,2.32-5.39,16.78,4,14.47a23.14,23.14,0,0,1,3.88-.61,17.35,17.35,0,0,0,10.8,5.15,12.76,12.76,0,0,0,8.92,4.15,74.3,74.3,0,0,0,20-1.72,11.11,11.11,0,0,0,6.85-5.08L513,844.47c1.19-.06,2.36-.19,3.52-.28.32,0,.65,0,1-.07A11.8,11.8,0,0,1,524,845.17Z"/><path class="cls-2" d="M1384.91,83.75a13.23,13.23,0,0,1-5.25-4.64c-3.55-5.35-11.8-4.58-13.71,1.79-2.19,7.29-18.18,3.06-23.31,3.26-4.77.19-9.59,1.38-14.38,1.07s-7.42-3.8-11.51-5.65c-4.74-2.14-9.92-1.52-15-1.11-5.63.46-11.25,1.15-16.84,2a232.67,232.67,0,0,0-32.76,7.41,8.12,8.12,0,0,0-1.86.83c-8.78-7.17-18.92-13.8-31.33-16.07-13.26-2.42-29.47,1.87-34.06,11.7-3.49-5.19-10.92-8.68-18.54-8.7s-15.08,3.43-18.61,8.6c-4.43-3.36-11.49-5.44-16.92-3.1s-5.17,10.16,1,10.89l-.92.56c56.36,8.16,114.4,15.77,171.36,14.78.67,5.73,5.86,11.19,11.93,10.77,1.42-.1,2.84-.18,4.26-.26a6.41,6.41,0,0,0,6.73,1.48q2.19-.89,4.41-1.74,9.5,0,19,.9c11.33,1.09,23.22,5.38,34.57,3,4.37-.93,8.37-3.71,12.26-5l.4-.14c.76.24,1.51.75,2.25,1a16.66,16.66,0,0,0,10.51-.57c4.53-1.73,8-5.49,12.2-8,1.42-.83,2.84-1.57,4.28-2.23a11.1,11.1,0,0,0,10.35-.69c5.77-3.27,9.35-10.71,6.78-17.15-2.43-6.08-7.9-10.17-14.76-8.38a75.84,75.84,0,0,0-16.62,6.52,55.64,55.64,0,0,0-5.16,3.16,6.21,6.21,0,0,0-3.57-4.79C1396.55,82.51,1390.67,81.78,1384.91,83.75Z"/><path class="cls-2" d="M1340.26,156.63c-4.14-7.1-13.73-7.78-20.77-5.4a24.15,24.15,0,0,0-13,9.84,24.56,24.56,0,0,0-6.34-.87,7.54,7.54,0,0,0-3.69.9,6.79,6.79,0,0,0-6-3.16,6.89,6.89,0,0,0-7,5.72,25.82,25.82,0,0,0-9.32,1.42,12,12,0,0,0-9.78-.51c-3.75,1.46-6.41,5-5.24,9.22,1,3.42,5,6.4,8.66,5.42a7.33,7.33,0,0,0,4,2.32,6.31,6.31,0,0,0,4.43,3.41,163,163,0,0,0,37.21,1.66,7.2,7.2,0,0,0,6.43-.6,153.6,153.6,0,0,0,29.76-6.35c8.28-2.65,6.37-14.05-2-14.73-1.85-.15-3.78-.36-5.75-.59A11.22,11.22,0,0,0,1340.26,156.63Z"/><path class="cls-2" d="M904.33,695.78c-5.52-1.61-11.41-1.6-17.25-.93a16.51,16.51,0,0,0-4-2,13.31,13.31,0,0,0-13.35,2.88,10.83,10.83,0,0,0-1,1.16c-8.42-1.22-17-1-24.38,3.79a24.22,24.22,0,0,0-24-4,10.11,10.11,0,0,0-2.54,1.46A7.78,7.78,0,0,0,816,698c-4.88,0-7.29,3.85-7.23,7.64-2.74-.13-5.49-.22-8.24-.23a26.2,26.2,0,0,0-10-5.8,7.17,7.17,0,0,0-5.72.75,26.79,26.79,0,0,0-2.6-2.35c-2.18-1.71-4.47-2.71-7.3-1.93a7.58,7.58,0,0,0-5.2,5.15,6.52,6.52,0,0,0-.68.38,8.12,8.12,0,0,0-3.15,3.81,10.54,10.54,0,0,0-8.88-4.29,8.34,8.34,0,0,0-5.31,2.19,5.7,5.7,0,0,0-.54.64c-.35-.25-.7-.51-1.06-.75a7.78,7.78,0,0,0-3.48-4.1,10,10,0,0,0-4.42-1.2,8.64,8.64,0,0,0-.88,0l-.72-.36a7.3,7.3,0,0,0-12.45-4.49c-.7-.16-1.41-.31-2.13-.44-13.26-2.42-29.47,1.87-34.06,11.7-3.49-5.19-10.92-8.68-18.54-8.7s-15.08,3.43-18.61,8.6c-4.43-3.36-11.49-5.44-16.92-3.1s-5.17,10.16,1,10.89l-.92.56c76.15,11,155.37,21.1,230.83,10.2,3.46.31,6.93.44,10.4.41,9.78,1.35,19.64,1.26,29.5,1.36l31,.3c9.92.09,21.91,1.82,30.51-4.23a15.6,15.6,0,0,0,2.39-2.07c6.09-.08,12.71-6,11.9-12.17q-.86-6.52-1.72-13.07c-.81-6.2-4.93-12.32-12-12-5.14.23-11.28,4.26-12,9.82a52.87,52.87,0,0,0-5.77,0c-9.73-1.82-20.51-.72-30.38.4a27.12,27.12,0,0,0-10.29.57A25.29,25.29,0,0,0,904.33,695.78Z"/><path class="cls-2" d="M1985.19,566.78c5.52-1.61,11.41-1.6,17.25-.93a16.51,16.51,0,0,1,4-2,13.31,13.31,0,0,1,13.35,2.88,10.83,10.83,0,0,1,1,1.16c8.42-1.22,17-1,24.38,3.79a24.22,24.22,0,0,1,24-4,10.11,10.11,0,0,1,2.54,1.46,7.78,7.78,0,0,1,1.86-.22c4.88,0,7.29,3.85,7.23,7.64,2.74-.13,5.49-.22,8.24-.23a26.2,26.2,0,0,1,10-5.8,7.17,7.17,0,0,1,5.72.75,26.79,26.79,0,0,1,2.6-2.35c2.18-1.71,4.47-2.71,7.3-1.93a7.58,7.58,0,0,1,5.2,5.15,6.52,6.52,0,0,1,.68.38,8.12,8.12,0,0,1,3.15,3.81,10.54,10.54,0,0,1,8.88-4.29,8.34,8.34,0,0,1,5.31,2.19,5.7,5.7,0,0,1,.54.64c.35-.25.7-.51,1.06-.75a7.78,7.78,0,0,1,3.48-4.1,10,10,0,0,1,4.42-1.2,8.64,8.64,0,0,1,.88,0l.72-.36a7.3,7.3,0,0,1,12.45-4.49c.7-.16,1.41-.31,2.13-.44,13.26-2.42,29.47,1.87,34.06,11.7,3.49-5.19,10.92-8.68,18.54-8.7s15.08,3.43,18.61,8.6c4.43-3.36,11.49-5.44,16.92-3.1s5.17,10.16-1,10.89l.92.56c-76.15,11-155.37,21.1-230.83,10.2-3.46.31-6.93.44-10.4.41-9.78,1.35-19.64,1.26-29.5,1.36l-31,.3c-9.92.09-21.92,1.82-30.51-4.23a15.6,15.6,0,0,1-2.39-2.07c-6.09-.08-12.71-6-11.9-12.17q.86-6.52,1.72-13.07c.81-6.2,4.93-12.32,12-12,5.14.23,11.28,4.26,12,9.82a52.87,52.87,0,0,1,5.77,0c9.73-1.82,20.51-.72,30.38.4a27.12,27.12,0,0,1,10.29.57A25.29,25.29,0,0,1,1985.19,566.78Z"/><path class="cls-2" d="M582.83,752c-2.76,1.79-5.17,4-8.5,5.1s-7.16.86-10.81.75c-4.62-.13-9.26,0-13.89.15a7,7,0,0,0-7.2-6.64,6.9,6.9,0,0,0-5.39,2.3c-3.35-6.22-11.46-10-18-6.56l-.2.11h-.71a7,7,0,0,0-2.32-.42,7.22,7.22,0,0,0-7,5.21,6.58,6.58,0,0,0-.74,3.24,15.62,15.62,0,0,0,.22,2l0,.18-2.6-.33a13.77,13.77,0,0,0-5.57-7.76,12.54,12.54,0,0,0-17.65,3.31,6.68,6.68,0,0,0-1,3.59c-7.34,1.11-14.23,3.91-17.79,8.83A148.1,148.1,0,0,0,426,762.2c-4,4.3.11,10.63,6.12,13.22a43.55,43.55,0,0,0,11.63,2.74c.2,3.58,2.61,7,7.22,7a6.94,6.94,0,0,0,5.06-2c1,1.77,3.26,3.71,11.92,5,17.35,2.5,24.44,2.41,34.68-.92,5.72-1.85,11.06-4.5,17.11-5.55,19.1-3.3,37.13,10.08,56.67,9.28,11.87-.49,23.33-6.22,34.91-4.16,4.11.73,7.89,2.42,12.08,2.82,7.66.73,14.72-2.9,22.1-4.63,12.68-3,26.26-.31,39.45.73,31.08,2.44,62-4.35,92-11.08,7.69-1.72,16.47-4.66,21.6-9a32,32,0,0,0,8.38-3.25,7.5,7.5,0,0,0-7.57-12.95l-.86.45a21.62,21.62,0,0,0-9.7-4c-6.73-1-13.73.41-19.9,2.71-3.95,1.47-7.87,3.34-12.26,3.48-7.36.23-13.5-4.38-20.75-5.36-14.4-1.95-26.53,10.61-41.12,9.81-8.78-.48-17.68-5.78-25.56-2.78-4.74,1.8-7.69,6.31-13,6.67-3,.21-5.82-1.06-8.4-2.27-10-4.71-20.31-9.31-31.75-11.24S591.77,746.17,582.83,752Z"/><path class="cls-2" d="M300.46,730.09l-4-.84c15.36,3.59,31.37,4.91,47.46,5.55a57.28,57.28,0,0,0,15.26.46l4.61.1,61.39,1.36c17.67.39,35.44.78,52.92-1.21,18-2.06,35.85-6.63,54-5.52,13.72.84,28.56,4.74,40.51-.49,4.49-2,8-5,11.33-8,2.26-2,4.66-4.35,4.27-7-.42-2.86-3.92-4.78-7.14-6.26-5.36-2.45-11.06-4.77-17.28-5.2s-13.09,1.45-16.07,5.65c-13.56-6.93-33.8-4.63-44.14,5-15.38-8.08-36.1-9.84-53.43-4.53-10.39-8.56-26.41-12.89-41.52-11.22A56.1,56.1,0,0,0,386.9,705a64.61,64.61,0,0,0-28.82.4,36.46,36.46,0,0,1-10.68-5c-4.49-3.13-8.69-6.06-14.28-6.79a19.75,19.75,0,0,0-16.69,5.49,15.85,15.85,0,0,0-3.3,5.07,26.18,26.18,0,0,0-1.67-2.65c-4-5.48-12.8-8.54-17.4-1.87a11.64,11.64,0,0,0-1.82,7.56,57.52,57.52,0,0,0-10.5.73c-8.9,1.49-18.54,7.8-15,14.22A130.29,130.29,0,0,1,300.46,730.09Z"/><path class="cls-2" d="M623.9,647.07c-6.11-3.89-15.37-3.62-22.52-1s-12.68,7.27-18,11.78c-3.58-6.86-12.72-11.29-22.14-12.9a75.07,75.07,0,0,0-13.59-.94,8.64,8.64,0,0,0-4.58-2.44l-2-1.78c-2.21-2-4.39-4.29-7.35-5.11a9,9,0,0,0-9.79,3.91c-1.37,2.17-2.08,4.93-2.89,7.41a17.85,17.85,0,0,0-2.4,2.58,6,6,0,0,0-1,4.58l-.75-.3c-5-2.28-10.17.13-11.14,5.37a15.35,15.35,0,0,0-6.85-4.46c-5.5-1.91-10.69,4-9.23,9.23a16.82,16.82,0,0,0,8.25,10.38,17.43,17.43,0,0,0,5.46,5c5.83,3.24,12.3,1.62,18-.94S532,672,538.54,671.87a44.62,44.62,0,0,1,4.48.19,50.79,50.79,0,0,0,14,4.69c4,.7,6.47.07,8.66,3.63a27.84,27.84,0,0,0,7.11,8.34c13.39,10,29.75,3.8,43.08-2.68a7.3,7.3,0,0,0,1.38-.9c.72,1.08,1.49,2.37,2,3a22,22,0,0,0,4.88,4.2,26.7,26.7,0,0,0,13.23,3.85c7.17.28,13.76-2.39,19.83-5.95,12.66.25,25.32.18,37.94-.69,10.28-.71,20.33-2.28,29.88-6.27,7.17-3,18.17-10.44,26.18-6.76a7.93,7.93,0,0,0,10.19-3.23l.85.15a28.1,28.1,0,0,0,5.15,1.29,9.26,9.26,0,0,0,1.59.08,108.81,108.81,0,0,0,10.79,1.78c13.49,1.38,27.67-1.69,38.21-8.29a36.37,36.37,0,0,0-7.38-7.15c2.15-4.45,0-11.11-6.43-11.11a7,7,0,0,0-4.93,1.82,24.78,24.78,0,0,0-11.79-7.72,7.05,7.05,0,0,0-4.65.08,11.34,11.34,0,0,0-4.31-1,7.23,7.23,0,0,0-13.41.69,14.7,14.7,0,0,0-9.25-2.27,13.8,13.8,0,0,0-5.69,1.93,33.77,33.77,0,0,0-12.63-1.44c-9.24.72-17.58,4.26-26.08,7.19a7,7,0,0,0-7.17-6.36c-4.55,0-6.95,3.33-7.22,6.85-2.28-1.08-4.4-2.54-6.64-3.68-7.85-4-18.09-4.05-27.27-2.47s-17.83,4.61-26.91,6.49a14.8,14.8,0,0,1-6.64.27C627.32,649.79,625.75,648.25,623.9,647.07Z"/><path class="cls-2" d="M1041.81,896.94c-6.73-1-13.73.41-19.9,2.71-3.95,1.47-7.87,3.34-12.26,3.48-7.36.23-13.5-4.38-20.75-5.36-14.4-1.95-26.53,10.61-41.12,9.81-8.78-.48-17.68-5.78-25.56-2.78-4.74,1.8-7.69,6.31-13,6.67-3,.21-5.82-1.06-8.4-2.27-10-4.71-20.31-9.31-31.75-11.24-9.74-1.64-20.53-1.05-29,2.73a9.11,9.11,0,0,0-6.52.46l-1.68.72a21.54,21.54,0,0,0-10.84-.45c-3.34.67-5.48,4.11-5.47,7.38-6.18-.13-12.37.13-18.56.41a7.38,7.38,0,0,0-4.48-4.13c-7.26-2.6-15.46-4.1-22.26-.91a23.38,23.38,0,0,0-8.21-2.47c-3.43-.45-6.44,2.64-7.27,5.83a101.93,101.93,0,0,0-13.18-.91c-9.69.08-20.16,2.89-24.86,9.38A148.1,148.1,0,0,0,679,913.2c-4,4.3.11,10.63,6.12,13.22s13.2,2.74,19.94,3.85-1.47,6.38,15.89,8.89,24.44,2.41,34.68-.92c5.72-1.85,11.06-4.5,17.11-5.55,19.1-3.3,37.13,10.08,56.67,9.28,11.87-.49,23.33-6.22,34.91-4.16,4.11.73,7.89,2.42,12.08,2.82,7.66.73,14.72-2.9,22.1-4.63,12.68-3,26.26-.31,39.45.73,31.08,2.44,62-4.35,92-11.08,12.4-2.77,27.65-8.71,25.8-18.5C1054.78,902,1048.53,898,1041.81,896.94Z"/><path class="cls-2" d="M731.12,886.51c18-2.06,35.85-6.63,54-5.52,13.72.84,28.56,4.74,40.51-.49,4.49-2,8-5,11.33-8,2.26-2,4.66-4.35,4.27-7-.42-2.86-3.92-4.78-7.14-6.26-5.36-2.45-11.06-4.77-17.28-5.2s-13.09,1.45-16.07,5.65c-13.56-6.93-33.8-4.63-44.14,5-15.38-8.08-36.1-9.84-53.43-4.53-10.39-8.56-26.41-12.89-41.52-11.22S632.8,858.24,626,868.7c-10.31-6.73-26.37-7.67-37.9-2.22a23.71,23.71,0,0,0-15.86-.76c-10.35-6.36-24.53-8.91-37.5-6.75-8.9,1.49-18.54,7.8-15,14.22a130.29,130.29,0,0,1,33.7,7.9l-4-.84c21.69,5.07,44.67,5.61,67.33,6.11l61.39,1.36C695.87,888.11,713.64,888.5,731.12,886.51Z"/><path class="cls-2" d="M1104.07,864.08a175,175,0,0,0-92-2.91c-9.18-7.72-19.85-15.13-33.11-17.55-10.89-2-23.76.55-30.56,7a6.94,6.94,0,0,0-7.12-6,6.8,6.8,0,0,0-6.28,3.59,26.2,26.2,0,0,0-8.64-1.52c-7.62,0-15.08,3.43-18.61,8.6-4.43-3.36-11.49-5.44-16.92-3.1a5.52,5.52,0,0,0-1,.55c-2.93-2.53-6.09-4.74-9.47-5.32-3.71-.63-5.62,1.16-8.9,2-2.3.62-.67.57-2.65,0-1.6-.44-3.23-1.53-4.79-2.1-6.17-2.27-12.86.09-14.15,7.05-1.07,5.77,2.72,11.22,7.16,14.49a21.24,21.24,0,0,0,14.18,4.09c3.22-.27,5.5-1.41,8.43-2.54a5.82,5.82,0,0,0,1.26-.6,6.79,6.79,0,0,0,1.75.3c1.74.16,3.65,1.14,5.36,1.52a58.34,58.34,0,0,0,20.36.91c7.07-.92,13.84-3,21-2.2a6,6,0,0,0,4-.86c72.74,9.43,147.08,14.74,217.3-1C1140.28,857.71,1117.61,855.57,1104.07,864.08Z"/><path class="cls-2" d="M524.81,1030.94c-6.73-1-13.73.41-19.9,2.71-4,1.47-7.87,3.34-12.26,3.48-7.36.23-13.5-4.38-20.75-5.36-14.4-2-26.53,10.61-41.12,9.81-8.78-.48-17.68-5.78-25.56-2.78-4.74,1.8-7.69,6.31-13,6.67-3,.21-5.82-1.06-8.4-2.27-10-4.71-20.31-9.31-31.75-11.24s-24.34-.79-33.28,5c-2.76,1.79-5.17,4-8.5,5.1s-7.16.86-10.81.75c-15.38-.44-30.81,1.72-46.13.53-9.63-.74-19.11-2.81-28.79-2.73s-20.16,2.89-24.86,9.38a148.1,148.1,0,0,0-37.71-2.8c-4,4.3.11,10.63,6.12,13.22s13.2,2.74,19.94,3.85-1.47,6.38,15.89,8.89,24.44,2.41,34.68-.92c5.72-1.85,11.06-4.5,17.11-5.55,19.1-3.3,37.13,10.08,56.67,9.28,11.87-.49,23.33-6.22,34.91-4.16,4.11.73,7.89,2.42,12.08,2.82,7.66.73,14.72-2.9,22.1-4.63,12.68-3,26.26-.31,39.45.73,31.08,2.44,62-4.35,92-11.08,12.4-2.77,27.65-8.71,25.8-18.5C537.78,1036,531.53,1032,524.81,1030.94Z"/><path class="cls-2" d="M214.12,1020.51c18-2.06,35.85-6.63,54-5.52,13.72.84,28.56,4.74,40.51-.49,4.49-2,8-5,11.33-8,2.26-2,4.66-4.35,4.27-7-.42-2.86-3.92-4.78-7.14-6.26-5.36-2.45-11.06-4.77-17.28-5.2s-13.09,1.45-16.07,5.65c-13.56-6.93-33.8-4.63-44.14,5-15.38-8.08-36.1-9.84-53.43-4.53-10.39-8.56-26.41-12.89-41.52-11.22s-28.87,9.3-35.67,19.76C98.69,996,82.63,995,71.1,1000.48a23.71,23.71,0,0,0-15.86-.76c-10.35-6.36-24.53-8.91-37.5-6.75-8.9,1.49-18.54,7.8-15,14.22a130.29,130.29,0,0,1,33.7,7.9l-4-.84c21.69,5.07,44.67,5.61,67.33,6.11l61.39,1.36C178.87,1022.11,196.64,1022.5,214.12,1020.51Z"/><path class="cls-2" d="M587.07,998.08a175,175,0,0,0-92-2.91c-9.18-7.72-19.85-15.13-33.11-17.55s-29.47,1.87-34.06,11.7c-3.49-5.19-10.92-8.68-18.54-8.7s-15.08,3.43-18.61,8.6c-4.43-3.36-11.49-5.44-16.92-3.1s-5.17,10.16,1,10.89l-.92.56c85.95,12.45,175.82,23.71,259.79,4.92C623.28,991.71,600.61,989.57,587.07,998.08Z"/><path class="cls-2" d="M325.08,965.18c16.23,3.15,33.22,2.82,50,2.47,29.13-.6,58.59-1.25,86.69-7.15,4.07-.86,8.15-1.82,12.26-2.54,18.25,4.72,37.05,4.34,55.81,3.86a7.78,7.78,0,0,0,2.71.53,89.26,89.26,0,0,0,14-.85h0a173.17,173.17,0,0,1,36.83,3.62c11.92,2.5,24.43,4.36,35.36-2.33,5.23-3.2,4.4-9.61,0-13-21.58-16.44-47.29-6.7-71.75-3.42-12.73-9.62-32.94-13.5-49.84-8.68-2-7.51-13.67-11.41-23.63-10.63s-18.89,4.83-28.1,7.87a19.86,19.86,0,0,1-6.77,1.3c-3.82-.12-6.89-2.12-10-3.94a11.11,11.11,0,0,0,.24-2.23c0-6.76-5.5-11.68-12-12a44.25,44.25,0,0,0-19.29,3.4c-5.36-4.79-11.89-7.73-19.83-5.85a19.61,19.61,0,0,0-12.37,8.9c-.1.15-.17.31-.26.46a26.78,26.78,0,0,0-15.9,2.06,25.48,25.48,0,0,0-3.86,2.21,32.33,32.33,0,0,0-6.72,1.39,31.63,31.63,0,0,0-21-.3,13.4,13.4,0,0,0-3.13,1.54A32.77,32.77,0,0,0,300,930.55c-.92-.21-1.84-.4-2.76-.56-9.42-1.61-19.22-.86-28.82-.1-5.39,9.37.26,21.6,12.15,26.29l-.37-.6c2.1,1.17,5.49,1.72,8.25,1.93C301.06,958.44,312.78,962.79,325.08,965.18Z"/><path class="cls-2" d="M310.44,538c11.87-.49,23.33-6.22,34.91-4.16,4.11.73,7.89,2.42,12.08,2.82,7.66.73,14.72-2.9,22.1-4.63,12.68-3,26.26-.31,39.45.73,31.08,2.44,62-4.35,92-11.08,12.4-2.77,27.65-8.71,25.8-18.5-1-5.19-7.23-9.18-14-10.21s-13.73.41-19.9,2.71c-4,1.47-7.87,3.34-12.26,3.48-7.36.23-13.5-4.38-20.75-5.36-14.4-1.95-26.53,10.61-41.12,9.81-8.78-.48-17.68-5.78-25.56-2.78-4.74,1.8-7.69,6.31-13,6.67-3,.21-5.82-1.06-8.4-2.27-10-4.71-20.31-9.31-31.75-11.24s-24.34-.79-33.28,5c-2.76,1.79-5.17,4-8.5,5.1s-7.16.86-10.81.75c-15.38-.44-30.81,1.72-46.13.53-9.63-.74-19.11-2.81-28.79-2.73s-20.16,2.89-24.86,9.38A148.1,148.1,0,0,0,160,509.2c-4,4.3.11,10.63,6.12,13.22s13.2,2.74,19.94,3.85-1.47,6.38,15.89,8.89,24.44,2.41,34.68-.92c5.72-1.85,11.06-4.5,17.11-5.55C272.87,525.39,290.9,538.77,310.44,538Z"/><path class="cls-2" d="M30.48,476.25c21.69,5.07,44.67,5.61,67.33,6.11l61.39,1.36c17.67.39,35.44.78,52.92-1.21,18-2.06,35.85-6.63,54-5.52,13.72.84,28.56,4.74,40.51-.49,4.49-2,8-5,11.33-8.05,2.26-2,4.66-4.35,4.27-7-.42-2.86-3.92-4.78-7.14-6.26-5.36-2.45-11.06-4.77-17.28-5.2s-13.09,1.45-16.07,5.65c-13.56-6.93-33.8-4.63-44.14,5-15.38-8.08-36.1-9.84-53.43-4.53-10.39-8.56-26.41-12.89-41.52-11.22S113.8,454.24,107,464.7C96.69,458,80.63,457,69.1,462.48a23.71,23.71,0,0,0-15.86-.76c-10.35-6.36-24.53-8.91-37.5-6.75-8.9,1.49-18.54,7.8-15,14.22a130.29,130.29,0,0,1,33.7,7.9Z"/><path class="cls-2" d="M278.55,418.18l-.37-.6c2.1,1.17,5.49,1.72,8.25,1.93,12.63.93,24.35,5.28,36.65,7.67,16.23,3.15,33.22,2.82,50,2.47,29.13-.6,58.59-1.25,86.69-7.15,7.64-1.61,15.3-3.62,23.22-3.6,10.5,0,20.42,3.59,30.83,4.66,13.49,1.38,27.67-1.69,38.21-8.29-11-14.46-36.36-21.39-56.84-15.54-1.94-7.11-12.47-11-22-10.71a11.3,11.3,0,0,0-1.1-2.67c1.31-1.26,2.64-2.53,3.92-3.82,2.82-.9,5.93-1.85,9.11-2.54,1.43.11,2.86.17,4.27.19,5,0,9.2-.27,13.79,1.74.41.18.82.35,1.24.51a8.63,8.63,0,0,0,7.47,1.72,22.62,22.62,0,0,0,12.32-2.74,31.55,31.55,0,0,0,4.12-2.72,14.87,14.87,0,0,0,2.68-1,10.21,10.21,0,0,0,4,2.11,7.22,7.22,0,0,0,1.43.23,11.89,11.89,0,0,0,3.35.48,12.38,12.38,0,0,0,6.15-1.84,6.5,6.5,0,0,0,3.39-.18c3.42,5.38,13.86,4.06,13.93-4,.06-7.16-6.62-12.53-13.17-12.61a16.52,16.52,0,0,0-7.45-8.35,20.34,20.34,0,0,0-17.06-1.07,27.61,27.61,0,0,0-4.41,2.11,21.9,21.9,0,0,0-9.17,2.65,7,7,0,0,0-2,1.67,32.86,32.86,0,0,0-8.16-2.18c-5.27-.72-10.57,0-15.8-.62-5.63-.7-10-3.47-15.94-2.52a16.34,16.34,0,0,0-10.55,6.51,6.25,6.25,0,0,0-1-1.08c-8-6.76-18.55-9.92-28.7-7.9a26.31,26.31,0,0,0-17.67-11.65,9.12,9.12,0,0,0-4.78.38,35.37,35.37,0,0,0-12.74,2.11c-4.32-1.47-9.3-1.95-13-2.35a116.63,116.63,0,0,0-31.52.94,9.38,9.38,0,0,0-2.8.24c-12.39-4.67-26.77-2.22-37.27,5.68a35.59,35.59,0,0,0-17.25,9.38c-6.82,6.73,3.52,17.19,10.41,10.78a5.46,5.46,0,0,0,2.14.8c7,1,14.13,1,20.93-1.2.37-.12.74-.26,1.1-.41a55.14,55.14,0,0,0,51.86-8.19,6.34,6.34,0,0,0,3.5,4.71,19.09,19.09,0,0,0,14.72.2,8.23,8.23,0,0,0-2,6.32c.52,3.86,3.59,6.19,7.36,6.5s7.78.49,11.67.54c-5.69,3.1-10.44,7.76-12.25,14.1-1.69.16-3.37.38-5,.67-9.18,1.57-17.83,4.61-26.91,6.49a14.8,14.8,0,0,1-6.64.27c-2.27-.6-3.84-2.14-5.69-3.32-6.11-3.89-15.37-3.62-22.52-1s-12.68,7.27-18,11.78c-3.58-6.86-12.72-11.29-22.14-12.9s-19.22-.86-28.82-.1C261,401.26,266.66,413.49,278.55,418.18Z"/><path class="cls-2" d="M1281.81,125.94c-6.73-1-13.73.41-19.9,2.71-3.64,1.36-7.27,3-11.25,3.4a12.88,12.88,0,0,0-8-5.76,8.17,8.17,0,0,0-7.5,2.12,31.38,31.38,0,0,0-6.3-1.64c-14.4-2-26.53,10.61-41.12,9.81-8.78-.48-17.68-5.78-25.56-2.78-4.74,1.8-7.69,6.31-13,6.67-3,.21-5.82-1.06-8.4-2.27-10-4.71-20.31-9.31-31.75-11.24s-24.34-.79-33.28,5c-2.76,1.79-5.17,4-8.5,5.1s-7.16.86-10.81.75c-15.38-.44-30.81,1.72-46.13.53-9.63-.74-19.11-2.81-28.79-2.73s-20.16,2.89-24.86,9.38A148.1,148.1,0,0,0,919,142.2c-4,4.3.11,10.63,6.12,13.22s13.2,2.74,19.94,3.85-1.47,6.38,15.89,8.89,24.44,2.41,34.68-.92c5.72-1.85,11.06-4.5,17.11-5.55,19.1-3.3,37.13,10.08,56.67,9.28,11.87-.49,23.33-6.22,34.91-4.16,4.11.73,7.89,2.42,12.08,2.82,7.66.73,14.72-2.9,22.1-4.63,12.68-3,26.26-.31,39.45.73,31.08,2.44,62-4.35,92-11.08,12.4-2.77,27.65-8.71,25.8-18.5C1294.78,131,1288.53,127,1281.81,125.94Z"/><path class="cls-2" d="M793.46,110.09l-4-.84c21.69,5.07,44.67,5.61,67.33,6.11l61.39,1.36c17.67.39,35.44.78,52.92-1.21,18-2.06,35.85-6.63,54-5.52,12,.73,24.8,3.79,35.81,1.08a8.28,8.28,0,0,0,1.12,0c3.87-.19,7.72-.24,11.57-.18a38.81,38.81,0,0,0,12.95.65,9.35,9.35,0,0,0,1.34-.26c.84.21,1.69.41,2.55.56a23.19,23.19,0,0,0,9-.06,14.52,14.52,0,0,0,3.24-.88,4.27,4.27,0,0,1,.59-.25c5.85,4.28,15.59-2.45,11-9.72-3-4.75-7.67-6.08-13-5.1-2.08.38-4.12,1.4-6.24,1.49-2.66.12-5.54-1.21-8-2a55.29,55.29,0,0,0-5.85-1.51c-.82-2.5-4-4.24-7-5.6-5.36-2.45-11.06-4.77-17.28-5.2s-13.09,1.45-16.07,5.65c-13.56-6.93-33.8-4.63-44.14,5-15.38-8.08-36.1-9.84-53.43-4.53-10.39-8.56-26.41-12.89-41.52-11.22S872.8,87.24,866,97.7C855.69,91,839.63,90,828.1,95.48a23.71,23.71,0,0,0-15.86-.76c-10.35-6.36-24.53-8.91-37.5-6.75-8.9,1.49-18.54,7.8-15,14.22A130.29,130.29,0,0,1,793.46,110.09Z"/><path class="cls-2" d="M852,832.68c13.17,1.51,26.69,1.25,40.06,1,29.13-.6,58.59-1.25,86.69-7.15,7.64-1.61,15.3-3.62,23.22-3.6,10.5,0,20.42,3.59,30.83,4.66,13.49,1.38,27.67-1.69,38.21-8.29-7.27-9.54-20.77-15.8-35-17.27a15.79,15.79,0,0,0-2.76-3.07c-2.5-8.22-12.56-13.59-20.92-8.33a14.42,14.42,0,0,0-5.2,5.55,32.21,32.21,0,0,0-16.59-3,62.07,62.07,0,0,0-14.17,3c-3.16-5.85-12-7.7-18-6.68a14.1,14.1,0,0,0-10.12,7.26,6.83,6.83,0,0,0-1.73,2.1c-1-.59-2-1.18-3.05-1.71-7.85-4-18.09-4.05-27.27-2.47-8.22,1.4-16,4-24.06,5.85a6.86,6.86,0,0,0-4.84-5.31,7.09,7.09,0,0,0-4.49-1.46,6.81,6.81,0,0,0-6.49,4c-6.1-3.5-15-3.17-21.88-.6-7.16,2.66-12.68,7.27-18,11.78-3.58-6.86-12.72-11.29-22.14-12.9s-19.22-.86-28.82-.1a16.05,16.05,0,0,0-.19,15.35c-8.91-.36-17.89-.38-26.79-.54-8.58-12.48-26.38-17.41-40.16-9.49a11.65,11.65,0,0,0-5.8,10.81H712c-15.4.55-15.47,24.55,0,24,1.8-.07,1.32-.3,3,.63-.72-.4.22.27.59.58a20.58,20.58,0,0,0,1.14,2.23c2.27,5,8.19,6.64,13.33,5.4a12.68,12.68,0,0,0,4.34.9,245,245,0,0,0,25.85-.46,12.69,12.69,0,0,0,7.27-2.88,11.25,11.25,0,0,0,3,2.54c8.34,4.56,19.21-.15,27.5-2.83q4.9-1.61,9.73-3.45c.57.23,1.14.45,1.73.64A29.79,29.79,0,0,0,822,840.63c6.9-.71,13.52-3.69,20.32-2.85C846.19,838.26,849.76,835.91,852,832.68Z"/><path class="cls-2" d="M493.4,893.57c-4.4-4.38-12.29-3.83-16.54.42-4.82,4.82-4.32,12.11,0,17l4.71,5.31c4.19,4.73,11,4.1,15.71.93a1.66,1.66,0,0,0,.62-.22,2.06,2.06,0,0,0,.26.12c.13.16.28.33.46.53,2.41,2.77,7.52,4.4,11.16,3.26,2.05,3.52,6,5.28,10,3.33,9.81,4.23,19.93,7,31.1,6.21,11.67-.78,23.37-2.76,35-4.68a119.58,119.58,0,0,0,26.28-3c7.16-1.77,7.13-12.67,0-14.47a77.74,77.74,0,0,0-26.92-2,6.61,6.61,0,0,0-4.31-3.3,30.8,30.8,0,0,0-16.65.77c-2.65,1-4.2,1.93-7,1.2-1-.26-2-.58-3-.92a11.82,11.82,0,0,0-5.23-1.89l-1.11-.4a36.41,36.41,0,0,0-3.48-4.51,19.28,19.28,0,0,0-12.51-6.54c-7.39-.75-15.53,2-22.8,4.8A23.54,23.54,0,0,0,493.4,893.57Z"/><path class="cls-2" d="M1470.81,575.94c-6.73-1-13.73.41-19.9,2.71-4,1.47-7.87,3.34-12.26,3.48-7.36.23-13.5-4.38-20.75-5.36-14.4-1.95-26.53,10.61-41.12,9.81-8.78-.48-17.68-5.78-25.56-2.78-2.57,1-4.61,2.74-6.79,4.22a16.58,16.58,0,0,0-13.24-14.71c-4.48-.85-11.06.71-16,3.86a22.59,22.59,0,0,0-2.25.31,6.7,6.7,0,0,0-3.91,2.16,82,82,0,0,0-10.94-2.68c-11.44-1.92-24.34-.79-33.28,5-2.76,1.79-5.17,4-8.5,5.1a15.19,15.19,0,0,1-1.51.39c-.06-.06-.1-.13-.16-.19a19.84,19.84,0,0,0-9.9-5.95c-3.67-2-7.82-2.38-11.38.22-.38.13-.76.26-1.14.41a8.38,8.38,0,0,0-5.43,6.22c-4.7.21-9.39.43-14.08.51a8.33,8.33,0,0,0,1-5.52,6.93,6.93,0,0,0-7.13-6.1,7.12,7.12,0,0,0-4.41,1.38,6,6,0,0,0-.54.46,7.12,7.12,0,0,0-1.68,2.49,6.55,6.55,0,0,0-3.86-2.88,7.06,7.06,0,0,0-4.49-1.45c-5.73,0-8.06,5.27-7,9.57l-2.3-.28a21.44,21.44,0,0,0-27.71.38,7.4,7.4,0,0,0-2,2.73,18.56,18.56,0,0,0-6.88,5.54c-.78-.16-1.57-.3-2.35-.45a6.92,6.92,0,0,0-7.11-6,7.16,7.16,0,0,0-4.52,1.47,23,23,0,0,0-2.93-2.81c-6.2-4.87-14.63-6.17-21.57-2.08a7,7,0,0,0-3.21,8.48v.05l-2.77-.36c-6.41-.9-12.89,1.55-14.76,8.38-1.54,5.61,1.92,13.86,8.38,14.76a305.72,305.72,0,0,0,61.8,2.58c12.68,1.52,19.16,1.05,28-1.81,5.72-1.85,11.06-4.5,17.11-5.55,19.1-3.3,37.13,10.08,56.67,9.28,11.87-.49,23.33-6.22,34.91-4.16,4.11.73,7.89,2.42,12.08,2.82,7.66.73,14.72-2.9,22.1-4.63,12.68-3,26.26-.31,39.45.73,31.08,2.44,62-4.35,92-11.08,12.4-2.77,27.65-8.71,25.8-18.5C1483.78,581,1477.53,577,1470.81,575.94Z"/><path class="cls-2" d="M1441.1,540.17c-9.18-7.72-19.85-15.13-33.11-17.55s-29.47,1.87-34.06,11.7c-3.49-5.19-10.92-8.68-18.54-8.7s-15.08,3.43-18.61,8.6c-4.43-3.36-11.49-5.44-16.92-3.1s-5.17,10.16,1,10.89l-.92.56c85.95,12.45,175.82,23.71,259.79,4.92-10.43-10.78-33.1-12.92-46.64-4.41A175,175,0,0,0,1441.1,540.17Z"/><path class="cls-2" d="M1419.52,472.1c-10,.77-18.89,4.83-28.1,7.87a19.86,19.86,0,0,1-6.77,1.3c-4.73-.15-8.29-3.17-12.24-5.17-7.85-4-18.09-4.05-27.27-2.47s-17.83,4.61-26.91,6.49a14.8,14.8,0,0,1-6.64.27c-2.27-.6-3.84-2.14-5.69-3.32-6.11-3.89-15.37-3.62-22.52-1s-12.68,7.27-18,11.78c-3.58-6.86-12.72-11.29-22.14-12.9s-19.22-.86-28.82-.1c-3.65,6.35-2.23,14,2.75,19.73-7.69.09-15.26.56-22.31,3.41-.52,0-1,.05-1.56.12-4,.48-7.5,3.1-7.5,7.5a8.27,8.27,0,0,0,3.17,6.16,10.67,10.67,0,0,0,14.28,2.67,64.9,64.9,0,0,0,31.7-3.35,8.28,8.28,0,0,0,4.47-3.61c8.39-2.18,17.94,2.21,25.51,5.4,2.72,1.15,5.8-.26,7.68-2.47,15.77,2.85,32.23,2.54,48.45,2.2,29.13-.6,58.59-1.25,86.69-7.15,7.64-1.61,15.3-3.62,23.22-3.6,10.5,0,20.42,3.59,30.83,4.66,13.49,1.38,27.67-1.69,38.21-8.29-11-14.46-36.36-21.39-56.84-15.54C1441.1,475.22,1429.48,471.32,1419.52,472.1Z"/><path class="cls-2" d="M1105.63,566.69l1.57,0c17.67.39,35.44.78,52.92-1.21,18-2.06,35.85-6.63,54-5.52,13.72.84,28.56,4.74,40.51-.49,4.49-2,8-5,11.33-8,2.26-2,4.66-4.35,4.27-7-.42-2.86-3.92-4.78-7.14-6.26-5.36-2.45-11.06-4.77-17.28-5.2s-13.09,1.45-16.07,5.65c-13.56-6.93-33.8-4.63-44.14,5-12.89-6.77-29.52-9.09-44.76-6.54a7.24,7.24,0,0,0-13.25-1.27c-10.2-6.35-23.91-9.38-36.94-7.94-15.1,1.67-28.87,9.3-35.67,19.76-5.86-3.82-13.58-5.77-21.26-5.75a6.87,6.87,0,0,0-6.94-5.23,7.5,7.5,0,0,1-10.37,0,7.37,7.37,0,0,0-3.81,1,6.76,6.76,0,0,0-2.2-1l-4.61-1.15a7.87,7.87,0,0,0-5.78.76,7.67,7.67,0,0,0-3.45,4.48,7.81,7.81,0,0,0-.18,1.35A57.64,57.64,0,0,0,963.74,538l-1.14.22c-1.78-2.45-4.91-3.31-8.07-2.83-6.12.92-10.86,5.78-13,11.4s-3.2,14.33.18,19.51c3.67,5.63,11.77,5.62,17.72,5.05A44,44,0,0,0,969.92,569a12.44,12.44,0,0,0,4.22.56c24.36-.84,48.28-1,72.42,2.71a113.13,113.13,0,0,0,37.31,0A160,160,0,0,0,1105.63,566.69Z"/><path class="cls-2" d="M1881.47,349.94c6.72-1,13.73.41,19.89,2.71,4,1.47,7.88,3.34,12.27,3.48,7.35.23,13.49-4.38,20.74-5.36,14.41-1.95,26.54,10.61,41.13,9.81,8.78-.48,17.67-5.78,25.56-2.78,2.56,1,4.61,2.74,6.78,4.22a16.58,16.58,0,0,1,13.24-14.71c4.49-.85,11.07.71,16,3.86.77.07,1.52.17,2.25.31a6.68,6.68,0,0,1,3.9,2.16,82.16,82.16,0,0,1,11-2.68c11.44-1.92,24.34-.79,33.28,5,2.76,1.79,5.17,4,8.49,5.1.5.16,1,.28,1.52.39l.15-.19a19.88,19.88,0,0,1,9.9-5.95c3.67-2,7.83-2.38,11.38.22.39.13.77.26,1.14.41a8.41,8.41,0,0,1,5.44,6.22c4.69.21,9.39.43,14.08.51a8.33,8.33,0,0,1-1-5.52,6.94,6.94,0,0,1,7.13-6.1,7.15,7.15,0,0,1,4.42,1.38,4.73,4.73,0,0,1,.53.46,7,7,0,0,1,1.69,2.49,6.53,6.53,0,0,1,3.85-2.88,7.09,7.09,0,0,1,4.5-1.45c5.72,0,8.05,5.27,7,9.57l2.3-.28a21.44,21.44,0,0,1,27.71.38,7.36,7.36,0,0,1,2,2.73,18.56,18.56,0,0,1,6.88,5.54c.78-.16,1.57-.3,2.36-.45a6.91,6.91,0,0,1,7.1-6,7.14,7.14,0,0,1,4.52,1.47,22.43,22.43,0,0,1,2.94-2.81c6.2-4.87,14.63-6.17,21.57-2.08a7,7,0,0,1,3.2,8.48v.05l2.77-.36c6.42-.9,12.89,1.55,14.77,8.38,1.54,5.61-1.92,13.86-8.39,14.76a305.72,305.72,0,0,1-61.8,2.58c-12.67,1.52-19.15,1.05-28-1.81-5.71-1.85-11.05-4.5-17.11-5.55-19.09-3.3-37.12,10.08-56.67,9.28-11.86-.49-23.33-6.22-34.9-4.16-4.11.73-7.9,2.42-12.08,2.82-7.66.73-14.72-2.9-22.1-4.63-12.68-3-26.27-.31-39.46.73-31.08,2.44-62-4.35-92-11.08-12.39-2.77-27.64-8.71-25.79-18.5C1868.5,355,1874.74,351,1881.47,349.94Z"/><path class="cls-2" d="M1911.17,314.17c9.18-7.72,19.85-15.13,33.11-17.55s29.47,1.87,34.07,11.7c3.48-5.19,10.91-8.68,18.53-8.7s15.08,3.43,18.62,8.6c4.43-3.36,11.49-5.44,16.92-3.1s5.17,10.16-1,10.89l.92.56c-85.95,12.45-175.82,23.71-259.78,4.92,10.43-10.78,33.09-12.92,46.64-4.41A174.92,174.92,0,0,1,1911.17,314.17Z"/><path class="cls-2" d="M1932.76,246.1c10,.77,18.89,4.83,28.09,7.87a20,20,0,0,0,6.77,1.3c4.73-.15,8.3-3.17,12.25-5.17,7.85-4,18.09-4,27.27-2.47s17.82,4.61,26.9,6.49a14.85,14.85,0,0,0,6.65.27c2.27-.6,3.84-2.14,5.68-3.32,6.12-3.89,15.38-3.62,22.53-1s12.68,7.27,18,11.78c3.58-6.86,12.72-11.29,22.13-12.9s19.22-.86,28.82-.1c3.65,6.35,2.24,14-2.74,19.73,7.68.09,15.26.56,22.31,3.41.52,0,1,.05,1.55.12,4,.48,7.5,3.1,7.5,7.5a8.29,8.29,0,0,1-3.16,6.16,10.68,10.68,0,0,1-14.28,2.67,64.89,64.89,0,0,1-31.7-3.35,8.3,8.3,0,0,1-4.48-3.61c-8.39-2.18-17.93,2.21-25.5,5.4-2.72,1.15-5.8-.26-7.68-2.47-15.78,2.85-32.23,2.54-48.45,2.2-29.13-.6-58.59-1.25-86.69-7.15-7.65-1.61-15.3-3.62-23.23-3.6-10.5,0-20.42,3.59-30.82,4.66-13.5,1.38-27.67-1.69-38.21-8.29,11-14.46,36.35-21.39,56.83-15.54C1911.17,249.22,1922.79,245.32,1932.76,246.1Z"/><path class="cls-2" d="M2246.64,340.69l-1.57,0c-17.66.39-35.43.78-52.91-1.21-18-2.06-35.86-6.63-54-5.52-13.72.84-28.56,4.74-40.51-.49-4.5-2-8-5-11.34-8.05-2.25-2-4.65-4.35-4.26-7,.42-2.86,3.92-4.78,7.14-6.26,5.36-2.45,11.06-4.77,17.28-5.2s13.09,1.45,16.06,5.65c13.57-6.93,33.81-4.63,44.15,5,12.89-6.77,29.51-9.09,44.76-6.54a7.24,7.24,0,0,1,13.25-1.27c10.19-6.35,23.9-9.38,36.93-7.94,15.11,1.67,28.87,9.3,35.67,19.76,5.86-3.82,13.58-5.77,21.27-5.75a6.85,6.85,0,0,1,6.93-5.23,7.52,7.52,0,0,0,10.38,0,7.42,7.42,0,0,1,3.81,1,6.7,6.7,0,0,1,2.19-1l4.61-1.15a7.87,7.87,0,0,1,5.78.76,7.63,7.63,0,0,1,3.45,4.48,9,9,0,0,1,.19,1.35,57.61,57.61,0,0,1,32.65-4.19l1.14.22c1.79-2.45,4.91-3.31,8.07-2.83,6.12.92,10.87,5.78,13,11.4s3.2,14.33-.19,19.51c-3.67,5.63-11.76,5.62-17.71,5.05a44.19,44.19,0,0,1-10.49-2.33,12.44,12.44,0,0,1-4.22.56c-24.35-.84-48.28-1-72.42,2.71a113.07,113.07,0,0,1-37.3,0A160.1,160.1,0,0,1,2246.64,340.69Z"/><path class="cls-2" d="M944.54,45.9c10.9,7.48,20.57,17.88,35,16.79a26.11,26.11,0,0,0,14.55-5.78,13.77,13.77,0,0,0,8.3-2.54c10,.37,19.68-.19,29.44-3.91,5.5-2.1,10.86-4.64,16.56-6.18s10.4-.29,16.18.73a47.17,47.17,0,0,0,31.62-4.9c11.82,1,23.88.79,35.82.54,29.13-.6,58.59-1.25,86.69-7.15,7.64-1.61,15.3-3.62,23.22-3.6,10.5,0,20.42,3.59,30.83,4.66a64.36,64.36,0,0,0,29.55-4c.86,4.3,5.22,7.94,9.78,8.8.18,0,.37.06.55.09a14.88,14.88,0,0,0,7.28,6.57c2.76,1.13,7.25-.7,8.47-3.45.27-.6.5-1.22.71-1.84a7.53,7.53,0,0,0,5.43-1.54c8.81,9.39,20.15,16,33.37,9.76,4.48-2.12,4.5-7.75,1.87-11.19.91-.08,1.82-.18,2.73-.31a8.71,8.71,0,0,0,6-1.19c.38-.09.75-.21,1.12-.31.23.13.45.26.69.38s.29.18.44.28l0,0a12.39,12.39,0,0,0,3.77,1.08c5.65.69,7.91-4.63,6.88-9.16,0-.16,0-.32,0-.49a14.17,14.17,0,0,0-3.44-8.4c-2.34-2.95-7.45-2.71-10.15-.41-.46-.1-.92-.18-1.38-.26a15.83,15.83,0,0,0-6-3.32c-6.13-1.82-12,.17-17.45,3a27.2,27.2,0,0,0-21.38,3.3,96.55,96.55,0,0,0-10.61-1.25c-4.57-1.89-10.4-1.88-14.5.84-12.45-11.17-34.34-16-52.45-10.82C1252.1,3.22,1240.48-.68,1230.52.1s-18.89,4.83-28.1,7.87a19.86,19.86,0,0,1-6.77,1.3c-4.73-.15-8.29-3.17-12.24-5.17-7.85-4-18.09-4-27.27-2.47s-17.83,4.61-26.91,6.49a14.8,14.8,0,0,1-6.64.27c-2.27-.6-3.84-2.14-5.69-3.32-6.11-3.89-15.37-3.62-22.52-1s-12.68,7.27-18,11.78C1072.78,9,1063.64,4.6,1054.22,3s-19.22-.86-28.82-.1c-4.24,7.37-1.65,16.5,5.43,22.35-1.77.69-3.55,1.39-5.35,2.07a44.43,44.43,0,0,1-15.16,3.41c-3.23.07-6.46-.07-9.69-.28a12.11,12.11,0,0,0-10.2-5.73l-31.09.84c-1.86-.47-3.71-1-5.56-1.58-5.63-1.82-12,1.65-14.15,6.94C937.3,36.7,939.48,42.43,944.54,45.9Z"/></g></g></g></svg>