<svg xmlns="http://www.w3.org/2000/svg" viewBox="0 0 504 504"><defs><style>.cls-1{fill:#e5decf;}.cls-2{fill:#403b63;}</style></defs><title>hero_logo</title><g id="レイヤー_2" data-name="レイヤー 2"><g id="レイヤー_4" data-name="レイヤー 4"><circle class="cls-1" cx="252" cy="252" r="252"/><path class="cls-2" d="M355.6,164.1c-1.4-1.6-21.3-26.5-24.8-30.7s-5.2-3.5-7.3-3.1l-30.2,5c-2.9.5-4.8,1.6-3,4.2l21.8,30.8L246.4,186,194.2,98.7c-2.1-3.1-2.5-4.2-7.2-4l-43.6,3.5c-2.6.2-5.4,1.4-2.8,7.4s43.7,94.8,44.9,97.4,4.1,6.7,11.1,5.1l45.5-11.8c7.1,13,21.7,39.3,24.4,43.1s6.1,4.2,11.7,2.5,67.6-24.1,70.4-25.3,4.7-2,2.7-4.8-18.1-24.5-26.8-36.2l29.5-7.9C356.7,167,357,165.7,355.6,164.1ZM236.3,188.5l-39.6,9.4c-1.9.4-1.9.2-2.1-.5s-43.8-90.3-44.4-91.4-.5-2,0-2l36-3.2c1.2,0,1,.2,1.5,1s48.2,83.1,49,84.6S237,188.3,236.3,188.5Zm103.6,19.4c.6.9,1.2,1.5-.6,2.2l-63.5,21.5c-1.1.5-2,.7-3.6-1.5S251.1,194,251.1,194l64-16.7c1.6-.5,2.1-.8,3.1.8S339.3,207,339.9,207.9Zm4.1-45.4-24.9,6.1-19.2-26.4c-.6-.7-1-1.5.3-1.7s23.2-4.1,24.2-4.3,1.8-.5,3,1.1l18.5,23.5C346.5,161.7,345.5,162.1,344,162.5Z"/><path class="cls-2" d="M117.3,281.9a9.1,9.1,0,0,0-3,.5,1.7,1.7,0,0,0-1.3,1.3,8,8,0,0,0-.4,3.1V316a7.9,7.9,0,0,0,.3,2.6,1.8,1.8,0,0,0,1,1.2,7.2,7.2,0,0,0,2.3.2H119a8.4,8.4,0,0,0,6.8-3.5,18.8,18.8,0,0,0,3.7-9.2h1.3c-.1,1.3-.2,2.9-.2,5,0,3.7.2,6.7.4,9.1-2.6-.2-6.9-.2-13.1-.2-8.3,0-14.6,0-18.7.2v-1.2a13.1,13.1,0,0,0,2.8-.4,2.1,2.1,0,0,0,1.2-1.4,11.4,11.4,0,0,0,.3-3.1V286.8a11.4,11.4,0,0,0-.3-3.1,1.8,1.8,0,0,0-1.2-1.3,8.2,8.2,0,0,0-2.8-.5v-1.1h18.1Z"/><path class="cls-2" d="M136.9,319.9a7.1,7.1,0,0,1-1.8-5,6.7,6.7,0,0,1,1.3-4.3,9.3,9.3,0,0,1,3.3-2.6,36.1,36.1,0,0,1,4.9-1.9,27.6,27.6,0,0,0,4.6-2,2.7,2.7,0,0,0,1.5-2.5v-4.4a6.1,6.1,0,0,0-1.1-3.8,4.3,4.3,0,0,0-3.5-1.3,6,6,0,0,0-4.2,1.3,5.2,5.2,0,0,1,2.5,1.8,4,4,0,0,1,.9,2.7A3.9,3.9,0,0,1,144,301a5.2,5.2,0,0,1-3.2,1.1,3.6,3.6,0,0,1-3.1-1.3,4.7,4.7,0,0,1-1.1-3.1,4,4,0,0,1,.8-2.7,6.7,6.7,0,0,1,2.3-2.1,15.9,15.9,0,0,1,3.9-1.5,24.6,24.6,0,0,1,4.9-.5,17.7,17.7,0,0,1,4.9.6,7.5,7.5,0,0,1,3.4,1.9,6.3,6.3,0,0,1,1.7,3.1,22.9,22.9,0,0,1,.4,5v15.6a4.9,4.9,0,0,0,.3,2c.2.4.5.5,1,.5a3.7,3.7,0,0,0,2.1-.9l.5.9a9.1,9.1,0,0,1-6.3,2.2,6.4,6.4,0,0,1-4.4-1.3,4.8,4.8,0,0,1-1.3-3.4,9.3,9.3,0,0,1-8.4,4.7A7.5,7.5,0,0,1,136.9,319.9Zm13.8-4.2V304a8.4,8.4,0,0,1-2.9,2.5,14.6,14.6,0,0,0-3.4,2.9,6.1,6.1,0,0,0-1.2,4.1,5.6,5.6,0,0,0,1,3.5,3.5,3.5,0,0,0,2.6,1.1A4.7,4.7,0,0,0,150.7,315.7Z"/><path class="cls-2" d="M190.4,292.5a5.2,5.2,0,0,1,1.3,3.7,5.1,5.1,0,0,1-1.2,3.5,4.1,4.1,0,0,1-3.2,1.3,4.3,4.3,0,0,1-3.1-1,3.3,3.3,0,0,1-1.2-2.7,5.1,5.1,0,0,1,2.6-4.4h-1.7a5.9,5.9,0,0,0-3.7,2.7,8.4,8.4,0,0,0-1.5,4.7v15.2a4.6,4.6,0,0,0,1.3,3.6,6.5,6.5,0,0,0,4.1,1.1v1.2h-1.3l-7.8-.2-7,.2h-1.2v-1.2a3.9,3.9,0,0,0,2.9-.9,5.3,5.3,0,0,0,.8-3.3V298a7.6,7.6,0,0,0-.8-3.9,3.3,3.3,0,0,0-2.9-1.2v-1.2l3.6.2a36.9,36.9,0,0,0,8.3-.8v5.3a11.3,11.3,0,0,1,3.2-4,7.7,7.7,0,0,1,4.6-1.5A4.7,4.7,0,0,1,190.4,292.5Z"/><path class="cls-2" d="M196.8,319.9a7.1,7.1,0,0,1-1.8-5,6.7,6.7,0,0,1,1.4-4.3,9,9,0,0,1,3.2-2.6,36.1,36.1,0,0,1,4.9-1.9,27.6,27.6,0,0,0,4.6-2,2.7,2.7,0,0,0,1.5-2.5v-4.4a6.1,6.1,0,0,0-1.1-3.8,4.3,4.3,0,0,0-3.5-1.3,6,6,0,0,0-4.2,1.3,5.2,5.2,0,0,1,2.5,1.8,4,4,0,0,1,.9,2.7,3.9,3.9,0,0,1-1.3,3.1,5.2,5.2,0,0,1-3.2,1.1,3.7,3.7,0,0,1-3.1-1.3,4.7,4.7,0,0,1-1.1-3.1,4.6,4.6,0,0,1,.8-2.7,6.3,6.3,0,0,1,2.4-2.1,15,15,0,0,1,3.8-1.5,24.6,24.6,0,0,1,4.9-.5,17.7,17.7,0,0,1,4.9.6,7.5,7.5,0,0,1,3.4,1.9,6.3,6.3,0,0,1,1.7,3.1,22,22,0,0,1,.5,5v15.6a5.3,5.3,0,0,0,.2,2c.2.4.5.5,1,.5a3.7,3.7,0,0,0,2.1-.9l.6.9a9.5,9.5,0,0,1-6.3,2.2,6.7,6.7,0,0,1-4.5-1.3,5.2,5.2,0,0,1-1.3-3.4,9.3,9.3,0,0,1-8.4,4.7A7.5,7.5,0,0,1,196.8,319.9Zm13.8-4.2V304a8.4,8.4,0,0,1-2.9,2.5,14.6,14.6,0,0,0-3.4,2.9,6.1,6.1,0,0,0-1.1,4.1,5.6,5.6,0,0,0,.9,3.5,3.5,3.5,0,0,0,2.6,1.1A4.7,4.7,0,0,0,210.6,315.7Z"/><path class="cls-2" d="M253.3,291.7v1.2a4.4,4.4,0,0,0-2.2,1.4,13.9,13.9,0,0,0-1.8,3.5l-8.4,23.7h-3.7L227,296.1a5.9,5.9,0,0,0-1.6-2.5,2.5,2.5,0,0,0-1.7-.7v-1.2q4.1.3,8.1.3l7.5-.3v1.2a9,9,0,0,0-2.8.3c-.6.2-.8.6-.8,1.4a11.5,11.5,0,0,0,.2,1.4l6.6,17.4,4.1-11.4a14.8,14.8,0,0,0,.9-4.6q0-4.2-4.2-4.5v-1.2l5.5.2Z"/><path class="cls-2" d="M279.1,312.9l1.1.3a15,15,0,0,1-4.1,6.4,11.1,11.1,0,0,1-7.4,2.6,12.5,12.5,0,0,1-9.7-3.9q-3.6-3.9-3.6-11.4c0-5.2,1.3-9.1,3.9-11.9a13.3,13.3,0,0,1,10.2-4.1c7.2,0,10.8,4.3,10.8,12.7H264.2a19.4,19.4,0,0,0-.1,2.7,15.8,15.8,0,0,0,1.1,6.3,7.8,7.8,0,0,0,2.7,3.7,6.3,6.3,0,0,0,3.7,1.2C274.7,317.5,277.2,315.9,279.1,312.9Zm-13.4-18.2c-.9,1.7-1.4,4.3-1.7,7.9h9a22.9,22.9,0,0,0-.8-7.5c-.7-2-1.7-3-3.1-3S266.6,293,265.7,294.7Z"/><path class="cls-2" d="M297.6,316c0,1.6.2,2.7.8,3.3a3.6,3.6,0,0,0,2.8.9v1.2l-7.6-.3-7.9.3v-1.2a3.8,3.8,0,0,0,2.8-.9,5.3,5.3,0,0,0,.8-3.3V283.4a7.6,7.6,0,0,0-.8-3.9,3.2,3.2,0,0,0-2.8-1.2v-1.2l3.5.2a39.9,39.9,0,0,0,8.4-.8Z"/><path class="cls-2" d="M126.6,354.9a20.8,20.8,0,0,1,4.7,2.8,2.1,2.1,0,0,0,1.1.5c.8,0,1.3-1.2,1.5-3.4h1.3c-.1,2.6-.2,7.2-.2,13.8h-1.3a30.9,30.9,0,0,0-1.4-6.5,10.4,10.4,0,0,0-2.9-3.8,8.1,8.1,0,0,0-3.4-2.1,10.1,10.1,0,0,0-3.9-.8c-3.9,0-6.7,1.9-8.6,5.7s-2.8,8.4-2.8,14.1.9,10.2,2.9,14,4.9,5.6,8.7,5.6a13.4,13.4,0,0,0,3.9-.7,8.9,8.9,0,0,0,3.2-2.1,8.8,8.8,0,0,0,3-4.1,35.2,35.2,0,0,0,1.3-7H135c0,6.9.1,11.7.2,14.4h-1.3a10.8,10.8,0,0,0-.5-2.6.9.9,0,0,0-.9-.7,2.4,2.4,0,0,0-1.2.4,22.6,22.6,0,0,1-4.9,2.8,16.2,16.2,0,0,1-5.7.9,22.4,22.4,0,0,1-10.6-2.4,17,17,0,0,1-7.1-7.2,22.8,22.8,0,0,1-2.5-11.1,24,24,0,0,1,2.5-11.2,20.3,20.3,0,0,1,7.2-7.6,20.6,20.6,0,0,1,10.6-2.6A16.4,16.4,0,0,1,126.6,354.9Z"/><path class="cls-2" d="M163.8,368.7c2.4,2.5,3.7,6.4,3.7,11.9s-1.3,9.3-3.7,11.8-6,3.7-10.4,3.7-7.7-1.2-10.2-3.7-3.8-6.4-3.8-11.8,1.2-9.4,3.8-11.9,5.9-3.8,10.2-3.8S161.3,366.2,163.8,368.7Zm-14.3.9c-1,2.4-1.4,6.1-1.4,11s.4,8.5,1.4,10.8,2.3,3.6,3.9,3.6,3-1.2,4-3.5,1.4-6,1.4-10.9-.5-8.6-1.4-11-2.3-3.6-4-3.6S150.5,367.2,149.5,369.6Z"/><path class="cls-2" d="M198.7,367.1a8.2,8.2,0,0,1,1.4,2.8,27.4,27.4,0,0,1,.4,4.7V390c0,1.6.2,2.7.8,3.3a4.1,4.1,0,0,0,2.8.8v1.2l-7.5-.2-7.5.2v-1.2a3,3,0,0,0,2.4-.8,5.4,5.4,0,0,0,.7-3.3V372.2a6.9,6.9,0,0,0-.8-3.6,3,3,0,0,0-2.8-1.2,5.4,5.4,0,0,0-4,1.9,7.1,7.1,0,0,0-1.6,4.8V390a5.4,5.4,0,0,0,.7,3.3,3,3,0,0,0,2.4.8v1.2l-7.1-.2-8,.2v-1.2a4.2,4.2,0,0,0,2.9-.8,5.3,5.3,0,0,0,.8-3.3V372a7.6,7.6,0,0,0-.8-3.9,3.2,3.2,0,0,0-2.9-1.2v-1.2l3.6.2a38.5,38.5,0,0,0,8.4-.8v5.1c1.7-3.5,4.8-5.3,9.4-5.3C195.3,364.9,197.4,365.6,198.7,367.1Z"/><path class="cls-2" d="M229.8,352.4a4.9,4.9,0,0,1,1.4,1.8,5.4,5.4,0,0,1,.6,2.5,3.8,3.8,0,0,1-1.2,2.8,3.7,3.7,0,0,1-2.9,1.2,4.8,4.8,0,0,1-3.2-1.1,4.1,4.1,0,0,1-1.2-3,3.9,3.9,0,0,1,.9-2.6,5.1,5.1,0,0,1,2.5-1.7,1,1,0,0,0-.7-.5,2.8,2.8,0,0,0-1.3-.3,3.3,3.3,0,0,0-3.1,1.5,4.4,4.4,0,0,0-.9,2.6,31.9,31.9,0,0,0-.2,4.9v5.3h6.1v1.1h-6.1v22.5c0,1.8.4,3,1.3,3.7a6.7,6.7,0,0,0,4.1,1v1.2h-1.6l-8.3-.2-7.5.2v-1.2a4.2,4.2,0,0,0,2.9-.8,5.3,5.3,0,0,0,.8-3.3V366.9h-3.9v-1.1h3.9a29.6,29.6,0,0,1,.8-7.7,10.2,10.2,0,0,1,2.8-4.7,8.9,8.9,0,0,1,3.4-2.1,13.3,13.3,0,0,1,4.5-.8A9.8,9.8,0,0,1,229.8,352.4Z"/><path class="cls-2" d="M254.3,386.9l1,.3a12.6,12.6,0,0,1-4.1,6.3,10.2,10.2,0,0,1-7.3,2.6c-4.1,0-7.3-1.2-9.7-3.8s-3.6-6.4-3.6-11.5,1.3-9.1,3.9-11.8a13.3,13.3,0,0,1,10.2-4.1c7.1,0,10.7,4.2,10.7,12.7H239.3v2.7a16.7,16.7,0,0,0,1,6.3,8.4,8.4,0,0,0,2.8,3.7,5.9,5.9,0,0,0,3.6,1.1C249.9,391.4,252.4,389.9,254.3,386.9Zm-13.4-18.2a19.7,19.7,0,0,0-1.7,7.8h9a20,20,0,0,0-.9-7.4q-.9-3-3-3C242.9,366.1,241.8,367,240.9,368.7Z"/><path class="cls-2" d="M282.4,366.4a5.7,5.7,0,0,1,1.3,3.8,4.9,4.9,0,0,1-1.2,3.4,4.2,4.2,0,0,1-3.3,1.4,4.5,4.5,0,0,1-3.1-1,3.7,3.7,0,0,1-1.1-2.7,5,5,0,0,1,2.5-4.4h-1.6a5.5,5.5,0,0,0-3.7,2.6,8.7,8.7,0,0,0-1.5,4.7v15.2c0,1.8.4,3,1.3,3.7s2.2,1,4.1,1v1.2h-1.3l-7.8-.2-7.1.2h-1.1v-1.2a4.1,4.1,0,0,0,2.8-.8c.6-.6.8-1.7.8-3.3V372a6.7,6.7,0,0,0-.8-3.9,3.1,3.1,0,0,0-2.8-1.2v-1.2l3.5.2a38.5,38.5,0,0,0,8.4-.8v5.3a10.3,10.3,0,0,1,3.1-4,8,8,0,0,1,4.7-1.5A5,5,0,0,1,282.4,366.4Z"/><path class="cls-2" d="M310,386.9l1,.3a13.3,13.3,0,0,1-4.1,6.3,10.5,10.5,0,0,1-7.4,2.6c-4,0-7.2-1.2-9.6-3.8s-3.6-6.4-3.6-11.5,1.3-9.1,3.8-11.8a13.6,13.6,0,0,1,10.2-4.1c7.2,0,10.8,4.2,10.8,12.7H295c0,.6-.1,1.5-.1,2.7a16.5,16.5,0,0,0,1.1,6.3,7.8,7.8,0,0,0,2.8,3.7,5.9,5.9,0,0,0,3.6,1.1A8.7,8.7,0,0,0,310,386.9Zm-13.4-18.2a19.7,19.7,0,0,0-1.7,7.8h9a20,20,0,0,0-.9-7.4q-1-3-3-3C298.6,366.1,297.5,367,296.6,368.7Z"/><path class="cls-2" d="M342.1,367.1a6.6,6.6,0,0,1,1.3,2.8,20,20,0,0,1,.4,4.7V390a4.7,4.7,0,0,0,.9,3.3,4.1,4.1,0,0,0,2.8.8v1.2l-7.6-.2-7.4.2v-1.2a3.3,3.3,0,0,0,2.4-.8,5.4,5.4,0,0,0,.7-3.3V372.2a6.9,6.9,0,0,0-.8-3.6,3,3,0,0,0-2.8-1.2,5.4,5.4,0,0,0-4,1.9,7.1,7.1,0,0,0-1.6,4.8V390a6.4,6.4,0,0,0,.6,3.3,3.4,3.4,0,0,0,2.5.8v1.2l-7.2-.2-7.9.2v-1.2a4.2,4.2,0,0,0,2.9-.8,5.3,5.3,0,0,0,.8-3.3V372a7.6,7.6,0,0,0-.8-3.9,3.2,3.2,0,0,0-2.9-1.2v-1.2l3.6.2a38.5,38.5,0,0,0,8.4-.8v5.1c1.7-3.5,4.8-5.3,9.4-5.3C338.7,364.9,340.8,365.6,342.1,367.1Z"/><path class="cls-2" d="M368.6,365.4a11.1,11.1,0,0,1,3.1,1.2,6.3,6.3,0,0,1,2.3,2.3,5.9,5.9,0,0,1,.9,3.1,4.9,4.9,0,0,1-1.3,3.3,4.2,4.2,0,0,1-3.3,1.3,4.8,4.8,0,0,1-3.2-1.1,4.1,4.1,0,0,1-1.2-3.1,4.4,4.4,0,0,1,1.1-3,4.8,4.8,0,0,1,2.7-1.7,2.4,2.4,0,0,0-1.4-1,4.5,4.5,0,0,0-2-.4c-2.3,0-4.1,1.2-5.4,3.7s-1.9,5.8-1.9,9.9.7,7,2.2,8.8a6.5,6.5,0,0,0,5.4,2.7,9.4,9.4,0,0,0,3.9-1,9.2,9.2,0,0,0,3.6-3.7l1,.4a14.8,14.8,0,0,1-4,6.4,10.3,10.3,0,0,1-7.4,2.6,12.4,12.4,0,0,1-9.6-3.9c-2.5-2.5-3.8-6.4-3.8-11.5a17.4,17.4,0,0,1,1.9-8.6,12.5,12.5,0,0,1,5-5.4,14.6,14.6,0,0,1,7.3-1.8A17.7,17.7,0,0,1,368.6,365.4Z"/><path class="cls-2" d="M403.6,386.9l1.1.3a14.1,14.1,0,0,1-4.1,6.3,10.5,10.5,0,0,1-7.4,2.6c-4,0-7.3-1.2-9.7-3.8s-3.5-6.4-3.5-11.5,1.2-9.1,3.8-11.8a13.6,13.6,0,0,1,10.2-4.1c7.2,0,10.8,4.2,10.8,12.7H388.7a19.4,19.4,0,0,0-.1,2.7,16.5,16.5,0,0,0,1.1,6.3,8.3,8.3,0,0,0,2.7,3.7,6.4,6.4,0,0,0,3.7,1.1Q400.8,391.4,403.6,386.9Zm-13.3-18.2a19.7,19.7,0,0,0-1.7,7.8h9a25.3,25.3,0,0,0-.9-7.4q-1.1-3-3-3C392.3,366.1,391.2,367,390.3,368.7Z"/><circle class="cls-2" cx="363.2" cy="302.1" r="43"/><path class="cls-1" d="M338.4,327.5a8.1,8.1,0,0,0,3.7-1.3,7.1,7.1,0,0,0,2.2-3.7,21.7,21.7,0,0,0,.8-6.9V286.2a9.7,9.7,0,0,0-.3-2.9,1.8,1.8,0,0,0-1.1-1.3,11.8,11.8,0,0,0-2.6-.4v-1.1l8.1.2,8.5-.2v1.1a11.9,11.9,0,0,0-2.7.4,1.8,1.8,0,0,0-1.1,1.3,9.7,9.7,0,0,0-.3,2.9v22.9c0,5-.3,8.6-.9,10.7a10.6,10.6,0,0,1-4.8,6.3,16.9,16.9,0,0,1-9.5,2.4Z"/><path class="cls-1" d="M373.1,303.1v9.4a8.3,8.3,0,0,0,.4,3.1,2.3,2.3,0,0,0,1.6,1.3,15.2,15.2,0,0,0,3.7.4v1.2l-9.8-.2h-8.5v-1.1a10.9,10.9,0,0,0,2.6-.4,2,2,0,0,0,1.2-1.3,10.2,10.2,0,0,0,.3-2.9V286.2a9.7,9.7,0,0,0-.3-2.9,1.8,1.8,0,0,0-1.2-1.3,10.9,10.9,0,0,0-2.6-.4v-1.1l8.2.2h8.4c4.8,0,8.5.9,11,2.8a9.2,9.2,0,0,1,3.9,7.7,11.6,11.6,0,0,1-1.5,5.7,11.4,11.4,0,0,1-5.1,4.5,21.2,21.2,0,0,1-9.5,1.8Zm1.2-21.1a1.6,1.6,0,0,0-.9,1.3,10.7,10.7,0,0,0-.3,2.9v15.9h2.3c2.9,0,4.9-1,6-2.8a15,15,0,0,0,1.7-7.6c0-3.4-.6-6-1.6-7.6s-2.7-2.5-5.1-2.5A3.7,3.7,0,0,0,374.3,282Z"/></g></g></svg>