<svg xmlns="http://www.w3.org/2000/svg" viewBox="0 0 504 504"><defs><style>.cls-1{fill:#e5decf;}.cls-2{fill:#403b63;}</style></defs><title>アセット 6</title><g id="レイヤー_2" data-name="レイヤー 2"><g id="レイヤー_4" data-name="レイヤー 4"><circle class="cls-1" cx="252" cy="252" r="252"/><path class="cls-2" d="M355.6,164.08c-1.44-1.62-21.29-26.47-24.79-30.68s-5.2-3.46-7.35-3.14-27.27,4.53-30.19,5-4.75,1.66-3,4.17c1.6,2.24,18.11,25.65,21.75,30.8L246.41,186,194.2,98.69c-2.08-3.08-2.51-4.16-7.24-3.94S146,98,143.42,98.19s-5.41,1.36-2.83,7.45,43.72,94.75,44.87,97.33,4.12,6.77,11.11,5.09c7.15-1.72,32-8.19,45.5-11.74,7.16,13,21.77,39.27,24.47,43,3.6,5,6.09,4.2,11.62,2.52,4.32-1.31,67.63-24.07,70.48-25.25s4.62-2,2.69-4.86c-1.42-2.1-18.12-24.47-26.87-36.18,6-1.59,27.3-7.26,29.57-7.88C356.67,167,357,165.69,355.6,164.08Zm-119.35,24.4c-.78.17-37.55,9-39.51,9.42s-2,.22-2.19-.45S150.83,107.09,150.23,106s-.57-2,0-2,34.72-3,35.93-3.11,1.08.19,1.53,1l49,84.61C237.54,187.86,237,188.31,236.25,188.48Zm103.67,19.43c.59.92,1.18,1.51-.67,2.18s-62.23,21-63.4,21.55-2.1.68-3.61-1.5S251.09,194,251.09,194l64-16.65c1.59-.5,2.09-.84,3.1.75S339.34,207,339.92,207.91ZM344,162.46c-1.44.32-24.94,6.15-24.94,6.15l-19.23-26.38c-.53-.76-1-1.52.36-1.7s23.19-4.13,24.18-4.35,1.84-.49,3.05,1.16,17.83,22.7,18.46,23.51S345.46,162.15,344,162.46Z"/><path class="cls-2" d="M117.27,281.92a11.5,11.5,0,0,0-3,.46A2.07,2.07,0,0,0,113,283.7a10.28,10.28,0,0,0-.35,3.15V316a8.91,8.91,0,0,0,.29,2.67,1.72,1.72,0,0,0,1,1.12,6.75,6.75,0,0,0,2.32.29h2.81a8.44,8.44,0,0,0,6.73-3.5,18.75,18.75,0,0,0,3.7-9.29h1.32c-.11,1.3-.17,3-.17,5.05a82.73,82.73,0,0,0,.4,9.05q-3.9-.17-13.13-.17-12.5,0-18.69.17v-1.14a10,10,0,0,0,2.78-.46,2,2,0,0,0,1.2-1.32,11.2,11.2,0,0,0,.32-3.15V286.85a11.2,11.2,0,0,0-.32-3.15,2,2,0,0,0-1.2-1.32,10,10,0,0,0-2.78-.46v-1.15c2,.12,5,.17,9.06.17,3.9,0,6.9-.05,9-.17Z"/><path class="cls-2" d="M136.91,319.87a6.89,6.89,0,0,1-1.81-5,6.66,6.66,0,0,1,1.35-4.28,9.15,9.15,0,0,1,3.26-2.6,44.71,44.71,0,0,1,4.91-1.95,25.8,25.8,0,0,0,4.61-2,2.72,2.72,0,0,0,1.46-2.44v-4.47a5.75,5.75,0,0,0-1.11-3.76,4.29,4.29,0,0,0-3.47-1.34,5.86,5.86,0,0,0-4.19,1.37,5.47,5.47,0,0,1,2.5,1.72,4.31,4.31,0,0,1,.88,2.7A3.9,3.9,0,0,1,144,301a4.7,4.7,0,0,1-3.21,1.15,3.87,3.87,0,0,1-3.1-1.26,4.63,4.63,0,0,1-1.09-3.15,4.74,4.74,0,0,1,.77-2.73,7.79,7.79,0,0,1,2.38-2.09,13.3,13.3,0,0,1,3.82-1.43,22,22,0,0,1,5-.52,18.45,18.45,0,0,1,4.87.57,7.85,7.85,0,0,1,3.44,1.95,6.37,6.37,0,0,1,1.69,3.1,22.58,22.58,0,0,1,.43,5v15.59a5.22,5.22,0,0,0,.26,1.95,1,1,0,0,0,1,.57,3.58,3.58,0,0,0,2.07-1l.57,1a9.58,9.58,0,0,1-6.31,2.13c-2.1,0-3.57-.42-4.41-1.27a4.76,4.76,0,0,1-1.32-3.38,9.29,9.29,0,0,1-8.43,4.65C139.93,321.77,138.11,321.13,136.91,319.87Zm13.78-4.12V304a8.51,8.51,0,0,1-2.92,2.52,14.06,14.06,0,0,0-3.38,2.87,6.45,6.45,0,0,0-1.15,4.13,5.14,5.14,0,0,0,1,3.47,3.25,3.25,0,0,0,2.58,1.12A4.76,4.76,0,0,0,150.69,315.75Z"/><path class="cls-2" d="M190.43,292.47a5.59,5.59,0,0,1,1.31,3.73,4.92,4.92,0,0,1-1.23,3.46,4.17,4.17,0,0,1-3.24,1.35,4.5,4.5,0,0,1-3.09-1,3.36,3.36,0,0,1-1.15-2.67,5.22,5.22,0,0,1,2.52-4.47,2.9,2.9,0,0,0-.69-.06,2.82,2.82,0,0,0-.91.12,5.46,5.46,0,0,0-3.7,2.63,8.46,8.46,0,0,0-1.52,4.71v15.19c0,1.76.43,3,1.29,3.67a6.55,6.55,0,0,0,4.1,1v1.2a12.09,12.09,0,0,1-1.32-.05q-5.85-.18-7.8-.18-1.55,0-7.05.18a9.42,9.42,0,0,1-1.15.05v-1.2a3.76,3.76,0,0,0,2.87-.89,4.88,4.88,0,0,0,.8-3.24V298a7,7,0,0,0-.8-3.84,3.19,3.19,0,0,0-2.87-1.2v-1.21c1.23.12,2.41.17,3.56.17a35.79,35.79,0,0,0,8.37-.8v5.33a9.78,9.78,0,0,1,3.15-4,7.69,7.69,0,0,1,4.65-1.52A4.85,4.85,0,0,1,190.43,292.47Z"/><path class="cls-2" d="M196.82,319.87a6.89,6.89,0,0,1-1.81-5,6.66,6.66,0,0,1,1.35-4.28,9.27,9.27,0,0,1,3.27-2.6,44.45,44.45,0,0,1,4.9-1.95,26.3,26.3,0,0,0,4.62-2,2.74,2.74,0,0,0,1.46-2.44v-4.47a5.75,5.75,0,0,0-1.12-3.76,4.28,4.28,0,0,0-3.47-1.34,5.87,5.87,0,0,0-4.19,1.37,5.42,5.42,0,0,1,2.5,1.72,4.32,4.32,0,0,1,.89,2.7A3.87,3.87,0,0,1,203.9,301a4.7,4.7,0,0,1-3.21,1.15,3.88,3.88,0,0,1-3.1-1.26,5.13,5.13,0,0,1-.31-5.88,7.68,7.68,0,0,1,2.38-2.09,13.12,13.12,0,0,1,3.81-1.43,22,22,0,0,1,5-.52,18.39,18.39,0,0,1,4.87.57,7.8,7.8,0,0,1,3.44,1.95,6.29,6.29,0,0,1,1.69,3.1,22.58,22.58,0,0,1,.43,5v15.59a5.22,5.22,0,0,0,.26,1.95,1,1,0,0,0,1,.57,3.53,3.53,0,0,0,2.07-1l.57,1a9.57,9.57,0,0,1-6.3,2.13c-2.11,0-3.58-.42-4.42-1.27a4.76,4.76,0,0,1-1.32-3.38,9.29,9.29,0,0,1-8.43,4.65C199.85,321.77,198,321.13,196.82,319.87Zm13.79-4.12V304a8.66,8.66,0,0,1-2.93,2.52,14.06,14.06,0,0,0-3.38,2.87,6.51,6.51,0,0,0-1.15,4.13,5.19,5.19,0,0,0,1,3.47,3.27,3.27,0,0,0,2.58,1.12A4.77,4.77,0,0,0,210.61,315.75Z"/><path class="cls-2" d="M253.26,291.72v1.15a4.44,4.44,0,0,0-2.15,1.46,11.69,11.69,0,0,0-1.8,3.47l-8.37,23.68c-.43,0-1.06-.06-1.9-.06s-1.41,0-1.83.06L227,296.14a6.27,6.27,0,0,0-1.63-2.58,2.8,2.8,0,0,0-1.69-.63v-1.21c2.67.2,5.39.29,8.14.29,2.41,0,4.89-.09,7.45-.29v1.21a10.66,10.66,0,0,0-2.78.25,1.3,1.3,0,0,0-.83,1.41A5.79,5.79,0,0,0,236,296l6.53,17.37L246.61,302a14.79,14.79,0,0,0,.92-4.64q0-4.18-4.19-4.53v-1.15c1.76.12,3.6.17,5.51.17A40.32,40.32,0,0,0,253.26,291.72Z"/><path class="cls-2" d="M279.12,312.88l1,.34a13.62,13.62,0,0,1-4.1,6.34,10.72,10.72,0,0,1-7.37,2.61A12.53,12.53,0,0,1,259,318.3q-3.58-3.87-3.58-11.44,0-7.74,3.84-11.84a13.33,13.33,0,0,1,10.21-4.1q10.77,0,10.78,12.73H264.16c0,.57-.06,1.47-.06,2.69a16.27,16.27,0,0,0,1.06,6.31,8.07,8.07,0,0,0,2.75,3.67,6.4,6.4,0,0,0,3.64,1.15Q276.26,317.47,279.12,312.88Zm-13.39-18.2c-.9,1.7-1.46,4.32-1.69,7.88h9a21.74,21.74,0,0,0-.89-7.48c-.67-2-1.67-3-3-3S266.63,293,265.73,294.68Z"/><path class="cls-2" d="M297.58,316a4.93,4.93,0,0,0,.8,3.24,3.77,3.77,0,0,0,2.87.89v1.2q-6-.23-7.68-.23-1.95,0-7.91.23v-1.2a3.76,3.76,0,0,0,2.83-.89,4.75,4.75,0,0,0,.83-3.24V283.35a6.84,6.84,0,0,0-.83-3.84,3.19,3.19,0,0,0-2.83-1.2V277.1c1.22.12,2.4.17,3.55.17a36.62,36.62,0,0,0,8.37-.8Z"/><path class="cls-2" d="M126.61,354.93a19.4,19.4,0,0,1,4.7,2.75,1.91,1.91,0,0,0,1.09.51c.77,0,1.27-1.14,1.5-3.44h1.31q-.22,3.9-.23,13.88h-1.31a29.09,29.09,0,0,0-1.38-6.48,9.27,9.27,0,0,0-2.92-3.9,9.78,9.78,0,0,0-3.33-2.09,11,11,0,0,0-4-.72q-5.79,0-8.6,5.65c-1.87,3.76-2.8,8.46-2.8,14.07s1,10.25,2.92,14,4.85,5.62,8.71,5.62a11.16,11.16,0,0,0,3.87-.71,8.58,8.58,0,0,0,3.24-2.1,8.41,8.41,0,0,0,3-4,33.43,33.43,0,0,0,1.29-7.05H135q0,10.38.23,14.45H133.9a10.26,10.26,0,0,0-.49-2.61c-.21-.52-.51-.78-.89-.78a2.59,2.59,0,0,0-1.21.46,23.54,23.54,0,0,1-4.93,2.78,15.18,15.18,0,0,1-5.67.95,22,22,0,0,1-10.64-2.47,17.16,17.16,0,0,1-7.08-7.14,23.15,23.15,0,0,1-2.52-11.15,23.55,23.55,0,0,1,2.58-11.18,18.68,18.68,0,0,1,7.2-7.56,20.42,20.42,0,0,1,10.52-2.7A15.54,15.54,0,0,1,126.61,354.93Z"/><path class="cls-2" d="M163.77,368.66q3.72,3.75,3.72,11.89t-3.72,11.87q-3.74,3.74-10.33,3.73t-10.29-3.73q-3.75-3.72-3.75-11.87t3.75-11.89q3.76-3.77,10.29-3.76T163.77,368.66Zm-14.25,1q-1.47,3.58-1.46,10.92t1.46,10.9Q151,395,153.44,395c1.69,0,3-1.17,4-3.52s1.43-6,1.43-10.93-.48-8.58-1.46-10.95-2.28-3.55-3.93-3.55S150.49,367.24,149.52,369.63Z"/><path class="cls-2" d="M198.68,367.14a6.24,6.24,0,0,1,1.38,2.81,21.71,21.71,0,0,1,.4,4.64V390a4.75,4.75,0,0,0,.83,3.24,3.73,3.73,0,0,0,2.84.89v1.21c-3.83-.16-6.35-.23-7.57-.23s-3.63.07-7.45.23v-1.21a2.84,2.84,0,0,0,2.4-.89,5.51,5.51,0,0,0,.69-3.24V372.18a6.68,6.68,0,0,0-.77-3.55,3.07,3.07,0,0,0-2.78-1.21,5.14,5.14,0,0,0-4,1.92,7,7,0,0,0-1.66,4.74V390a5.51,5.51,0,0,0,.69,3.24,2.85,2.85,0,0,0,2.41.89v1.21c-3.52-.16-5.89-.23-7.11-.23s-3.79.07-7.91.23v-1.21a3.71,3.71,0,0,0,2.86-.89,4.88,4.88,0,0,0,.8-3.24V372a7.09,7.09,0,0,0-.8-3.84,3.18,3.18,0,0,0-2.86-1.2V365.7c1.22.12,2.4.18,3.55.18a35.72,35.72,0,0,0,8.37-.81v5.16q2.58-5.33,9.4-5.33Q196.74,364.9,198.68,367.14Z"/><path class="cls-2" d="M229.81,352.4a5.16,5.16,0,0,1,1.41,1.81,5.65,5.65,0,0,1,.54,2.49,3.82,3.82,0,0,1-1.15,2.78,3.87,3.87,0,0,1-2.92,1.18,4.49,4.49,0,0,1-3.15-1.09,3.8,3.8,0,0,1-1.21-3,4.31,4.31,0,0,1,.86-2.64,4.56,4.56,0,0,1,2.53-1.6,1.41,1.41,0,0,0-.72-.58,3.52,3.52,0,0,0-1.35-.23,3.34,3.34,0,0,0-3.09,1.49,5.59,5.59,0,0,0-.86,2.53,38.32,38.32,0,0,0-.23,5v5.22h6.13v1.15h-6.13v22.53c0,1.76.45,3,1.34,3.67a6.61,6.61,0,0,0,4.05,1v1.21l-1.61-.06c-4.24-.12-7-.17-8.25-.17s-3.64.07-7.46.23v-1.21a3.73,3.73,0,0,0,2.87-.89,4.93,4.93,0,0,0,.8-3.24v-23.1h-3.9v-1.15h3.9a28.93,28.93,0,0,1,.8-7.71,10.62,10.62,0,0,1,2.81-4.67,9.49,9.49,0,0,1,3.39-2.07,12.6,12.6,0,0,1,4.47-.8A10.08,10.08,0,0,1,229.81,352.4Z"/><path class="cls-2" d="M254.29,386.86l1,.34a13.77,13.77,0,0,1-4.1,6.34,10.73,10.73,0,0,1-7.37,2.61,12.53,12.53,0,0,1-9.66-3.87q-3.58-3.87-3.59-11.44,0-7.74,3.85-11.84a13.33,13.33,0,0,1,10.2-4.1q10.78,0,10.78,12.73H239.33c0,.57-.06,1.47-.06,2.69a16.27,16.27,0,0,0,1.06,6.31,8.08,8.08,0,0,0,2.75,3.67,6.36,6.36,0,0,0,3.65,1.15Q251.43,391.45,254.29,386.86Zm-13.38-18.2q-1.35,2.55-1.7,7.88h9a22,22,0,0,0-.89-7.48c-.67-2-1.68-2.95-3-2.95S241.8,367,240.91,368.66Z"/><path class="cls-2" d="M282.39,366.45a5.54,5.54,0,0,1,1.32,3.73,4.92,4.92,0,0,1-1.24,3.46,4.17,4.17,0,0,1-3.24,1.35,4.5,4.5,0,0,1-3.09-1,3.36,3.36,0,0,1-1.15-2.67,5.22,5.22,0,0,1,2.52-4.47,3.71,3.71,0,0,0-1.6.06,5.45,5.45,0,0,0-3.7,2.64,8.43,8.43,0,0,0-1.52,4.7v15.19c0,1.76.43,3,1.29,3.67a6.55,6.55,0,0,0,4.1,1v1.21a11.73,11.73,0,0,1-1.32-.06c-3.9-.12-6.5-.17-7.8-.17-1,0-3.38.05-7,.17a9,9,0,0,1-1.14.06v-1.21a3.71,3.71,0,0,0,2.86-.89,4.88,4.88,0,0,0,.8-3.24V372a7.09,7.09,0,0,0-.8-3.84,3.18,3.18,0,0,0-2.86-1.2V365.7c1.22.12,2.4.18,3.55.18a35.72,35.72,0,0,0,8.37-.81v5.34a9.75,9.75,0,0,1,3.15-4,7.69,7.69,0,0,1,4.65-1.52A4.85,4.85,0,0,1,282.39,366.45Z"/><path class="cls-2" d="M310,386.86l1,.34a13.77,13.77,0,0,1-4.1,6.34,10.73,10.73,0,0,1-7.37,2.61,12.53,12.53,0,0,1-9.66-3.87q-3.58-3.87-3.59-11.44,0-7.74,3.85-11.84a13.33,13.33,0,0,1,10.2-4.1q10.79,0,10.78,12.73H295c0,.57-.06,1.47-.06,2.69a16.46,16.46,0,0,0,1.06,6.31,8.08,8.08,0,0,0,2.75,3.67,6.36,6.36,0,0,0,3.65,1.15Q307.09,391.45,310,386.86Zm-13.38-18.2q-1.35,2.55-1.7,7.88h9a22,22,0,0,0-.89-7.48c-.67-2-1.67-2.95-3-2.95S297.47,367,296.58,368.66Z"/><path class="cls-2" d="M342.07,367.14a6.24,6.24,0,0,1,1.38,2.81,21.71,21.71,0,0,1,.4,4.64V390a4.75,4.75,0,0,0,.83,3.24,3.73,3.73,0,0,0,2.84.89v1.21c-3.83-.16-6.35-.23-7.57-.23s-3.63.07-7.45.23v-1.21a2.84,2.84,0,0,0,2.4-.89,5.51,5.51,0,0,0,.69-3.24V372.18a6.68,6.68,0,0,0-.77-3.55,3.07,3.07,0,0,0-2.78-1.21,5.14,5.14,0,0,0-4,1.92,7,7,0,0,0-1.66,4.74V390a5.51,5.51,0,0,0,.69,3.24,2.85,2.85,0,0,0,2.41.89v1.21c-3.52-.16-5.89-.23-7.11-.23s-3.79.07-7.91.23v-1.21a3.71,3.71,0,0,0,2.86-.89,4.88,4.88,0,0,0,.8-3.24V372a7.09,7.09,0,0,0-.8-3.84,3.18,3.18,0,0,0-2.86-1.2V365.7c1.22.12,2.4.18,3.55.18a35.72,35.72,0,0,0,8.37-.81v5.16q2.58-5.33,9.4-5.33Q340.13,364.9,342.07,367.14Z"/><path class="cls-2" d="M368.56,365.36a10.67,10.67,0,0,1,3.15,1.26,6.69,6.69,0,0,1,2.32,2.32,5.88,5.88,0,0,1,.84,3.07,4.53,4.53,0,0,1-1.27,3.3,4.36,4.36,0,0,1-3.26,1.29,4.47,4.47,0,0,1-3.22-1.15,4.06,4.06,0,0,1-1.2-3.09,4.41,4.41,0,0,1,1.09-3,5.5,5.5,0,0,1,2.7-1.72,3.12,3.12,0,0,0-1.41-1,5.46,5.46,0,0,0-2-.37q-3.45,0-5.37,3.75a21.67,21.67,0,0,0-1.92,9.84q0,6.13,2.18,8.83a6.75,6.75,0,0,0,5.45,2.69,8.42,8.42,0,0,0,3.93-1,9.65,9.65,0,0,0,3.58-3.61l1,.34a14.24,14.24,0,0,1-4,6.39,10.42,10.42,0,0,1-7.39,2.67,12.75,12.75,0,0,1-9.64-3.9q-3.72-3.9-3.72-11.58a18.61,18.61,0,0,1,1.83-8.6,12.49,12.49,0,0,1,5-5.36,14.62,14.62,0,0,1,7.33-1.81A16.78,16.78,0,0,1,368.56,365.36Z"/><path class="cls-2" d="M403.64,386.86l1,.34a13.69,13.69,0,0,1-4.1,6.34,10.73,10.73,0,0,1-7.37,2.61,12.53,12.53,0,0,1-9.66-3.87Q380,388.41,380,380.84q0-7.74,3.84-11.84a13.33,13.33,0,0,1,10.2-4.1q10.78,0,10.78,12.73H388.68c0,.57-.06,1.47-.06,2.69a16.46,16.46,0,0,0,1.06,6.31,8,8,0,0,0,2.76,3.67,6.31,6.31,0,0,0,3.64,1.15Q400.78,391.45,403.64,386.86Zm-13.38-18.2q-1.35,2.55-1.69,7.88h9a22,22,0,0,0-.89-7.48c-.67-2-1.67-2.95-3-2.95S391.16,367,390.26,368.66Z"/><circle class="cls-2" cx="363.15" cy="302.09" r="43"/><path class="cls-1" d="M338.36,327.47a7.23,7.23,0,0,0,3.72-1.31,7,7,0,0,0,2.25-3.65,24.59,24.59,0,0,0,.78-6.94V286.2a10.83,10.83,0,0,0-.29-2.95,1.9,1.9,0,0,0-1.13-1.23,9.38,9.38,0,0,0-2.6-.43v-1.07c1.79.11,4.48.16,8.09.16s6.51-.05,8.47-.16v1.07A9.2,9.2,0,0,0,355,282a1.86,1.86,0,0,0-1.1,1.23,10.36,10.36,0,0,0-.3,2.95v22.89c0,5-.3,8.61-.91,10.71a11.1,11.1,0,0,1-4.8,6.33,17.09,17.09,0,0,1-9.56,2.41Z"/><path class="cls-1" d="M373.09,303.14v9.32a8.1,8.1,0,0,0,.45,3.14,2.34,2.34,0,0,0,1.61,1.31,16.76,16.76,0,0,0,3.67.38v1.17c-4.39-.1-7.66-.16-9.81-.16-1.78,0-4,0-6.75.11l-1.72,0v-1.07a9,9,0,0,0,2.6-.43,1.84,1.84,0,0,0,1.13-1.23,10.44,10.44,0,0,0,.29-3V286.2a10.44,10.44,0,0,0-.29-2.95,1.88,1.88,0,0,0-1.13-1.23,9.38,9.38,0,0,0-2.6-.43v-1.07c1.83.11,4.54.16,8.15.16l5.95-.05c.71,0,1.54-.06,2.47-.06q7.23,0,11,2.87a9.16,9.16,0,0,1,3.8,7.69,11,11,0,0,1-6.56,10.18,20.82,20.82,0,0,1-9.46,1.83Zm1.2-21.17a2.05,2.05,0,0,0-.94,1.34,11.6,11.6,0,0,0-.26,2.89v15.87h2.3q4.35,0,6-2.79a14.72,14.72,0,0,0,1.66-7.56c0-3.46-.5-6-1.52-7.66s-2.73-2.47-5.12-2.47A4.52,4.52,0,0,0,374.29,282Z"/></g></g></svg>