<svg xmlns="http://www.w3.org/2000/svg" viewBox="0 0 631.692 199.619">
  <defs>
    <style>
      .cls-1 {
        opacity: 0.2;
      }

      .cls-2 {
        fill: #d8d1c1;
      }
    </style>
  </defs>
  <g id="bg_cloud" class="cls-1" transform="translate(-218 383.999)">
    <path id="パス_102" data-name="パス 102" class="cls-2" d="M555.79,91.47a1.194,1.194,0,0,0-.16-.08c-3.73-1.65-8.02-1.06-10.26,2.69-1.9,3.17-1.01,8.63,2.69,10.26,1.4.62,2.1.88,2.52,2.37.01,0,.02-.01.03-.01a11.9,11.9,0,0,0,.47,1.2,23.81,23.81,0,0,0-6.74,3.05c-3.18,2.09-5.09,2.34-8.85,2.66-1.4.12-2.8.27-4.21.43a174.944,174.944,0,0,0-29.52,2.9,20.783,20.783,0,0,0-9.77-5.63,6.967,6.967,0,0,0-6.58,1.46c-7.38-5.3-15.71-9.76-25.44-11.54-13.26-2.42-29.47,1.87-34.07,11.7-3.48-5.19-10.91-8.68-18.53-8.7s-15.08,3.43-18.61,8.59c-4.43-3.35-11.49-5.44-16.92-3.1s-5.17,10.16.99,10.89l-.92.56c40.63,5.89,82.15,11.5,123.49,13.8a7.278,7.278,0,0,0,6.4,1.18c.73-.26,1.47-.51,2.2-.75,43.21,1.91,86.17-.02,127.69-9.31-7.76-8.02-22.29-11.25-34.8-8.88a5.279,5.279,0,0,0-1.54-1.95c-6.67-5.16-15.47-6.49-22.71-3a25.082,25.082,0,0,0-8.22-4.22,6.709,6.709,0,0,0,.89-3.42,9.222,9.222,0,0,0,5.19,2.27c6.66.72,13.32,1.52,19.99,2.16a12.124,12.124,0,0,0,7.39-1.18,9.51,9.51,0,0,0,3.16-2.92c.26-.36.53-.72.79-1.09l.03-.06c7.52-.76,9.21-13.13,1.09-14.69q-3.825-.735-7.64-1.47a8.67,8.67,0,0,0-8.37-3.43c-8.76,1.58-18.58,2.21-27.01,5.14A17.751,17.751,0,0,0,555.79,91.47Z" transform="translate(218.002 -383.994)"/>
    <path id="パス_103" data-name="パス 103" class="cls-2" d="M310.44,199.58c11.87-.49,23.33-6.22,34.91-4.16,4.11.73,7.89,2.42,12.08,2.82,7.66.74,14.72-2.9,22.1-4.63,12.68-2.98,26.26-.31,39.45.73,31.08,2.44,61.99-4.35,91.98-11.07,12.4-2.78,27.65-8.71,25.8-18.5-.98-5.2-7.23-9.18-13.95-10.21s-13.73.41-19.9,2.71c-3.95,1.47-7.87,3.34-12.27,3.48-7.35.23-13.5-4.38-20.74-5.36-14.4-1.95-26.54,10.61-41.12,9.81-8.78-.48-17.67-5.78-25.56-2.78-4.73,1.8-7.69,6.31-12.95,6.67-3.01.21-5.82-1.06-8.4-2.28-9.98-4.7-20.31-9.31-31.76-11.23s-24.34-.79-33.28,5c-2.76,1.79-5.17,4.02-8.49,5.1-3.36,1.09-7.16.86-10.81.75-15.38-.45-30.82,1.72-46.13.53-9.63-.75-19.12-2.82-28.8-2.74s-20.16,2.9-24.86,9.38a148.1,148.1,0,0,0-37.71-2.8c-4,4.3.11,10.63,6.11,13.22s13.21,2.75,19.95,3.85-1.47,6.38,15.88,8.89,24.44,2.42,34.69-.91c5.71-1.86,11.05-4.51,17.11-5.55C272.87,187,290.9,200.38,310.44,199.58Z" transform="translate(218.002 -383.994)"/>
    <path id="パス_104" data-name="パス 104" class="cls-2" d="M30.48,137.86c21.68,5.07,44.67,5.61,67.33,6.11q30.69.675,61.39,1.36c17.66.39,35.44.78,52.91-1.21,18.02-2.05,35.85-6.63,54.02-5.52,13.72.84,28.56,4.74,40.51-.49,4.5-1.97,7.96-5.04,11.34-8.04,2.25-2.01,4.65-4.35,4.26-6.98-.42-2.86-3.92-4.78-7.14-6.26-5.36-2.45-11.06-4.77-17.28-5.2s-13.09,1.45-16.06,5.65c-13.57-6.94-33.81-4.63-44.15,5.03-15.38-8.09-36.1-9.85-53.42-4.54-10.39-8.56-26.42-12.89-41.52-11.21s-28.87,9.3-35.67,19.76c-10.31-6.73-26.37-7.67-37.9-2.23a23.709,23.709,0,0,0-15.86-.75c-10.35-6.36-24.53-8.91-37.5-6.75-8.9,1.48-18.55,7.8-14.98,14.22a130.293,130.293,0,0,1,33.7,7.9Z" transform="translate(218.002 -383.994)"/>
    <path id="パス_105" data-name="パス 105" class="cls-2" d="M278.55,79.79l-.37-.6c2.11,1.17,5.49,1.72,8.25,1.93,12.63.93,24.35,5.29,36.65,7.67,16.23,3.15,33.22,2.82,49.95,2.47,29.13-.61,58.59-1.25,86.69-7.16,7.64-1.61,15.3-3.62,23.23-3.6,10.5.02,20.42,3.6,30.82,4.66,13.5,1.38,27.67-1.69,38.21-8.29-11.01-14.46-36.36-21.38-56.84-15.54-1.95-7.11-12.47-10.98-22.05-10.71a11.162,11.162,0,0,0-1.11-2.68c1.32-1.26,2.64-2.52,3.93-3.82,2.81-.9,5.92-1.85,9.11-2.54q2.145.165,4.26.18c5.04.04,9.2-.27,13.79,1.74.41.18.83.35,1.24.51a8.633,8.633,0,0,0,7.47,1.72,22.623,22.623,0,0,0,12.32-2.74,31.553,31.553,0,0,0,4.12-2.72,14.873,14.873,0,0,0,2.68-1.02,10.08,10.08,0,0,0,3.97,2.11,7.215,7.215,0,0,0,1.43.23,11.87,11.87,0,0,0,3.34.48,12.384,12.384,0,0,0,6.15-1.84,6.5,6.5,0,0,0,3.39-.17c3.42,5.38,13.86,4.06,13.93-4,.06-7.16-6.62-12.53-13.16-12.6a16.538,16.538,0,0,0-7.45-8.36,20.384,20.384,0,0,0-17.06-1.07,26.8,26.8,0,0,0-4.41,2.12,21.8,21.8,0,0,0-9.17,2.65,6.823,6.823,0,0,0-1.97,1.67,32.875,32.875,0,0,0-8.16-2.19c-5.26-.71-10.56.02-15.8-.62-5.63-.69-9.96-3.47-15.94-2.51a16.319,16.319,0,0,0-10.55,6.51,5.6,5.6,0,0,0-.99-1.08c-8.01-6.76-18.55-9.92-28.7-7.9A26.307,26.307,0,0,0,412.08,1.03a9.115,9.115,0,0,0-4.78.38,35.59,35.59,0,0,0-12.74,2.11c-4.32-1.47-9.3-1.95-13.02-2.35a116.966,116.966,0,0,0-31.51.94,9.32,9.32,0,0,0-2.8.25C334.84-2.32,320.46.14,309.95,8.04a35.759,35.759,0,0,0-17.25,9.38c-6.82,6.73,3.53,17.19,10.41,10.78a5.3,5.3,0,0,0,2.14.79c6.99.97,14.14,1.05,20.94-1.2.37-.12.73-.26,1.1-.41a55.161,55.161,0,0,0,51.87-8.2,6.324,6.324,0,0,0,3.5,4.71,19.092,19.092,0,0,0,14.72.2,8.234,8.234,0,0,0-2.01,6.32c.52,3.87,3.59,6.2,7.37,6.5,3.89.32,7.78.49,11.67.54-5.69,3.1-10.44,7.76-12.25,14.1-1.69.16-3.37.39-5.01.67-9.18,1.57-17.82,4.61-26.91,6.49a14.8,14.8,0,0,1-6.64.27c-2.27-.6-3.84-2.14-5.69-3.32-6.11-3.9-15.37-3.63-22.53-.97s-12.68,7.28-18.02,11.79c-3.58-6.86-12.72-11.29-22.14-12.91S276,52.74,266.4,53.5C261.01,62.87,266.66,75.1,278.55,79.79Z" transform="translate(218.002 -383.994)"/>
  </g>
</svg>
