<svg xmlns="http://www.w3.org/2000/svg" viewBox="0 0 640.147 148.984">
  <defs>
    <style>
      .cls-1 {
        opacity: 0.2;
      }

      .cls-2 {
        fill: #d8d1c1;
      }
    </style>
  </defs>
  <g id="bg_cloud" class="cls-1" transform="translate(0 -0.002)">
    <g id="グループ化_736" data-name="グループ化 736">
      <path id="パス_1" data-name="パス 1" class="cls-2" d="M108.9,103.94c6.72-1.03,13.73.41,19.9,2.71,3.95,1.47,7.87,3.34,12.27,3.48,7.35.23,13.5-4.38,20.74-5.36,14.4-1.95,26.54,10.61,41.12,9.81,8.78-.48,17.67-5.78,25.56-2.78,2.57.98,4.61,2.74,6.78,4.22a16.576,16.576,0,0,1,13.24-14.71c4.48-.85,11.06.71,15.98,3.86.77.07,1.52.17,2.25.31a6.7,6.7,0,0,1,3.91,2.16,82.019,82.019,0,0,1,10.94-2.68c11.44-1.93,24.34-.79,33.28,5,2.76,1.79,5.17,4.02,8.49,5.1a12.859,12.859,0,0,0,1.51.39c.05-.06.1-.13.15-.19a19.88,19.88,0,0,1,9.9-5.95c3.67-1.98,7.82-2.38,11.38.23.38.13.76.26,1.14.41a8.393,8.393,0,0,1,5.44,6.22c4.7.21,9.39.43,14.08.51a8.356,8.356,0,0,1-.98-5.53,6.936,6.936,0,0,1,7.13-6.1,7.18,7.18,0,0,1,4.41,1.38,4.692,4.692,0,0,1,.54.46,7.071,7.071,0,0,1,1.68,2.5,6.584,6.584,0,0,1,3.85-2.89,7.149,7.149,0,0,1,4.5-1.45c5.73,0,8.05,5.28,6.98,9.57.77-.1,1.53-.18,2.3-.27a21.438,21.438,0,0,1,27.71.38,7.224,7.224,0,0,1,1.98,2.72,18.756,18.756,0,0,1,6.88,5.54c.78-.16,1.57-.3,2.35-.45a6.91,6.91,0,0,1,7.11-5.97,7.157,7.157,0,0,1,4.52,1.47,21.191,21.191,0,0,1,2.94-2.81c6.2-4.88,14.63-6.18,21.57-2.08a6.938,6.938,0,0,1,3.2,8.48v.05l2.77-.36c6.41-.89,12.89,1.56,14.76,8.38,1.54,5.61-1.92,13.86-8.38,14.76a305.719,305.719,0,0,1-61.8,2.58c-12.67,1.52-19.15,1.05-27.96-1.81-5.71-1.86-11.05-4.51-17.11-5.55-19.1-3.3-37.13,10.08-56.67,9.27-11.87-.49-23.33-6.22-34.91-4.16-4.11.73-7.89,2.42-12.08,2.82-7.66.74-14.72-2.9-22.1-4.63-12.68-2.98-26.26-.31-39.45.73-31.08,2.44-61.99-4.35-91.98-11.07-12.4-2.78-27.65-8.71-25.8-18.5C95.93,108.96,102.18,104.97,108.9,103.94Z"/>
      <path id="パス_2" data-name="パス 2" class="cls-2" d="M138.61,68.17c9.18-7.72,19.85-15.12,33.11-17.55s29.47,1.87,34.07,11.7c3.48-5.19,10.91-8.68,18.53-8.7s15.08,3.43,18.61,8.59c4.43-3.35,11.49-5.44,16.92-3.1s5.17,10.16-.99,10.89l.92.56C173.84,83.02,83.96,94.28,0,75.49c10.43-10.78,33.1-12.92,46.64-4.41A174.961,174.961,0,0,1,138.61,68.17Z"/>
      <path id="パス_3" data-name="パス 3" class="cls-2" d="M160.19.1c9.97.78,18.89,4.84,28.09,7.87a19.669,19.669,0,0,0,6.77,1.3c4.73-.15,8.3-3.17,12.25-5.17C215.15.13,225.39.05,234.57,1.62s17.82,4.61,26.91,6.49a14.8,14.8,0,0,0,6.64.27c2.27-.6,3.84-2.14,5.69-3.32,6.11-3.9,15.37-3.63,22.53-.97s12.68,7.28,18.02,11.79c3.58-6.86,12.72-11.29,22.14-12.91s19.22-.86,28.82-.1c3.65,6.34,2.24,14-2.74,19.73,7.68.09,15.26.56,22.31,3.4.52.02,1.04.05,1.56.12,4.02.48,7.5,3.1,7.5,7.5a8.285,8.285,0,0,1-3.17,6.17,10.674,10.674,0,0,1-14.28,2.67,64.9,64.9,0,0,1-31.7-3.35,8.341,8.341,0,0,1-4.48-3.61c-8.39-2.18-17.93,2.21-25.5,5.4-2.72,1.15-5.8-.27-7.68-2.47-15.77,2.85-32.23,2.54-48.45,2.2-29.13-.61-58.59-1.25-86.69-7.16-7.64-1.61-15.3-3.62-23.23-3.6-10.5.02-20.42,3.6-30.82,4.66-13.5,1.38-27.67-1.69-38.21-8.29C90.75,11.78,116.1,4.86,136.58,10.7,138.61,3.22,150.22-.68,160.19.1Z"/>
      <path id="パス_4" data-name="パス 4" class="cls-2" d="M474.07,94.69l-1.57.03c-17.66.39-35.44.78-52.91-1.21-18.03-2.05-35.85-6.63-54.02-5.52-13.72.84-28.56,4.74-40.51-.49-4.5-1.97-7.96-5.04-11.34-8.04-2.25-2.01-4.65-4.35-4.26-6.98.42-2.86,3.92-4.78,7.14-6.26,5.36-2.45,11.06-4.77,17.28-5.2s13.09,1.45,16.06,5.65c13.57-6.94,33.81-4.63,44.15,5.03,12.89-6.78,29.52-9.09,44.76-6.55a7.239,7.239,0,0,1,13.25-1.27c10.19-6.35,23.9-9.38,36.93-7.94,15.1,1.67,28.87,9.3,35.67,19.76,5.86-3.82,13.58-5.77,21.26-5.75a6.848,6.848,0,0,1,6.94-5.23,6.941,6.941,0,0,1,5.18,2.08,6.927,6.927,0,0,1,5.19-2.08,7.327,7.327,0,0,1,3.81.98,6.756,6.756,0,0,1,2.2-.98l4.61-1.14a7.818,7.818,0,0,1,5.78.76,7.632,7.632,0,0,1,3.45,4.48,8.957,8.957,0,0,1,.19,1.35,57.645,57.645,0,0,1,32.66-4.19c.38.06.76.14,1.14.22,1.79-2.45,4.91-3.31,8.07-2.84,6.12.93,10.87,5.78,13,11.41,2.07,5.47,3.2,14.33-.19,19.51-3.67,5.62-11.76,5.62-17.72,5.05A44,44,0,0,1,609.79,97a12.44,12.44,0,0,1-4.22.56c-24.35-.83-48.28-.99-72.42,2.71a113.4,113.4,0,0,1-37.31.01A163.558,163.558,0,0,1,474.07,94.69Z"/>
    </g>
  </g>
</svg>
